<?xml version="1.0" encoding="utf-8" standalone="no"?>
<!DOCTYPE svg PUBLIC "-//W3C//DTD SVG 1.1//EN"
  "http://www.w3.org/Graphics/SVG/1.1/DTD/svg11.dtd">
<!-- Created with matplotlib (http://matplotlib.org/) -->
<svg height="172pt" version="1.1" viewBox="0 0 230 172" width="230pt" xmlns="http://www.w3.org/2000/svg" xmlns:xlink="http://www.w3.org/1999/xlink">
 <defs>
  <style type="text/css">
*{stroke-linecap:butt;stroke-linejoin:round;}
  </style>
 </defs>
 <g id="figure_1">
  <g id="patch_1">
   <path d="
M0 172.8
L230.4 172.8
L230.4 0
L0 0
z
" style="fill:#ffffff;"/>
  </g>
  <g id="axes_1">
   <g id="patch_2">
    <path d="
M28.8 155.52
L207.36 155.52
L207.36 17.28
L28.8 17.28
z
" style="fill:#ffffff;"/>
   </g>
   <g id="PolyCollection_1">
    <defs>
     <path d="
M66 -67.5132
L56.5495 -67.5132
L56.5778 -67.5612
L56.6062 -67.6091
L56.6346 -67.657
L56.663 -67.7049
L56.6913 -67.7528
L56.7197 -67.8007
L56.7481 -67.8486
L56.7765 -67.8966
L56.8049 -67.9445
L56.8332 -67.9924
L56.8616 -68.0403
L56.89 -68.0882
L56.9184 -68.1361
L56.9467 -68.184
L56.9751 -68.2319
L57.0035 -68.2799
L57.0319 -68.3278
L57.0603 -68.3757
L57.0886 -68.4236
L57.117 -68.4715
L57.1454 -68.5194
L57.1738 -68.5673
L57.2022 -68.6153
L57.2305 -68.6632
L57.2589 -68.7111
L57.2873 -68.759
L57.3157 -68.8069
L57.344 -68.8548
L57.3724 -68.9027
L57.4008 -68.9506
L57.4292 -68.9986
L57.4576 -69.0465
L57.4859 -69.0944
L57.5143 -69.1423
L57.5427 -69.1902
L57.5711 -69.2381
L57.5994 -69.286
L57.6278 -69.334
L57.6562 -69.3819
L57.6846 -69.4298
L57.713 -69.4777
L57.7413 -69.5256
L57.7697 -69.5735
L57.7981 -69.6214
L57.8265 -69.6693
L57.8549 -69.7173
L57.8832 -69.7652
L57.9116 -69.8131
L57.94 -69.861
L57.9684 -69.9089
L57.9967 -69.9568
L58.0251 -70.0047
L58.0535 -70.0527
L58.0819 -70.1006
L58.1103 -70.1485
L58.1386 -70.1964
L58.167 -70.2443
L58.1954 -70.2922
L58.2238 -70.3401
L58.2521 -70.388
L58.2805 -70.436
L58.3089 -70.4839
L58.3373 -70.5318
L58.3657 -70.5797
L58.394 -70.6276
L58.4224 -70.6755
L58.4508 -70.7234
L58.4792 -70.7714
L58.5075 -70.8193
L58.5359 -70.8672
L58.5643 -70.9151
L58.5927 -70.963
L58.6211 -71.0109
L58.6494 -71.0588
L58.6778 -71.1067
L58.7062 -71.1547
L58.7346 -71.2026
L58.763 -71.2505
L58.7913 -71.2984
L58.8197 -71.3463
L58.8481 -71.3942
L58.8765 -71.4421
L58.9048 -71.49
L58.9332 -71.538
L58.9616 -71.5859
L58.99 -71.6338
L59.0184 -71.6817
L59.0467 -71.7296
L59.0751 -71.7775
L59.1035 -71.8254
L59.1319 -71.8734
L59.1602 -71.9213
L59.1886 -71.9692
L59.217 -72.0171
L59.2454 -72.065
L59.2738 -72.1129
L59.3021 -72.1608
L59.3305 -72.2087
L59.3589 -72.2567
L59.3873 -72.3046
L59.4157 -72.3525
L59.444 -72.4004
L59.4724 -72.4483
L59.5008 -72.4962
L59.5292 -72.5441
L59.5575 -72.5921
L59.5859 -72.64
L59.6143 -72.6879
L59.6427 -72.7358
L59.6711 -72.7837
L59.6994 -72.8316
L59.7278 -72.8795
L59.7562 -72.9274
L59.7846 -72.9754
L59.8129 -73.0233
L59.8413 -73.0712
L59.8697 -73.1191
L59.8981 -73.167
L59.9265 -73.2149
L59.9548 -73.2628
L59.9832 -73.3108
L60.0116 -73.3587
L60.046 -73.4066
L60.084 -73.4545
L60.1219 -73.5024
L60.1599 -73.5503
L60.1978 -73.5982
L60.2358 -73.6461
L60.2738 -73.6941
L60.3117 -73.742
L60.3497 -73.7899
L60.3877 -73.8378
L60.4256 -73.8857
L60.4636 -73.9336
L60.5015 -73.9815
L60.5395 -74.0295
L60.5775 -74.0774
L60.6154 -74.1253
L60.6534 -74.1732
L60.6913 -74.2211
L60.7293 -74.269
L60.7673 -74.3169
L60.8052 -74.3648
L60.8432 -74.4128
L60.8812 -74.4607
L60.9191 -74.5086
L60.9571 -74.5565
L60.995 -74.6044
L61.033 -74.6523
L61.071 -74.7002
L61.1089 -74.7482
L61.1469 -74.7961
L61.1848 -74.844
L61.2228 -74.8919
L61.2608 -74.9398
L61.2987 -74.9877
L61.3367 -75.0356
L61.3747 -75.0835
L61.4126 -75.1315
L61.4506 -75.1794
L61.4885 -75.2273
L61.5265 -75.2752
L61.5645 -75.3231
L61.6024 -75.371
L61.6404 -75.4189
L61.6783 -75.4669
L61.7163 -75.5148
L61.7543 -75.5627
L61.7922 -75.6106
L61.8302 -75.6585
L61.8681 -75.7064
L61.9061 -75.7543
L61.9441 -75.8022
L61.982 -75.8502
L62.02 -75.8981
L62.058 -75.946
L62.0959 -75.9939
L62.1339 -76.0418
L62.1718 -76.0897
L62.2098 -76.1376
L62.2478 -76.1856
L62.2857 -76.2335
L62.3237 -76.2814
L62.3616 -76.3293
L62.3996 -76.3772
L62.4376 -76.4251
L62.4755 -76.473
L62.5135 -76.5209
L62.5515 -76.5689
L62.5894 -76.6168
L62.6274 -76.6647
L62.6653 -76.7126
L62.7033 -76.7605
L62.7413 -76.8084
L62.7792 -76.8563
L62.8172 -76.9043
L62.8551 -76.9522
L62.8931 -77.0001
L62.9311 -77.048
L62.969 -77.0959
L63.007 -77.1438
L63.0449 -77.1917
L63.0829 -77.2396
L63.1209 -77.2876
L63.1588 -77.3355
L63.1968 -77.3834
L63.2348 -77.4313
L63.2727 -77.4792
L63.3107 -77.5271
L63.3486 -77.575
L63.3866 -77.6229
L63.4246 -77.6709
L63.4625 -77.7188
L63.5005 -77.7667
L63.5384 -77.8146
L63.5764 -77.8625
L63.6144 -77.9104
L63.6523 -77.9583
L63.6903 -78.0063
L63.7283 -78.0542
L63.7662 -78.1021
L63.8042 -78.15
L63.8421 -78.1979
L63.8801 -78.2458
L63.9181 -78.2937
L63.956 -78.3416
L63.994 -78.3896
L64.0319 -78.4375
L64.0699 -78.4854
L64.1079 -78.5333
L64.1458 -78.5812
L64.1838 -78.6291
L64.2218 -78.677
L64.2597 -78.725
L64.2977 -78.7729
L64.3356 -78.8208
L64.3736 -78.8687
L64.4116 -78.9166
L64.4495 -78.9645
L64.4875 -79.0124
L64.5254 -79.0603
L64.5634 -79.1083
L64.6014 -79.1562
L64.6393 -79.2041
L64.6773 -79.252
L64.7152 -79.2999
L64.7532 -79.3478
L64.7912 -79.3957
L64.8291 -79.4437
L64.8671 -79.4916
L64.9051 -79.5395
L64.943 -79.5874
L64.981 -79.6353
L65.0189 -79.6832
L65.0569 -79.7311
L65.0949 -79.779
L65.1328 -79.827
L65.1708 -79.8749
L65.2087 -79.9228
L65.2467 -79.9707
L65.2847 -80.0186
L65.3226 -80.0665
L65.3606 -80.1144
L65.3986 -80.1624
L65.4365 -80.2103
L65.4745 -80.2582
L65.5124 -80.3061
L65.5504 -80.354
L65.5884 -80.4019
L65.6263 -80.4498
L65.6643 -80.4977
L65.7022 -80.5457
L65.7402 -80.5936
L65.7782 -80.6415
L65.8161 -80.6894
L65.8541 -80.7373
L65.8921 -80.7852
L65.93 -80.8331
L65.968 -80.8811
L66.0059 -80.929
L66.0439 -80.9769
L66.0819 -81.0248
L66.1198 -81.0727
L66.1578 -81.1206
L66.1957 -81.1685
L66.2337 -81.2164
L66.2717 -81.2644
L66.3096 -81.3123
L66.3476 -81.3602
L66.3855 -81.4081
L66.4235 -81.456
L66.4615 -81.5039
L66.4994 -81.5518
L66.5374 -81.5998
L66.5754 -81.6477
L66.6133 -81.6956
L66.6513 -81.7435
L66.6892 -81.7914
L66.7272 -81.8393
L66.7652 -81.8872
L66.8031 -81.9351
L66.8411 -81.9831
L66.879 -82.031
L66.917 -82.0789
L66.955 -82.1268
L66.9929 -82.1747
L67.0309 -82.2226
L67.0689 -82.2705
L67.1068 -82.3185
L67.1448 -82.3664
L67.1827 -82.4143
L67.2207 -82.4622
L67.2587 -82.5101
L67.2966 -82.558
L67.3346 -82.6059
L67.3725 -82.6538
L67.4105 -82.7018
L67.4485 -82.7497
L67.4864 -82.7976
L67.5244 -82.8455
L67.5623 -82.8934
L67.6003 -82.9413
L67.6383 -82.9892
L67.6762 -83.0372
L67.7142 -83.0851
L67.7522 -83.133
L67.7901 -83.1809
L67.8281 -83.2288
L67.866 -83.2767
L67.904 -83.3246
L67.942 -83.3725
L67.9799 -83.4205
L68.0179 -83.4684
L68.0558 -83.5163
L68.0938 -83.5642
L68.136 -83.6121
L68.1837 -83.66
L68.2315 -83.7079
L68.2793 -83.7558
L68.327 -83.8038
L68.3748 -83.8517
L68.4226 -83.8996
L68.4703 -83.9475
L68.5181 -83.9954
L68.5659 -84.0433
L68.6136 -84.0912
L68.6614 -84.1392
L68.7092 -84.1871
L68.7569 -84.235
L68.8047 -84.2829
L68.8525 -84.3308
L68.9002 -84.3787
L68.948 -84.4266
L68.9958 -84.4745
L69.0435 -84.5225
L69.0913 -84.5704
L69.1391 -84.6183
L69.1868 -84.6662
L69.2346 -84.7141
L69.2824 -84.762
L69.3301 -84.8099
L69.3779 -84.8579
L69.4257 -84.9058
L69.4734 -84.9537
L69.5212 -85.0016
L69.569 -85.0495
L69.6167 -85.0974
L69.6645 -85.1453
L69.7122 -85.1932
L69.76 -85.2412
L69.8078 -85.2891
L69.8555 -85.337
L69.9033 -85.3849
L69.9511 -85.4328
L69.9988 -85.4807
L70.0466 -85.5286
L70.0944 -85.5766
L70.1421 -85.6245
L70.1899 -85.6724
L70.2377 -85.7203
L70.2854 -85.7682
L70.3332 -85.8161
L70.381 -85.864
L70.4287 -85.9119
L70.4765 -85.9599
L70.5243 -86.0078
L70.572 -86.0557
L70.6198 -86.1036
L70.6676 -86.1515
L70.7153 -86.1994
L70.7631 -86.2473
L70.8109 -86.2953
L70.8586 -86.3432
L70.9064 -86.3911
L70.9542 -86.439
L71.0019 -86.4869
L71.0497 -86.5348
L71.0975 -86.5827
L71.1452 -86.6306
L71.193 -86.6786
L71.2408 -86.7265
L71.2885 -86.7744
L71.3363 -86.8223
L71.3841 -86.8702
L71.4318 -86.9181
L71.4796 -86.966
L71.5274 -87.014
L71.5751 -87.0619
L71.6229 -87.1098
L71.6706 -87.1577
L71.7184 -87.2056
L71.7662 -87.2535
L71.8139 -87.3014
L71.8617 -87.3493
L71.9095 -87.3973
L71.9572 -87.4452
L72.005 -87.4931
L72.0528 -87.541
L72.1005 -87.5889
L72.1483 -87.6368
L72.1961 -87.6847
L72.2438 -87.7327
L72.2916 -87.7806
L72.3394 -87.8285
L72.3871 -87.8764
L72.4349 -87.9243
L72.4827 -87.9722
L72.5304 -88.0201
L72.5782 -88.068
L72.626 -88.116
L72.6737 -88.1639
L72.7215 -88.2118
L72.7693 -88.2597
L72.817 -88.3076
L72.8648 -88.3555
L72.9126 -88.4034
L72.9603 -88.4514
L73.0081 -88.4993
L73.0559 -88.5472
L73.1036 -88.5951
L73.1514 -88.643
L73.1992 -88.6909
L73.2469 -88.7388
L73.2947 -88.7867
L73.3425 -88.8347
L73.3902 -88.8826
L73.438 -88.9305
L73.4858 -88.9784
L73.5335 -89.0263
L73.5813 -89.0742
L73.6291 -89.1221
L73.6768 -89.1701
L73.7246 -89.218
L73.7723 -89.2659
L73.8201 -89.3138
L73.8679 -89.3617
L73.9156 -89.4096
L73.9634 -89.4575
L74.0112 -89.5054
L74.0589 -89.5534
L74.1067 -89.6013
L74.1545 -89.6492
L74.2022 -89.6971
L74.25 -89.745
L74.2978 -89.7929
L74.3455 -89.8408
L74.3933 -89.8887
L74.4411 -89.9367
L74.4888 -89.9846
L74.5366 -90.0325
L74.5844 -90.0804
L74.6321 -90.1283
L74.6799 -90.1762
L74.7277 -90.2241
L74.7754 -90.2721
L74.8232 -90.32
L74.871 -90.3679
L74.9187 -90.4158
L74.9665 -90.4637
L75.0143 -90.5116
L75.062 -90.5595
L75.1098 -90.6074
L75.1576 -90.6554
L75.2053 -90.7033
L75.2531 -90.7512
L75.3009 -90.7991
L75.3486 -90.847
L75.3964 -90.8949
L75.4442 -90.9428
L75.4919 -90.9908
L75.5397 -91.0387
L75.5875 -91.0866
L75.6352 -91.1345
L75.683 -91.1824
L75.7308 -91.2303
L75.7785 -91.2782
L75.8263 -91.3261
L75.874 -91.3741
L75.9218 -91.422
L75.9696 -91.4699
L76.0173 -91.5178
L76.0651 -91.5657
L76.1129 -91.6136
L76.1606 -91.6615
L76.2084 -91.7095
L76.2562 -91.7574
L76.308 -91.8053
L76.3657 -91.8532
L76.4235 -91.9011
L76.4813 -91.949
L76.539 -91.9969
L76.5968 -92.0448
L76.6546 -92.0928
L76.7123 -92.1407
L76.7701 -92.1886
L76.8279 -92.2365
L76.8857 -92.2844
L76.9434 -92.3323
L77.0012 -92.3802
L77.059 -92.4282
L77.1167 -92.4761
L77.1745 -92.524
L77.2323 -92.5719
L77.29 -92.6198
L77.3478 -92.6677
L77.4056 -92.7156
L77.4634 -92.7635
L77.5211 -92.8115
L77.5789 -92.8594
L77.6367 -92.9073
L77.6944 -92.9552
L77.7522 -93.0031
L77.81 -93.051
L77.8677 -93.0989
L77.9255 -93.1469
L77.9833 -93.1948
L78.041 -93.2427
L78.0988 -93.2906
L78.1566 -93.3385
L78.2144 -93.3864
L78.2721 -93.4343
L78.3299 -93.4822
L78.3877 -93.5302
L78.4454 -93.5781
L78.5032 -93.626
L78.561 -93.6739
L78.6187 -93.7218
L78.6765 -93.7697
L78.7343 -93.8176
L78.792 -93.8656
L78.8498 -93.9135
L78.9076 -93.9614
L78.9654 -94.0093
L79.0231 -94.0572
L79.0809 -94.1051
L79.1387 -94.153
L79.1964 -94.2009
L79.2542 -94.2489
L79.312 -94.2968
L79.3697 -94.3447
L79.4275 -94.3926
L79.4853 -94.4405
L79.5431 -94.4884
L79.6008 -94.5363
L79.6586 -94.5843
L79.7164 -94.6322
L79.7741 -94.6801
L79.8319 -94.728
L79.8897 -94.7759
L79.9474 -94.8238
L80.0052 -94.8717
L80.063 -94.9196
L80.1207 -94.9676
L80.1785 -95.0155
L80.2363 -95.0634
L80.2941 -95.1113
L80.3518 -95.1592
L80.4096 -95.2071
L80.4674 -95.255
L80.5251 -95.3029
L80.5829 -95.3509
L80.6407 -95.3988
L80.6984 -95.4467
L80.7562 -95.4946
L80.814 -95.5425
L80.8718 -95.5904
L80.9295 -95.6383
L80.9873 -95.6863
L81.0451 -95.7342
L81.1028 -95.7821
L81.1606 -95.83
L81.2184 -95.8779
L81.2761 -95.9258
L81.3339 -95.9737
L81.3917 -96.0216
L81.4494 -96.0696
L81.5072 -96.1175
L81.565 -96.1654
L81.6228 -96.2133
L81.6805 -96.2612
L81.7383 -96.3091
L81.7961 -96.357
L81.8538 -96.405
L81.9116 -96.4529
L81.9694 -96.5008
L82.0271 -96.5487
L82.0849 -96.5966
L82.1427 -96.6445
L82.2005 -96.6924
L82.2582 -96.7403
L82.316 -96.7883
L82.3738 -96.8362
L82.4315 -96.8841
L82.4893 -96.932
L82.5471 -96.9799
L82.6048 -97.0278
L82.6626 -97.0757
L82.7204 -97.1237
L82.7781 -97.1716
L82.8359 -97.2195
L82.8937 -97.2674
L82.9515 -97.3153
L83.0092 -97.3632
L83.067 -97.4111
L83.1248 -97.459
L83.1825 -97.507
L83.2403 -97.5549
L83.2981 -97.6028
L83.3558 -97.6507
L83.4136 -97.6986
L83.4714 -97.7465
L83.5292 -97.7944
L83.5869 -97.8424
L83.6447 -97.8903
L83.7025 -97.9382
L83.7602 -97.9861
L83.818 -98.034
L83.8758 -98.0819
L83.9335 -98.1298
L83.9913 -98.1777
L84.0491 -98.2257
L84.1068 -98.2736
L84.1646 -98.3215
L84.2224 -98.3694
L84.2802 -98.4173
L84.3379 -98.4652
L84.3957 -98.5131
L84.4624 -98.5611
L84.5307 -98.609
L84.599 -98.6569
L84.6674 -98.7048
L84.7357 -98.7527
L84.804 -98.8006
L84.8723 -98.8485
L84.9406 -98.8964
L85.0089 -98.9444
L85.0772 -98.9923
L85.1456 -99.0402
L85.2139 -99.0881
L85.2822 -99.136
L85.3505 -99.1839
L85.4188 -99.2318
L85.4871 -99.2798
L85.5554 -99.3277
L85.6238 -99.3756
L85.6921 -99.4235
L85.7604 -99.4714
L85.8287 -99.5193
L85.897 -99.5672
L85.9653 -99.6151
L86.0336 -99.6631
L86.102 -99.711
L86.1703 -99.7589
L86.2386 -99.8068
L86.3069 -99.8547
L86.3752 -99.9026
L86.4435 -99.9505
L86.5118 -99.9985
L86.5802 -100.046
L86.6485 -100.094
L86.7168 -100.142
L86.7851 -100.19
L86.8534 -100.238
L86.9217 -100.286
L86.99 -100.334
L87.0584 -100.382
L87.1267 -100.43
L87.195 -100.478
L87.2633 -100.525
L87.3316 -100.573
L87.3999 -100.621
L87.4682 -100.669
L87.5366 -100.717
L87.6049 -100.765
L87.6732 -100.813
L87.7415 -100.861
L87.8098 -100.909
L87.8781 -100.957
L87.9464 -101.005
L88.0148 -101.053
L88.0831 -101.1
L88.1514 -101.148
L88.2197 -101.196
L88.288 -101.244
L88.3563 -101.292
L88.4246 -101.34
L88.493 -101.388
L88.5613 -101.436
L88.6296 -101.484
L88.6979 -101.532
L88.7662 -101.58
L88.8345 -101.628
L88.9028 -101.675
L88.9712 -101.723
L89.0395 -101.771
L89.1078 -101.819
L89.1761 -101.867
L89.2444 -101.915
L89.3127 -101.963
L89.381 -102.011
L89.4494 -102.059
L89.5177 -102.107
L89.586 -102.155
L89.6543 -102.202
L89.7226 -102.25
L89.7909 -102.298
L89.8592 -102.346
L89.9276 -102.394
L89.9959 -102.442
L90.0642 -102.49
L90.1325 -102.538
L90.2008 -102.586
L90.2691 -102.634
L90.3374 -102.682
L90.4058 -102.73
L90.4741 -102.777
L90.5424 -102.825
L90.6107 -102.873
L90.679 -102.921
L90.7473 -102.969
L90.8156 -103.017
L90.884 -103.065
L90.9523 -103.113
L91.0206 -103.161
L91.0889 -103.209
L91.1572 -103.257
L91.2255 -103.304
L91.2938 -103.352
L91.3622 -103.4
L91.4305 -103.448
L91.4988 -103.496
L91.5671 -103.544
L91.6354 -103.592
L91.7037 -103.64
L91.772 -103.688
L91.8404 -103.736
L91.9087 -103.784
L91.977 -103.832
L92.0453 -103.879
L92.1136 -103.927
L92.1819 -103.975
L92.2502 -104.023
L92.3186 -104.071
L92.3869 -104.119
L92.4552 -104.167
L92.5235 -104.215
L92.5962 -104.263
L92.6759 -104.311
L92.7555 -104.359
L92.8352 -104.406
L92.9149 -104.454
L92.9946 -104.502
L93.0742 -104.55
L93.1539 -104.598
L93.2336 -104.646
L93.3133 -104.694
L93.3929 -104.742
L93.4726 -104.79
L93.5523 -104.838
L93.632 -104.886
L93.7117 -104.934
L93.7913 -104.981
L93.871 -105.029
L93.9507 -105.077
L94.0304 -105.125
L94.11 -105.173
L94.1897 -105.221
L94.2694 -105.269
L94.3491 -105.317
L94.4287 -105.365
L94.5084 -105.413
L94.5881 -105.461
L94.6678 -105.508
L94.7474 -105.556
L94.8271 -105.604
L94.9068 -105.652
L94.9865 -105.7
L95.0662 -105.748
L95.1458 -105.796
L95.2255 -105.844
L95.3052 -105.892
L95.3849 -105.94
L95.4645 -105.988
L95.5442 -106.036
L95.6239 -106.083
L95.7036 -106.131
L95.7832 -106.179
L95.8629 -106.227
L95.9426 -106.275
L96.0223 -106.323
L96.102 -106.371
L96.1816 -106.419
L96.2613 -106.467
L96.341 -106.515
L96.4207 -106.563
L96.5003 -106.61
L96.58 -106.658
L96.6597 -106.706
L96.7394 -106.754
L96.819 -106.802
L96.8987 -106.85
L96.9784 -106.898
L97.0581 -106.946
L97.1377 -106.994
L97.2174 -107.042
L97.2971 -107.09
L97.3768 -107.138
L97.4565 -107.185
L97.5361 -107.233
L97.6158 -107.281
L97.6955 -107.329
L97.7752 -107.377
L97.8548 -107.425
L97.9345 -107.473
L98.0142 -107.521
L98.0939 -107.569
L98.1735 -107.617
L98.2532 -107.665
L98.3329 -107.712
L98.4126 -107.76
L98.4922 -107.808
L98.5719 -107.856
L98.6516 -107.904
L98.7313 -107.952
L98.811 -108
L98.8906 -108.048
L98.9703 -108.096
L99.05 -108.144
L99.1297 -108.192
L99.2093 -108.24
L99.289 -108.287
L99.3687 -108.335
L99.4484 -108.383
L99.528 -108.431
L99.6077 -108.479
L99.6874 -108.527
L99.7671 -108.575
L99.8467 -108.623
L99.9264 -108.671
L100.006 -108.719
L100.086 -108.767
L100.165 -108.814
L100.245 -108.862
L100.325 -108.91
L100.404 -108.958
L100.484 -109.006
L100.564 -109.054
L100.644 -109.102
L100.736 -109.15
L100.831 -109.198
L100.926 -109.246
L101.021 -109.294
L101.116 -109.342
L101.211 -109.389
L101.305 -109.437
L101.4 -109.485
L101.495 -109.533
L101.59 -109.581
L101.685 -109.629
L101.78 -109.677
L101.875 -109.725
L101.97 -109.773
L102.065 -109.821
L102.16 -109.869
L102.255 -109.917
L102.35 -109.964
L102.445 -110.012
L102.54 -110.06
L102.635 -110.108
L102.73 -110.156
L102.825 -110.204
L102.92 -110.252
L103.015 -110.3
L103.11 -110.348
L103.205 -110.396
L103.299 -110.444
L103.394 -110.491
L103.489 -110.539
L103.584 -110.587
L103.679 -110.635
L103.774 -110.683
L103.869 -110.731
L103.964 -110.779
L104.059 -110.827
L104.154 -110.875
L104.249 -110.923
L104.344 -110.971
L104.439 -111.019
L104.534 -111.066
L104.629 -111.114
L104.724 -111.162
L104.819 -111.21
L104.914 -111.258
L105.009 -111.306
L105.104 -111.354
L105.199 -111.402
L105.293 -111.45
L105.388 -111.498
L105.483 -111.546
L105.578 -111.593
L105.673 -111.641
L105.768 -111.689
L105.863 -111.737
L105.958 -111.785
L106.053 -111.833
L106.148 -111.881
L106.243 -111.929
L106.338 -111.977
L106.433 -112.025
L106.528 -112.073
L106.623 -112.121
L106.718 -112.168
L106.813 -112.216
L106.908 -112.264
L107.003 -112.312
L107.098 -112.36
L107.193 -112.408
L107.287 -112.456
L107.382 -112.504
L107.477 -112.552
L107.572 -112.6
L107.667 -112.648
L107.762 -112.695
L107.857 -112.743
L107.952 -112.791
L108.047 -112.839
L108.142 -112.887
L108.237 -112.935
L108.332 -112.983
L108.427 -113.031
L108.522 -113.079
L108.617 -113.127
L108.712 -113.175
L108.807 -113.223
L108.904 -113.27
L109.002 -113.318
L109.099 -113.366
L109.196 -113.414
L109.293 -113.462
L109.391 -113.51
L109.488 -113.558
L109.585 -113.606
L109.682 -113.654
L109.78 -113.702
L109.877 -113.75
L109.974 -113.797
L110.072 -113.845
L110.169 -113.893
L110.266 -113.941
L110.363 -113.989
L110.461 -114.037
L110.558 -114.085
L110.655 -114.133
L110.752 -114.181
L110.85 -114.229
L110.947 -114.277
L111.044 -114.325
L111.141 -114.372
L111.239 -114.42
L111.336 -114.468
L111.433 -114.516
L111.53 -114.564
L111.628 -114.612
L111.725 -114.66
L111.822 -114.708
L111.92 -114.756
L112.017 -114.804
L112.114 -114.852
L112.211 -114.899
L112.309 -114.947
L112.406 -114.995
L112.503 -115.043
L112.6 -115.091
L112.698 -115.139
L112.795 -115.187
L112.892 -115.235
L112.989 -115.283
L113.087 -115.331
L113.184 -115.379
L113.281 -115.427
L144.12 -115.427
L144.12 -115.427
L143.982 -115.379
L143.845 -115.331
L143.707 -115.283
L143.57 -115.235
L143.432 -115.187
L143.294 -115.139
L143.157 -115.091
L143.019 -115.043
L142.882 -114.995
L142.744 -114.947
L142.607 -114.899
L142.469 -114.852
L142.331 -114.804
L142.194 -114.756
L142.056 -114.708
L141.919 -114.66
L141.781 -114.612
L141.646 -114.564
L141.52 -114.516
L141.395 -114.468
L141.269 -114.42
L141.143 -114.372
L141.018 -114.325
L140.892 -114.277
L140.766 -114.229
L140.641 -114.181
L140.515 -114.133
L140.389 -114.085
L140.264 -114.037
L140.138 -113.989
L140.012 -113.941
L139.887 -113.893
L139.761 -113.845
L139.635 -113.797
L139.51 -113.75
L139.384 -113.702
L139.258 -113.654
L139.133 -113.606
L139.007 -113.558
L138.881 -113.51
L138.755 -113.462
L138.63 -113.414
L138.504 -113.366
L138.378 -113.318
L138.253 -113.27
L138.127 -113.223
L138.001 -113.175
L137.876 -113.127
L137.75 -113.079
L137.624 -113.031
L137.499 -112.983
L137.373 -112.935
L137.247 -112.887
L137.122 -112.839
L136.996 -112.791
L136.87 -112.743
L136.745 -112.695
L136.619 -112.648
L136.493 -112.6
L136.368 -112.552
L136.242 -112.504
L136.116 -112.456
L135.991 -112.408
L135.865 -112.36
L135.739 -112.312
L135.614 -112.264
L135.488 -112.216
L135.362 -112.168
L135.237 -112.121
L135.111 -112.073
L134.985 -112.025
L134.86 -111.977
L134.734 -111.929
L134.608 -111.881
L134.483 -111.833
L134.357 -111.785
L134.231 -111.737
L134.106 -111.689
L133.98 -111.641
L133.854 -111.593
L133.729 -111.546
L133.603 -111.498
L133.477 -111.45
L133.351 -111.402
L133.224 -111.354
L133.097 -111.306
L132.971 -111.258
L132.844 -111.21
L132.717 -111.162
L132.591 -111.114
L132.464 -111.066
L132.338 -111.019
L132.211 -110.971
L132.084 -110.923
L131.958 -110.875
L131.831 -110.827
L131.704 -110.779
L131.578 -110.731
L131.451 -110.683
L131.325 -110.635
L131.198 -110.587
L131.071 -110.539
L130.945 -110.491
L130.818 -110.444
L130.691 -110.396
L130.565 -110.348
L130.438 -110.3
L130.312 -110.252
L130.185 -110.204
L130.058 -110.156
L129.932 -110.108
L129.805 -110.06
L129.678 -110.012
L129.552 -109.964
L129.425 -109.917
L129.299 -109.869
L129.172 -109.821
L129.045 -109.773
L128.919 -109.725
L128.792 -109.677
L128.666 -109.629
L128.539 -109.581
L128.412 -109.533
L128.286 -109.485
L128.159 -109.437
L128.032 -109.389
L127.906 -109.342
L127.779 -109.294
L127.653 -109.246
L127.526 -109.198
L127.399 -109.15
L127.273 -109.102
L127.146 -109.054
L127.019 -109.006
L126.893 -108.958
L126.766 -108.91
L126.64 -108.862
L126.513 -108.814
L126.386 -108.767
L126.26 -108.719
L126.133 -108.671
L126.006 -108.623
L125.88 -108.575
L125.753 -108.527
L125.627 -108.479
L125.5 -108.431
L125.392 -108.383
L125.285 -108.335
L125.179 -108.287
L125.073 -108.24
L124.967 -108.192
L124.86 -108.144
L124.754 -108.096
L124.648 -108.048
L124.542 -108
L124.436 -107.952
L124.329 -107.904
L124.223 -107.856
L124.117 -107.808
L124.011 -107.76
L123.905 -107.712
L123.798 -107.665
L123.692 -107.617
L123.586 -107.569
L123.48 -107.521
L123.373 -107.473
L123.267 -107.425
L123.161 -107.377
L123.055 -107.329
L122.949 -107.281
L122.842 -107.233
L122.736 -107.185
L122.63 -107.138
L122.524 -107.09
L122.417 -107.042
L122.311 -106.994
L122.205 -106.946
L122.099 -106.898
L121.993 -106.85
L121.886 -106.802
L121.78 -106.754
L121.674 -106.706
L121.568 -106.658
L121.462 -106.61
L121.355 -106.563
L121.249 -106.515
L121.143 -106.467
L121.037 -106.419
L120.93 -106.371
L120.824 -106.323
L120.718 -106.275
L120.612 -106.227
L120.506 -106.179
L120.399 -106.131
L120.293 -106.083
L120.187 -106.036
L120.081 -105.988
L119.975 -105.94
L119.868 -105.892
L119.762 -105.844
L119.656 -105.796
L119.55 -105.748
L119.443 -105.7
L119.337 -105.652
L119.231 -105.604
L119.125 -105.556
L119.019 -105.508
L118.912 -105.461
L118.806 -105.413
L118.7 -105.365
L118.594 -105.317
L118.488 -105.269
L118.381 -105.221
L118.275 -105.173
L118.169 -105.125
L118.063 -105.077
L117.956 -105.029
L117.85 -104.981
L117.744 -104.934
L117.638 -104.886
L117.532 -104.838
L117.425 -104.79
L117.319 -104.742
L117.222 -104.694
L117.125 -104.646
L117.028 -104.598
L116.932 -104.55
L116.835 -104.502
L116.738 -104.454
L116.641 -104.406
L116.544 -104.359
L116.448 -104.311
L116.351 -104.263
L116.254 -104.215
L116.157 -104.167
L116.061 -104.119
L115.964 -104.071
L115.867 -104.023
L115.77 -103.975
L115.673 -103.927
L115.577 -103.879
L115.48 -103.832
L115.383 -103.784
L115.286 -103.736
L115.189 -103.688
L115.093 -103.64
L114.996 -103.592
L114.899 -103.544
L114.802 -103.496
L114.705 -103.448
L114.609 -103.4
L114.512 -103.352
L114.415 -103.304
L114.318 -103.257
L114.221 -103.209
L114.125 -103.161
L114.028 -103.113
L113.931 -103.065
L113.834 -103.017
L113.737 -102.969
L113.641 -102.921
L113.544 -102.873
L113.447 -102.825
L113.35 -102.777
L113.254 -102.73
L113.157 -102.682
L113.06 -102.634
L112.963 -102.586
L112.866 -102.538
L112.77 -102.49
L112.673 -102.442
L112.576 -102.394
L112.479 -102.346
L112.382 -102.298
L112.286 -102.25
L112.189 -102.202
L112.092 -102.155
L111.995 -102.107
L111.898 -102.059
L111.802 -102.011
L111.705 -101.963
L111.608 -101.915
L111.511 -101.867
L111.414 -101.819
L111.318 -101.771
L111.221 -101.723
L111.124 -101.675
L111.027 -101.628
L110.93 -101.58
L110.834 -101.532
L110.737 -101.484
L110.64 -101.436
L110.543 -101.388
L110.447 -101.34
L110.35 -101.292
L110.253 -101.244
L110.156 -101.196
L110.059 -101.148
L109.963 -101.1
L109.866 -101.053
L109.769 -101.005
L109.672 -100.957
L109.575 -100.909
L109.479 -100.861
L109.382 -100.813
L109.285 -100.765
L109.188 -100.717
L109.098 -100.669
L109.01 -100.621
L108.923 -100.573
L108.835 -100.525
L108.748 -100.478
L108.66 -100.43
L108.573 -100.382
L108.485 -100.334
L108.398 -100.286
L108.31 -100.238
L108.223 -100.19
L108.135 -100.142
L108.048 -100.094
L107.96 -100.046
L107.873 -99.9985
L107.785 -99.9505
L107.698 -99.9026
L107.61 -99.8547
L107.523 -99.8068
L107.435 -99.7589
L107.348 -99.711
L107.26 -99.6631
L107.173 -99.6151
L107.085 -99.5672
L106.998 -99.5193
L106.91 -99.4714
L106.823 -99.4235
L106.735 -99.3756
L106.648 -99.3277
L106.56 -99.2798
L106.473 -99.2318
L106.385 -99.1839
L106.298 -99.136
L106.21 -99.0881
L106.123 -99.0402
L106.035 -98.9923
L105.948 -98.9444
L105.86 -98.8964
L105.773 -98.8485
L105.685 -98.8006
L105.598 -98.7527
L105.51 -98.7048
L105.423 -98.6569
L105.335 -98.609
L105.248 -98.5611
L105.16 -98.5131
L105.073 -98.4652
L104.985 -98.4173
L104.898 -98.3694
L104.81 -98.3215
L104.723 -98.2736
L104.635 -98.2257
L104.548 -98.1777
L104.46 -98.1298
L104.373 -98.0819
L104.285 -98.034
L104.198 -97.9861
L104.11 -97.9382
L104.023 -97.8903
L103.935 -97.8424
L103.848 -97.7944
L103.76 -97.7465
L103.673 -97.6986
L103.585 -97.6507
L103.498 -97.6028
L103.41 -97.5549
L103.323 -97.507
L103.235 -97.459
L103.148 -97.4111
L103.06 -97.3632
L102.973 -97.3153
L102.885 -97.2674
L102.798 -97.2195
L102.71 -97.1716
L102.623 -97.1237
L102.535 -97.0757
L102.448 -97.0278
L102.36 -96.9799
L102.273 -96.932
L102.185 -96.8841
L102.098 -96.8362
L102.01 -96.7883
L101.923 -96.7403
L101.835 -96.6924
L101.748 -96.6445
L101.66 -96.5966
L101.573 -96.5487
L101.485 -96.5008
L101.398 -96.4529
L101.31 -96.405
L101.223 -96.357
L101.135 -96.3091
L101.049 -96.2612
L100.973 -96.2133
L100.896 -96.1654
L100.819 -96.1175
L100.743 -96.0696
L100.666 -96.0216
L100.589 -95.9737
L100.512 -95.9258
L100.436 -95.8779
L100.359 -95.83
L100.282 -95.7821
L100.206 -95.7342
L100.129 -95.6863
L100.052 -95.6383
L99.9754 -95.5904
L99.8987 -95.5425
L99.822 -95.4946
L99.7453 -95.4467
L99.6686 -95.3988
L99.5918 -95.3509
L99.5151 -95.3029
L99.4384 -95.255
L99.3617 -95.2071
L99.285 -95.1592
L99.2083 -95.1113
L99.1316 -95.0634
L99.0548 -95.0155
L98.9781 -94.9676
L98.9014 -94.9196
L98.8247 -94.8717
L98.748 -94.8238
L98.6713 -94.7759
L98.5945 -94.728
L98.5178 -94.6801
L98.4411 -94.6322
L98.3644 -94.5843
L98.2877 -94.5363
L98.211 -94.4884
L98.1342 -94.4405
L98.0575 -94.3926
L97.9808 -94.3447
L97.9041 -94.2968
L97.8274 -94.2489
L97.7507 -94.2009
L97.6739 -94.153
L97.5972 -94.1051
L97.5205 -94.0572
L97.4438 -94.0093
L97.3671 -93.9614
L97.2904 -93.9135
L97.2136 -93.8656
L97.1369 -93.8176
L97.0602 -93.7697
L96.9835 -93.7218
L96.9068 -93.6739
L96.8301 -93.626
L96.7533 -93.5781
L96.6766 -93.5302
L96.5999 -93.4822
L96.5232 -93.4343
L96.4465 -93.3864
L96.3698 -93.3385
L96.293 -93.2906
L96.2163 -93.2427
L96.1396 -93.1948
L96.0629 -93.1469
L95.9862 -93.0989
L95.9095 -93.051
L95.8328 -93.0031
L95.756 -92.9552
L95.6793 -92.9073
L95.6026 -92.8594
L95.5259 -92.8115
L95.4492 -92.7635
L95.3725 -92.7156
L95.2957 -92.6677
L95.219 -92.6198
L95.1423 -92.5719
L95.0656 -92.524
L94.9889 -92.4761
L94.9122 -92.4282
L94.8354 -92.3802
L94.7587 -92.3323
L94.682 -92.2844
L94.6053 -92.2365
L94.5286 -92.1886
L94.4519 -92.1407
L94.3751 -92.0928
L94.2984 -92.0448
L94.2217 -91.9969
L94.145 -91.949
L94.0683 -91.9011
L93.9916 -91.8532
L93.9148 -91.8053
L93.8381 -91.7574
L93.7614 -91.7095
L93.6847 -91.6615
L93.608 -91.6136
L93.5313 -91.5657
L93.4545 -91.5178
L93.3778 -91.4699
L93.3011 -91.422
L93.2244 -91.3741
L93.1477 -91.3261
L93.071 -91.2782
L92.9943 -91.2303
L92.9175 -91.1824
L92.8408 -91.1345
L92.7722 -91.0866
L92.7059 -91.0387
L92.6396 -90.9908
L92.5733 -90.9428
L92.507 -90.8949
L92.4407 -90.847
L92.3744 -90.7991
L92.3081 -90.7512
L92.2418 -90.7033
L92.1755 -90.6554
L92.1093 -90.6074
L92.043 -90.5595
L91.9767 -90.5116
L91.9104 -90.4637
L91.8441 -90.4158
L91.7778 -90.3679
L91.7115 -90.32
L91.6452 -90.2721
L91.5789 -90.2241
L91.5126 -90.1762
L91.4463 -90.1283
L91.38 -90.0804
L91.3137 -90.0325
L91.2474 -89.9846
L91.1811 -89.9367
L91.1148 -89.8887
L91.0485 -89.8408
L90.9822 -89.7929
L90.9159 -89.745
L90.8497 -89.6971
L90.7834 -89.6492
L90.7171 -89.6013
L90.6508 -89.5534
L90.5845 -89.5054
L90.5182 -89.4575
L90.4519 -89.4096
L90.3856 -89.3617
L90.3193 -89.3138
L90.253 -89.2659
L90.1867 -89.218
L90.1204 -89.1701
L90.0541 -89.1221
L89.9878 -89.0742
L89.9215 -89.0263
L89.8552 -88.9784
L89.7889 -88.9305
L89.7226 -88.8826
L89.6563 -88.8347
L89.5901 -88.7867
L89.5238 -88.7388
L89.4575 -88.6909
L89.3912 -88.643
L89.3249 -88.5951
L89.2586 -88.5472
L89.1923 -88.4993
L89.126 -88.4514
L89.0597 -88.4034
L88.9934 -88.3555
L88.9271 -88.3076
L88.8608 -88.2597
L88.7945 -88.2118
L88.7282 -88.1639
L88.6619 -88.116
L88.5956 -88.068
L88.5293 -88.0201
L88.463 -87.9722
L88.3967 -87.9243
L88.3305 -87.8764
L88.2642 -87.8285
L88.1979 -87.7806
L88.1316 -87.7327
L88.0653 -87.6847
L87.999 -87.6368
L87.9327 -87.5889
L87.8664 -87.541
L87.8001 -87.4931
L87.7338 -87.4452
L87.6675 -87.3973
L87.6012 -87.3493
L87.5349 -87.3014
L87.4686 -87.2535
L87.4023 -87.2056
L87.336 -87.1577
L87.2697 -87.1098
L87.2034 -87.0619
L87.1371 -87.014
L87.0709 -86.966
L87.0046 -86.9181
L86.9383 -86.8702
L86.872 -86.8223
L86.8057 -86.7744
L86.7394 -86.7265
L86.6731 -86.6786
L86.6068 -86.6306
L86.5405 -86.5827
L86.4742 -86.5348
L86.4079 -86.4869
L86.3416 -86.439
L86.2753 -86.3911
L86.209 -86.3432
L86.1427 -86.2953
L86.0764 -86.2473
L86.0101 -86.1994
L85.9438 -86.1515
L85.8775 -86.1036
L85.8113 -86.0557
L85.745 -86.0078
L85.6787 -85.9599
L85.6124 -85.9119
L85.5461 -85.864
L85.4798 -85.8161
L85.4135 -85.7682
L85.3472 -85.7203
L85.2809 -85.6724
L85.2146 -85.6245
L85.1483 -85.5766
L85.082 -85.5286
L85.0157 -85.4807
L84.9494 -85.4328
L84.8831 -85.3849
L84.8168 -85.337
L84.7505 -85.2891
L84.6842 -85.2412
L84.6215 -85.1932
L84.5646 -85.1453
L84.5078 -85.0974
L84.451 -85.0495
L84.3942 -85.0016
L84.3373 -84.9537
L84.2805 -84.9058
L84.2237 -84.8579
L84.1669 -84.8099
L84.1101 -84.762
L84.0532 -84.7141
L83.9964 -84.6662
L83.9396 -84.6183
L83.8828 -84.5704
L83.8259 -84.5225
L83.7691 -84.4745
L83.7123 -84.4266
L83.6555 -84.3787
L83.5986 -84.3308
L83.5418 -84.2829
L83.485 -84.235
L83.4282 -84.1871
L83.3714 -84.1392
L83.3145 -84.0912
L83.2577 -84.0433
L83.2009 -83.9954
L83.1441 -83.9475
L83.0872 -83.8996
L83.0304 -83.8517
L82.9736 -83.8038
L82.9168 -83.7558
L82.8599 -83.7079
L82.8031 -83.66
L82.7463 -83.6121
L82.6895 -83.5642
L82.6327 -83.5163
L82.5758 -83.4684
L82.519 -83.4205
L82.4622 -83.3725
L82.4054 -83.3246
L82.3485 -83.2767
L82.2917 -83.2288
L82.2349 -83.1809
L82.1781 -83.133
L82.1212 -83.0851
L82.0644 -83.0372
L82.0076 -82.9892
L81.9508 -82.9413
L81.894 -82.8934
L81.8371 -82.8455
L81.7803 -82.7976
L81.7235 -82.7497
L81.6667 -82.7018
L81.6098 -82.6538
L81.553 -82.6059
L81.4962 -82.558
L81.4394 -82.5101
L81.3825 -82.4622
L81.3257 -82.4143
L81.2689 -82.3664
L81.2121 -82.3185
L81.1553 -82.2705
L81.0984 -82.2226
L81.0416 -82.1747
L80.9848 -82.1268
L80.928 -82.0789
L80.8711 -82.031
L80.8143 -81.9831
L80.7575 -81.9351
L80.7007 -81.8872
L80.6438 -81.8393
L80.587 -81.7914
L80.5302 -81.7435
L80.4734 -81.6956
L80.4166 -81.6477
L80.3597 -81.5998
L80.3029 -81.5518
L80.2461 -81.5039
L80.1893 -81.456
L80.1324 -81.4081
L80.0756 -81.3602
L80.0188 -81.3123
L79.962 -81.2644
L79.9051 -81.2164
L79.8483 -81.1685
L79.7915 -81.1206
L79.7347 -81.0727
L79.6779 -81.0248
L79.621 -80.9769
L79.5642 -80.929
L79.5074 -80.8811
L79.4506 -80.8331
L79.3937 -80.7852
L79.3369 -80.7373
L79.2801 -80.6894
L79.2233 -80.6415
L79.1664 -80.5936
L79.1096 -80.5457
L79.0528 -80.4977
L78.996 -80.4498
L78.9392 -80.4019
L78.8823 -80.354
L78.8255 -80.3061
L78.7687 -80.2582
L78.7119 -80.2103
L78.655 -80.1624
L78.5982 -80.1144
L78.5414 -80.0665
L78.4846 -80.0186
L78.4277 -79.9707
L78.3709 -79.9228
L78.3141 -79.8749
L78.2573 -79.827
L78.2005 -79.779
L78.1436 -79.7311
L78.0868 -79.6832
L78.03 -79.6353
L77.9732 -79.5874
L77.9163 -79.5395
L77.8595 -79.4916
L77.8027 -79.4437
L77.7459 -79.3957
L77.689 -79.3478
L77.6322 -79.2999
L77.5754 -79.252
L77.5186 -79.2041
L77.4618 -79.1562
L77.4049 -79.1083
L77.3481 -79.0603
L77.2913 -79.0124
L77.2345 -78.9645
L77.1776 -78.9166
L77.1208 -78.8687
L77.064 -78.8208
L77.0072 -78.7729
L76.9503 -78.725
L76.8935 -78.677
L76.8367 -78.6291
L76.7799 -78.5812
L76.7231 -78.5333
L76.6662 -78.4854
L76.6094 -78.4375
L76.5526 -78.3896
L76.4958 -78.3416
L76.4389 -78.2937
L76.3821 -78.2458
L76.3258 -78.1979
L76.2771 -78.15
L76.2284 -78.1021
L76.1798 -78.0542
L76.1311 -78.0063
L76.0824 -77.9583
L76.0337 -77.9104
L75.985 -77.8625
L75.9364 -77.8146
L75.8877 -77.7667
L75.839 -77.7188
L75.7903 -77.6709
L75.7417 -77.6229
L75.693 -77.575
L75.6443 -77.5271
L75.5956 -77.4792
L75.5469 -77.4313
L75.4983 -77.3834
L75.4496 -77.3355
L75.4009 -77.2876
L75.3522 -77.2396
L75.3036 -77.1917
L75.2549 -77.1438
L75.2062 -77.0959
L75.1575 -77.048
L75.1088 -77.0001
L75.0602 -76.9522
L75.0115 -76.9043
L74.9628 -76.8563
L74.9141 -76.8084
L74.8655 -76.7605
L74.8168 -76.7126
L74.7681 -76.6647
L74.7194 -76.6168
L74.6707 -76.5689
L74.6221 -76.5209
L74.5734 -76.473
L74.5247 -76.4251
L74.476 -76.3772
L74.4274 -76.3293
L74.3787 -76.2814
L74.33 -76.2335
L74.2813 -76.1856
L74.2326 -76.1376
L74.184 -76.0897
L74.1353 -76.0418
L74.0866 -75.9939
L74.0379 -75.946
L73.9893 -75.8981
L73.9406 -75.8502
L73.8919 -75.8022
L73.8432 -75.7543
L73.7945 -75.7064
L73.7459 -75.6585
L73.6972 -75.6106
L73.6485 -75.5627
L73.5998 -75.5148
L73.5512 -75.4669
L73.5025 -75.4189
L73.4538 -75.371
L73.4051 -75.3231
L73.3564 -75.2752
L73.3078 -75.2273
L73.2591 -75.1794
L73.2104 -75.1315
L73.1617 -75.0835
L73.1131 -75.0356
L73.0644 -74.9877
L73.0157 -74.9398
L72.967 -74.8919
L72.9183 -74.844
L72.8697 -74.7961
L72.821 -74.7482
L72.7723 -74.7002
L72.7236 -74.6523
L72.675 -74.6044
L72.6263 -74.5565
L72.5776 -74.5086
L72.5289 -74.4607
L72.4802 -74.4128
L72.4316 -74.3648
L72.3829 -74.3169
L72.3342 -74.269
L72.2855 -74.2211
L72.2369 -74.1732
L72.1882 -74.1253
L72.1395 -74.0774
L72.0908 -74.0295
L72.0421 -73.9815
L71.9935 -73.9336
L71.9448 -73.8857
L71.8961 -73.8378
L71.8474 -73.7899
L71.7988 -73.742
L71.7501 -73.6941
L71.7014 -73.6461
L71.6527 -73.5982
L71.604 -73.5503
L71.5554 -73.5024
L71.5067 -73.4545
L71.458 -73.4066
L71.4093 -73.3587
L71.3607 -73.3108
L71.312 -73.2628
L71.2633 -73.2149
L71.2146 -73.167
L71.1659 -73.1191
L71.1173 -73.0712
L71.0686 -73.0233
L71.0199 -72.9754
L70.9712 -72.9274
L70.9226 -72.8795
L70.8739 -72.8316
L70.8252 -72.7837
L70.7765 -72.7358
L70.7278 -72.6879
L70.6792 -72.64
L70.6305 -72.5921
L70.5818 -72.5441
L70.5331 -72.4962
L70.4845 -72.4483
L70.4358 -72.4004
L70.3871 -72.3525
L70.3384 -72.3046
L70.2897 -72.2567
L70.2411 -72.2087
L70.1924 -72.1608
L70.1437 -72.1129
L70.095 -72.065
L70.0464 -72.0171
L69.9977 -71.9692
L69.949 -71.9213
L69.9003 -71.8734
L69.8516 -71.8254
L69.803 -71.7775
L69.7543 -71.7296
L69.7056 -71.6817
L69.6569 -71.6338
L69.6083 -71.5859
L69.5596 -71.538
L69.5109 -71.49
L69.4622 -71.4421
L69.4135 -71.3942
L69.3649 -71.3463
L69.3162 -71.2984
L69.2675 -71.2505
L69.2188 -71.2026
L69.1702 -71.1547
L69.1215 -71.1067
L69.0728 -71.0588
L69.0241 -71.0109
L68.9754 -70.963
L68.9268 -70.9151
L68.8781 -70.8672
L68.8294 -70.8193
L68.7807 -70.7714
L68.7321 -70.7234
L68.6834 -70.6755
L68.6347 -70.6276
L68.586 -70.5797
L68.5373 -70.5318
L68.4887 -70.4839
L68.44 -70.436
L68.3913 -70.388
L68.3426 -70.3401
L68.294 -70.2922
L68.2453 -70.2443
L68.2042 -70.1964
L68.1648 -70.1485
L68.1255 -70.1006
L68.0861 -70.0527
L68.0467 -70.0047
L68.0074 -69.9568
L67.968 -69.9089
L67.9287 -69.861
L67.8893 -69.8131
L67.8499 -69.7652
L67.8106 -69.7173
L67.7712 -69.6693
L67.7319 -69.6214
L67.6925 -69.5735
L67.6531 -69.5256
L67.6138 -69.4777
L67.5744 -69.4298
L67.5351 -69.3819
L67.4957 -69.334
L67.4563 -69.286
L67.417 -69.2381
L67.3776 -69.1902
L67.3383 -69.1423
L67.2989 -69.0944
L67.2595 -69.0465
L67.2202 -68.9986
L67.1808 -68.9506
L67.1414 -68.9027
L67.1021 -68.8548
L67.0627 -68.8069
L67.0234 -68.759
L66.984 -68.7111
L66.9446 -68.6632
L66.9053 -68.6153
L66.8659 -68.5673
L66.8266 -68.5194
L66.7872 -68.4715
L66.7478 -68.4236
L66.7085 -68.3757
L66.6691 -68.3278
L66.6298 -68.2799
L66.5904 -68.2319
L66.551 -68.184
L66.5117 -68.1361
L66.4723 -68.0882
L66.433 -68.0403
L66.3936 -67.9924
L66.3542 -67.9445
L66.3149 -67.8966
L66.2755 -67.8486
L66.2362 -67.8007
L66.1968 -67.7528
L66.1574 -67.7049
L66.1181 -67.657
L66.0787 -67.6091
L66.0394 -67.5612
L66 -67.5132
z
" id="C0_0_b12591eccf"/>
    </defs>
    <g clip-path="url(#p82ecb0581d)">
     <use style="fill:url(#h3b8c4a4298);fill-opacity:0.5;stroke:#008000;stroke-opacity:0.5;" x="0.0" xlink:href="#C0_0_b12591eccf" y="172.8"/>
    </g>
   </g>
   <g id="line2d_1">
    <path clip-path="url(#p82ecb0581d)" d="
M43.9097 144.597
L51.8083 126.446
L60.0458 112.535
L68.2362 102.565
L76.3288 94.5991
L84.6426 87.589
L92.8237 81.6762
L101.061 76.5316
L109.159 72.0974
L117.315 68.0598
L125.486 64.3741
L133.499 61.3421
L141.673 58.2257
L149.727 55.4209
L157.779 52.6903
L165.867 50.3714
L174.18 47.8439
L182.419 45.6022" style="fill:none;stroke:#0000ff;stroke-linecap:square;stroke-width:2;"/>
    <defs>
     <path d="
M0 3
C0.795609 3 1.55874 2.6839 2.12132 2.12132
C2.6839 1.55874 3 0.795609 3 0
C3 -0.795609 2.6839 -1.55874 2.12132 -2.12132
C1.55874 -2.6839 0.795609 -3 0 -3
C-0.795609 -3 -1.55874 -2.6839 -2.12132 -2.12132
C-2.6839 -1.55874 -3 -0.795609 -3 0
C-3 0.795609 -2.6839 1.55874 -2.12132 2.12132
C-1.55874 2.6839 -0.795609 3 0 3
z
" id="mdb00ba95ec" style="stroke:#000000;stroke-width:0.5;"/>
    </defs>
    <g clip-path="url(#p82ecb0581d)">
     <use style="fill:#0000ff;stroke:#000000;stroke-width:0.5;" x="43.9097472" xlink:href="#mdb00ba95ec" y="144.5972544"/>
     <use style="fill:#0000ff;stroke:#000000;stroke-width:0.5;" x="51.8083488" xlink:href="#mdb00ba95ec" y="126.44625024"/>
     <use style="fill:#0000ff;stroke:#000000;stroke-width:0.5;" x="60.045768" xlink:href="#mdb00ba95ec" y="112.53483648"/>
     <use style="fill:#0000ff;stroke:#000000;stroke-width:0.5;" x="68.2361664" xlink:href="#mdb00ba95ec" y="102.56466816"/>
     <use style="fill:#0000ff;stroke:#000000;stroke-width:0.5;" x="76.3288032" xlink:href="#mdb00ba95ec" y="94.5991296"/>
     <use style="fill:#0000ff;stroke:#000000;stroke-width:0.5;" x="84.6425568" xlink:href="#mdb00ba95ec" y="87.58896768"/>
     <use style="fill:#0000ff;stroke:#000000;stroke-width:0.5;" x="92.8237296" xlink:href="#mdb00ba95ec" y="81.67617792"/>
     <use style="fill:#0000ff;stroke:#000000;stroke-width:0.5;" x="101.061" xlink:href="#mdb00ba95ec" y="76.53157632"/>
     <use style="fill:#0000ff;stroke:#000000;stroke-width:0.5;" x="109.1588448" xlink:href="#mdb00ba95ec" y="72.09739008"/>
     <use style="fill:#0000ff;stroke:#000000;stroke-width:0.5;" x="117.3154656" xlink:href="#mdb00ba95ec" y="68.05979136"/>
     <use style="fill:#0000ff;stroke:#000000;stroke-width:0.5;" x="125.4860736" xlink:href="#mdb00ba95ec" y="64.37407104"/>
     <use style="fill:#0000ff;stroke:#000000;stroke-width:0.5;" x="133.498656" xlink:href="#mdb00ba95ec" y="61.34213376"/>
     <use style="fill:#0000ff;stroke:#000000;stroke-width:0.5;" x="141.6726864" xlink:href="#mdb00ba95ec" y="58.2257088"/>
     <use style="fill:#0000ff;stroke:#000000;stroke-width:0.5;" x="149.7270816" xlink:href="#mdb00ba95ec" y="55.42089984"/>
     <use style="fill:#0000ff;stroke:#000000;stroke-width:0.5;" x="157.7786496" xlink:href="#mdb00ba95ec" y="52.69031424"/>
     <use style="fill:#0000ff;stroke:#000000;stroke-width:0.5;" x="165.8665248" xlink:href="#mdb00ba95ec" y="50.3713728"/>
     <use style="fill:#0000ff;stroke:#000000;stroke-width:0.5;" x="174.1802784" xlink:href="#mdb00ba95ec" y="47.84391936"/>
     <use style="fill:#0000ff;stroke:#000000;stroke-width:0.5;" x="182.4190368" xlink:href="#mdb00ba95ec" y="45.602208"/>
    </g>
   </g>
   <g id="line2d_2">
    <path clip-path="url(#p82ecb0581d)" d="
M43.8664 132.654
L51.8924 113.15
L60.0221 99.4236
L68.1155 89.2084
L76.2848 81.014
L84.4045 74.2796
L92.5656 68.5557
L100.658 63.6896
L108.792 59.5848
L116.864 55.6087
L124.841 52.2862
L132.978 49.0398
L141.035 46.2268
L149.195 43.4896
L157.176 40.9755
L165.47 38.5449
L173.36 36.3335
L181.534 34.274" style="fill:none;stroke:#008000;stroke-linecap:square;stroke-width:2;"/>
    <defs>
     <path d="
M0 3
C0.795609 3 1.55874 2.6839 2.12132 2.12132
C2.6839 1.55874 3 0.795609 3 0
C3 -0.795609 2.6839 -1.55874 2.12132 -2.12132
C1.55874 -2.6839 0.795609 -3 0 -3
C-0.795609 -3 -1.55874 -2.6839 -2.12132 -2.12132
C-2.6839 -1.55874 -3 -0.795609 -3 0
C-3 0.795609 -2.6839 1.55874 -2.12132 2.12132
C-1.55874 2.6839 -0.795609 3 0 3
z
" id="m25f47eefb8" style="stroke:#000000;stroke-width:0.5;"/>
    </defs>
    <g clip-path="url(#p82ecb0581d)">
     <use style="fill:#008000;stroke:#000000;stroke-width:0.5;" x="43.8664464" xlink:href="#m25f47eefb8" y="132.65433216"/>
     <use style="fill:#008000;stroke:#000000;stroke-width:0.5;" x="51.8924208" xlink:href="#m25f47eefb8" y="113.1496128"/>
     <use style="fill:#008000;stroke:#000000;stroke-width:0.5;" x="60.0221088" xlink:href="#m25f47eefb8" y="99.42357888"/>
     <use style="fill:#008000;stroke:#000000;stroke-width:0.5;" x="68.1154896" xlink:href="#m25f47eefb8" y="89.20843776"/>
     <use style="fill:#008000;stroke:#000000;stroke-width:0.5;" x="76.2847584" xlink:href="#m25f47eefb8" y="81.01396224"/>
     <use style="fill:#008000;stroke:#000000;stroke-width:0.5;" x="84.4044768" xlink:href="#m25f47eefb8" y="74.2795776"/>
     <use style="fill:#008000;stroke:#000000;stroke-width:0.5;" x="92.5655616" xlink:href="#m25f47eefb8" y="68.55568128"/>
     <use style="fill:#008000;stroke:#000000;stroke-width:0.5;" x="100.6576032" xlink:href="#m25f47eefb8" y="63.68955264"/>
     <use style="fill:#008000;stroke:#000000;stroke-width:0.5;" x="108.7922016" xlink:href="#m25f47eefb8" y="59.58481536"/>
     <use style="fill:#008000;stroke:#000000;stroke-width:0.5;" x="116.8637088" xlink:href="#m25f47eefb8" y="55.6087104"/>
     <use style="fill:#008000;stroke:#000000;stroke-width:0.5;" x="124.8411744" xlink:href="#m25f47eefb8" y="52.28621568"/>
     <use style="fill:#008000;stroke:#000000;stroke-width:0.5;" x="132.9781536" xlink:href="#m25f47eefb8" y="49.039776"/>
     <use style="fill:#008000;stroke:#000000;stroke-width:0.5;" x="141.0347808" xlink:href="#m25f47eefb8" y="46.22679936"/>
     <use style="fill:#008000;stroke:#000000;stroke-width:0.5;" x="149.1945264" xlink:href="#m25f47eefb8" y="43.48960128"/>
     <use style="fill:#008000;stroke:#000000;stroke-width:0.5;" x="157.1763072" xlink:href="#m25f47eefb8" y="40.97553408"/>
     <use style="fill:#008000;stroke:#000000;stroke-width:0.5;" x="165.4701216" xlink:href="#m25f47eefb8" y="38.54489472"/>
     <use style="fill:#008000;stroke:#000000;stroke-width:0.5;" x="173.3597952" xlink:href="#m25f47eefb8" y="36.33351552"/>
     <use style="fill:#008000;stroke:#000000;stroke-width:0.5;" x="181.533528" xlink:href="#m25f47eefb8" y="34.27402752"/>
    </g>
   </g>
   <g id="matplotlib.axis_1">
    <g id="xtick_1">
     <g id="line2d_3">
      <defs>
       <path d="
M0 0
L0 -4" id="mc7db9fdffb" style="stroke:#000000;stroke-width:0.5;"/>
      </defs>
      <g>
       <use style="stroke:#000000;stroke-width:0.5;" x="28.8" xlink:href="#mc7db9fdffb" y="155.52"/>
      </g>
     </g>
     <g id="line2d_4">
      <defs>
       <path d="
M0 0
L0 4" id="m5a7d422ac3" style="stroke:#000000;stroke-width:0.5;"/>
      </defs>
      <g>
       <use style="stroke:#000000;stroke-width:0.5;" x="28.8" xlink:href="#m5a7d422ac3" y="17.28"/>
      </g>
     </g>
     <g id="text_1">
      <!-- 0 -->
      <defs>
       <path d="
M31.7812 66.4062
Q24.1719 66.4062 20.3281 58.9062
Q16.5 51.4219 16.5 36.375
Q16.5 21.3906 20.3281 13.8906
Q24.1719 6.39062 31.7812 6.39062
Q39.4531 6.39062 43.2812 13.8906
Q47.125 21.3906 47.125 36.375
Q47.125 51.4219 43.2812 58.9062
Q39.4531 66.4062 31.7812 66.4062
M31.7812 74.2188
Q44.0469 74.2188 50.5156 64.5156
Q56.9844 54.8281 56.9844 36.375
Q56.9844 17.9688 50.5156 8.26562
Q44.0469 -1.42188 31.7812 -1.42188
Q19.5312 -1.42188 13.0625 8.26562
Q6.59375 17.9688 6.59375 36.375
Q6.59375 54.8281 13.0625 64.5156
Q19.5312 74.2188 31.7812 74.2188" id="BitstreamVeraSans-Roman-30"/>
      </defs>
      <g transform="translate(26.784375 165.59875)scale(0.08 -0.08)">
       <use xlink:href="#BitstreamVeraSans-Roman-30"/>
      </g>
     </g>
    </g>
    <g id="xtick_2">
     <g id="line2d_5">
      <g>
       <use style="stroke:#000000;stroke-width:0.5;" x="58.56" xlink:href="#mc7db9fdffb" y="155.52"/>
      </g>
     </g>
     <g id="line2d_6">
      <g>
       <use style="stroke:#000000;stroke-width:0.5;" x="58.56" xlink:href="#m5a7d422ac3" y="17.28"/>
      </g>
     </g>
     <g id="text_2">
      <!-- 200 -->
      <defs>
       <path d="
M19.1875 8.29688
L53.6094 8.29688
L53.6094 0
L7.32812 0
L7.32812 8.29688
Q12.9375 14.1094 22.625 23.8906
Q32.3281 33.6875 34.8125 36.5312
Q39.5469 41.8438 41.4219 45.5312
Q43.3125 49.2188 43.3125 52.7812
Q43.3125 58.5938 39.2344 62.25
Q35.1562 65.9219 28.6094 65.9219
Q23.9688 65.9219 18.8125 64.3125
Q13.6719 62.7031 7.8125 59.4219
L7.8125 69.3906
Q13.7656 71.7812 18.9375 73
Q24.125 74.2188 28.4219 74.2188
Q39.75 74.2188 46.4844 68.5469
Q53.2188 62.8906 53.2188 53.4219
Q53.2188 48.9219 51.5312 44.8906
Q49.8594 40.875 45.4062 35.4062
Q44.1875 33.9844 37.6406 27.2188
Q31.1094 20.4531 19.1875 8.29688" id="BitstreamVeraSans-Roman-32"/>
      </defs>
      <g transform="translate(51.48375 165.59875)scale(0.08 -0.08)">
       <use xlink:href="#BitstreamVeraSans-Roman-32"/>
       <use x="63.623046875" xlink:href="#BitstreamVeraSans-Roman-30"/>
       <use x="127.24609375" xlink:href="#BitstreamVeraSans-Roman-30"/>
      </g>
     </g>
    </g>
    <g id="xtick_3">
     <g id="line2d_7">
      <g>
       <use style="stroke:#000000;stroke-width:0.5;" x="88.32" xlink:href="#mc7db9fdffb" y="155.52"/>
      </g>
     </g>
     <g id="line2d_8">
      <g>
       <use style="stroke:#000000;stroke-width:0.5;" x="88.32" xlink:href="#m5a7d422ac3" y="17.28"/>
      </g>
     </g>
     <g id="text_3">
      <!-- 400 -->
      <defs>
       <path d="
M37.7969 64.3125
L12.8906 25.3906
L37.7969 25.3906
z

M35.2031 72.9062
L47.6094 72.9062
L47.6094 25.3906
L58.0156 25.3906
L58.0156 17.1875
L47.6094 17.1875
L47.6094 0
L37.7969 0
L37.7969 17.1875
L4.89062 17.1875
L4.89062 26.7031
z
" id="BitstreamVeraSans-Roman-34"/>
      </defs>
      <g transform="translate(81.14625 165.59875)scale(0.08 -0.08)">
       <use xlink:href="#BitstreamVeraSans-Roman-34"/>
       <use x="63.623046875" xlink:href="#BitstreamVeraSans-Roman-30"/>
       <use x="127.24609375" xlink:href="#BitstreamVeraSans-Roman-30"/>
      </g>
     </g>
    </g>
    <g id="xtick_4">
     <g id="line2d_9">
      <g>
       <use style="stroke:#000000;stroke-width:0.5;" x="118.08" xlink:href="#mc7db9fdffb" y="155.52"/>
      </g>
     </g>
     <g id="line2d_10">
      <g>
       <use style="stroke:#000000;stroke-width:0.5;" x="118.08" xlink:href="#m5a7d422ac3" y="17.28"/>
      </g>
     </g>
     <g id="text_4">
      <!-- 600 -->
      <defs>
       <path d="
M33.0156 40.375
Q26.375 40.375 22.4844 35.8281
Q18.6094 31.2969 18.6094 23.3906
Q18.6094 15.5312 22.4844 10.9531
Q26.375 6.39062 33.0156 6.39062
Q39.6562 6.39062 43.5312 10.9531
Q47.4062 15.5312 47.4062 23.3906
Q47.4062 31.2969 43.5312 35.8281
Q39.6562 40.375 33.0156 40.375
M52.5938 71.2969
L52.5938 62.3125
Q48.875 64.0625 45.0938 64.9844
Q41.3125 65.9219 37.5938 65.9219
Q27.8281 65.9219 22.6719 59.3281
Q17.5312 52.7344 16.7969 39.4062
Q19.6719 43.6562 24.0156 45.9219
Q28.375 48.1875 33.5938 48.1875
Q44.5781 48.1875 50.9531 41.5156
Q57.3281 34.8594 57.3281 23.3906
Q57.3281 12.1562 50.6875 5.35938
Q44.0469 -1.42188 33.0156 -1.42188
Q20.3594 -1.42188 13.6719 8.26562
Q6.98438 17.9688 6.98438 36.375
Q6.98438 53.6562 15.1875 63.9375
Q23.3906 74.2188 37.2031 74.2188
Q40.9219 74.2188 44.7031 73.4844
Q48.4844 72.75 52.5938 71.2969" id="BitstreamVeraSans-Roman-36"/>
      </defs>
      <g transform="translate(110.99 165.59875)scale(0.08 -0.08)">
       <use xlink:href="#BitstreamVeraSans-Roman-36"/>
       <use x="63.623046875" xlink:href="#BitstreamVeraSans-Roman-30"/>
       <use x="127.24609375" xlink:href="#BitstreamVeraSans-Roman-30"/>
      </g>
     </g>
    </g>
    <g id="xtick_5">
     <g id="line2d_11">
      <g>
       <use style="stroke:#000000;stroke-width:0.5;" x="147.84" xlink:href="#mc7db9fdffb" y="155.52"/>
      </g>
     </g>
     <g id="line2d_12">
      <g>
       <use style="stroke:#000000;stroke-width:0.5;" x="147.84" xlink:href="#m5a7d422ac3" y="17.28"/>
      </g>
     </g>
     <g id="text_5">
      <!-- 800 -->
      <defs>
       <path d="
M31.7812 34.625
Q24.75 34.625 20.7188 30.8594
Q16.7031 27.0938 16.7031 20.5156
Q16.7031 13.9219 20.7188 10.1562
Q24.75 6.39062 31.7812 6.39062
Q38.8125 6.39062 42.8594 10.1719
Q46.9219 13.9688 46.9219 20.5156
Q46.9219 27.0938 42.8906 30.8594
Q38.875 34.625 31.7812 34.625
M21.9219 38.8125
Q15.5781 40.375 12.0312 44.7188
Q8.5 49.0781 8.5 55.3281
Q8.5 64.0625 14.7188 69.1406
Q20.9531 74.2188 31.7812 74.2188
Q42.6719 74.2188 48.875 69.1406
Q55.0781 64.0625 55.0781 55.3281
Q55.0781 49.0781 51.5312 44.7188
Q48 40.375 41.7031 38.8125
Q48.8281 37.1562 52.7969 32.3125
Q56.7812 27.4844 56.7812 20.5156
Q56.7812 9.90625 50.3125 4.23438
Q43.8438 -1.42188 31.7812 -1.42188
Q19.7344 -1.42188 13.25 4.23438
Q6.78125 9.90625 6.78125 20.5156
Q6.78125 27.4844 10.7812 32.3125
Q14.7969 37.1562 21.9219 38.8125
M18.3125 54.3906
Q18.3125 48.7344 21.8438 45.5625
Q25.3906 42.3906 31.7812 42.3906
Q38.1406 42.3906 41.7188 45.5625
Q45.3125 48.7344 45.3125 54.3906
Q45.3125 60.0625 41.7188 63.2344
Q38.1406 66.4062 31.7812 66.4062
Q25.3906 66.4062 21.8438 63.2344
Q18.3125 60.0625 18.3125 54.3906" id="BitstreamVeraSans-Roman-38"/>
      </defs>
      <g transform="translate(140.741875 165.59875)scale(0.08 -0.08)">
       <use xlink:href="#BitstreamVeraSans-Roman-38"/>
       <use x="63.623046875" xlink:href="#BitstreamVeraSans-Roman-30"/>
       <use x="127.24609375" xlink:href="#BitstreamVeraSans-Roman-30"/>
      </g>
     </g>
    </g>
    <g id="xtick_6">
     <g id="line2d_13">
      <g>
       <use style="stroke:#000000;stroke-width:0.5;" x="177.6" xlink:href="#mc7db9fdffb" y="155.52"/>
      </g>
     </g>
     <g id="line2d_14">
      <g>
       <use style="stroke:#000000;stroke-width:0.5;" x="177.6" xlink:href="#m5a7d422ac3" y="17.28"/>
      </g>
     </g>
     <g id="text_6">
      <!-- 1000 -->
      <defs>
       <path d="
M12.4062 8.29688
L28.5156 8.29688
L28.5156 63.9219
L10.9844 60.4062
L10.9844 69.3906
L28.4219 72.9062
L38.2812 72.9062
L38.2812 8.29688
L54.3906 8.29688
L54.3906 0
L12.4062 0
z
" id="BitstreamVeraSans-Roman-31"/>
      </defs>
      <g transform="translate(168.125 165.59875)scale(0.08 -0.08)">
       <use xlink:href="#BitstreamVeraSans-Roman-31"/>
       <use x="63.623046875" xlink:href="#BitstreamVeraSans-Roman-30"/>
       <use x="127.24609375" xlink:href="#BitstreamVeraSans-Roman-30"/>
       <use x="190.869140625" xlink:href="#BitstreamVeraSans-Roman-30"/>
      </g>
     </g>
    </g>
    <g id="xtick_7">
     <g id="line2d_15">
      <g>
       <use style="stroke:#000000;stroke-width:0.5;" x="207.36" xlink:href="#mc7db9fdffb" y="155.52"/>
      </g>
     </g>
     <g id="line2d_16">
      <g>
       <use style="stroke:#000000;stroke-width:0.5;" x="207.36" xlink:href="#m5a7d422ac3" y="17.28"/>
      </g>
     </g>
     <g id="text_7">
      <!-- 1200 -->
      <g transform="translate(197.885 165.59875)scale(0.08 -0.08)">
       <use xlink:href="#BitstreamVeraSans-Roman-31"/>
       <use x="63.623046875" xlink:href="#BitstreamVeraSans-Roman-32"/>
       <use x="127.24609375" xlink:href="#BitstreamVeraSans-Roman-30"/>
       <use x="190.869140625" xlink:href="#BitstreamVeraSans-Roman-30"/>
      </g>
     </g>
    </g>
    <g id="text_8">
     <!-- kbps -->
     <defs>
      <path d="
M18.1094 8.20312
L18.1094 -20.7969
L9.07812 -20.7969
L9.07812 54.6875
L18.1094 54.6875
L18.1094 46.3906
Q20.9531 51.2656 25.2656 53.625
Q29.5938 56 35.5938 56
Q45.5625 56 51.7812 48.0938
Q58.0156 40.1875 58.0156 27.2969
Q58.0156 14.4062 51.7812 6.48438
Q45.5625 -1.42188 35.5938 -1.42188
Q29.5938 -1.42188 25.2656 0.953125
Q20.9531 3.32812 18.1094 8.20312
M48.6875 27.2969
Q48.6875 37.2031 44.6094 42.8438
Q40.5312 48.4844 33.4062 48.4844
Q26.2656 48.4844 22.1875 42.8438
Q18.1094 37.2031 18.1094 27.2969
Q18.1094 17.3906 22.1875 11.75
Q26.2656 6.10938 33.4062 6.10938
Q40.5312 6.10938 44.6094 11.75
Q48.6875 17.3906 48.6875 27.2969" id="BitstreamVeraSans-Roman-70"/>
      <path d="
M48.6875 27.2969
Q48.6875 37.2031 44.6094 42.8438
Q40.5312 48.4844 33.4062 48.4844
Q26.2656 48.4844 22.1875 42.8438
Q18.1094 37.2031 18.1094 27.2969
Q18.1094 17.3906 22.1875 11.75
Q26.2656 6.10938 33.4062 6.10938
Q40.5312 6.10938 44.6094 11.75
Q48.6875 17.3906 48.6875 27.2969
M18.1094 46.3906
Q20.9531 51.2656 25.2656 53.625
Q29.5938 56 35.5938 56
Q45.5625 56 51.7812 48.0938
Q58.0156 40.1875 58.0156 27.2969
Q58.0156 14.4062 51.7812 6.48438
Q45.5625 -1.42188 35.5938 -1.42188
Q29.5938 -1.42188 25.2656 0.953125
Q20.9531 3.32812 18.1094 8.20312
L18.1094 0
L9.07812 0
L9.07812 75.9844
L18.1094 75.9844
z
" id="BitstreamVeraSans-Roman-62"/>
      <path d="
M9.07812 75.9844
L18.1094 75.9844
L18.1094 31.1094
L44.9219 54.6875
L56.3906 54.6875
L27.3906 29.1094
L57.625 0
L45.9062 0
L18.1094 26.7031
L18.1094 0
L9.07812 0
z
" id="BitstreamVeraSans-Roman-6b"/>
      <path d="
M44.2812 53.0781
L44.2812 44.5781
Q40.4844 46.5312 36.375 47.5
Q32.2812 48.4844 27.875 48.4844
Q21.1875 48.4844 17.8438 46.4375
Q14.5 44.3906 14.5 40.2812
Q14.5 37.1562 16.8906 35.375
Q19.2812 33.5938 26.5156 31.9844
L29.5938 31.2969
Q39.1562 29.25 43.1875 25.5156
Q47.2188 21.7812 47.2188 15.0938
Q47.2188 7.46875 41.1875 3.01562
Q35.1562 -1.42188 24.6094 -1.42188
Q20.2188 -1.42188 15.4531 -0.5625
Q10.6875 0.296875 5.42188 2
L5.42188 11.2812
Q10.4062 8.6875 15.2344 7.39062
Q20.0625 6.10938 24.8125 6.10938
Q31.1562 6.10938 34.5625 8.28125
Q37.9844 10.4531 37.9844 14.4062
Q37.9844 18.0625 35.5156 20.0156
Q33.0625 21.9688 24.7031 23.7812
L21.5781 24.5156
Q13.2344 26.2656 9.51562 29.9062
Q5.8125 33.5469 5.8125 39.8906
Q5.8125 47.6094 11.2812 51.7969
Q16.75 56 26.8125 56
Q31.7812 56 36.1719 55.2656
Q40.5781 54.5469 44.2812 53.0781" id="BitstreamVeraSans-Roman-73"/>
     </defs>
     <g transform="translate(109.159375 178.34125)scale(0.08 -0.08)">
      <use xlink:href="#BitstreamVeraSans-Roman-6b"/>
      <use x="57.91015625" xlink:href="#BitstreamVeraSans-Roman-62"/>
      <use x="121.38671875" xlink:href="#BitstreamVeraSans-Roman-70"/>
      <use x="184.86328125" xlink:href="#BitstreamVeraSans-Roman-73"/>
     </g>
    </g>
   </g>
   <g id="matplotlib.axis_2">
    <g id="ytick_1">
     <g id="line2d_17">
      <defs>
       <path d="
M0 0
L4 0" id="md7965d1ba0" style="stroke:#000000;stroke-width:0.5;"/>
      </defs>
      <g>
       <use style="stroke:#000000;stroke-width:0.5;" x="28.8" xlink:href="#md7965d1ba0" y="155.52"/>
      </g>
     </g>
     <g id="line2d_18">
      <defs>
       <path d="
M0 0
L-4 0" id="md9a1c1a7cd" style="stroke:#000000;stroke-width:0.5;"/>
      </defs>
      <g>
       <use style="stroke:#000000;stroke-width:0.5;" x="207.36" xlink:href="#md9a1c1a7cd" y="155.52"/>
      </g>
     </g>
     <g id="text_9">
      <!-- 34 -->
      <defs>
       <path d="
M40.5781 39.3125
Q47.6562 37.7969 51.625 33
Q55.6094 28.2188 55.6094 21.1875
Q55.6094 10.4062 48.1875 4.48438
Q40.7656 -1.42188 27.0938 -1.42188
Q22.5156 -1.42188 17.6562 -0.515625
Q12.7969 0.390625 7.625 2.20312
L7.625 11.7188
Q11.7188 9.32812 16.5938 8.10938
Q21.4844 6.89062 26.8125 6.89062
Q36.0781 6.89062 40.9375 10.5469
Q45.7969 14.2031 45.7969 21.1875
Q45.7969 27.6406 41.2812 31.2656
Q36.7656 34.9062 28.7188 34.9062
L20.2188 34.9062
L20.2188 43.0156
L29.1094 43.0156
Q36.375 43.0156 40.2344 45.9219
Q44.0938 48.8281 44.0938 54.2969
Q44.0938 59.9062 40.1094 62.9062
Q36.1406 65.9219 28.7188 65.9219
Q24.6562 65.9219 20.0156 65.0312
Q15.375 64.1562 9.8125 62.3125
L9.8125 71.0938
Q15.4375 72.6562 20.3438 73.4375
Q25.25 74.2188 29.5938 74.2188
Q40.8281 74.2188 47.3594 69.1094
Q53.9062 64.0156 53.9062 55.3281
Q53.9062 49.2656 50.4375 45.0938
Q46.9688 40.9219 40.5781 39.3125" id="BitstreamVeraSans-Roman-33"/>
      </defs>
      <g transform="translate(15.67875 157.7275)scale(0.08 -0.08)">
       <use xlink:href="#BitstreamVeraSans-Roman-33"/>
       <use x="63.623046875" xlink:href="#BitstreamVeraSans-Roman-34"/>
      </g>
     </g>
    </g>
    <g id="ytick_2">
     <g id="line2d_19">
      <g>
       <use style="stroke:#000000;stroke-width:0.5;" x="28.8" xlink:href="#md7965d1ba0" y="132.48"/>
      </g>
     </g>
     <g id="line2d_20">
      <g>
       <use style="stroke:#000000;stroke-width:0.5;" x="207.36" xlink:href="#md9a1c1a7cd" y="132.48"/>
      </g>
     </g>
     <g id="text_10">
      <!-- 36 -->
      <g transform="translate(15.73375 134.6875)scale(0.08 -0.08)">
       <use xlink:href="#BitstreamVeraSans-Roman-33"/>
       <use x="63.623046875" xlink:href="#BitstreamVeraSans-Roman-36"/>
      </g>
     </g>
    </g>
    <g id="ytick_3">
     <g id="line2d_21">
      <g>
       <use style="stroke:#000000;stroke-width:0.5;" x="28.8" xlink:href="#md7965d1ba0" y="109.44"/>
      </g>
     </g>
     <g id="line2d_22">
      <g>
       <use style="stroke:#000000;stroke-width:0.5;" x="207.36" xlink:href="#md9a1c1a7cd" y="109.44"/>
      </g>
     </g>
     <g id="text_11">
      <!-- 38 -->
      <g transform="translate(15.7775 111.6475)scale(0.08 -0.08)">
       <use xlink:href="#BitstreamVeraSans-Roman-33"/>
       <use x="63.623046875" xlink:href="#BitstreamVeraSans-Roman-38"/>
      </g>
     </g>
    </g>
    <g id="ytick_4">
     <g id="line2d_23">
      <g>
       <use style="stroke:#000000;stroke-width:0.5;" x="28.8" xlink:href="#md7965d1ba0" y="86.4"/>
      </g>
     </g>
     <g id="line2d_24">
      <g>
       <use style="stroke:#000000;stroke-width:0.5;" x="207.36" xlink:href="#md9a1c1a7cd" y="86.4"/>
      </g>
     </g>
     <g id="text_12">
      <!-- 40 -->
      <g transform="translate(15.5425 88.6075)scale(0.08 -0.08)">
       <use xlink:href="#BitstreamVeraSans-Roman-34"/>
       <use x="63.623046875" xlink:href="#BitstreamVeraSans-Roman-30"/>
      </g>
     </g>
    </g>
    <g id="ytick_5">
     <g id="line2d_25">
      <g>
       <use style="stroke:#000000;stroke-width:0.5;" x="28.8" xlink:href="#md7965d1ba0" y="63.36"/>
      </g>
     </g>
     <g id="line2d_26">
      <g>
       <use style="stroke:#000000;stroke-width:0.5;" x="207.36" xlink:href="#md9a1c1a7cd" y="63.36"/>
      </g>
     </g>
     <g id="text_13">
      <!-- 42 -->
      <g transform="translate(15.8125 65.5675)scale(0.08 -0.08)">
       <use xlink:href="#BitstreamVeraSans-Roman-34"/>
       <use x="63.623046875" xlink:href="#BitstreamVeraSans-Roman-32"/>
      </g>
     </g>
    </g>
    <g id="ytick_6">
     <g id="line2d_27">
      <g>
       <use style="stroke:#000000;stroke-width:0.5;" x="28.8" xlink:href="#md7965d1ba0" y="40.32"/>
      </g>
     </g>
     <g id="line2d_28">
      <g>
       <use style="stroke:#000000;stroke-width:0.5;" x="207.36" xlink:href="#md9a1c1a7cd" y="40.32"/>
      </g>
     </g>
     <g id="text_14">
      <!-- 44 -->
      <g transform="translate(15.46 42.5275)scale(0.08 -0.08)">
       <use xlink:href="#BitstreamVeraSans-Roman-34"/>
       <use x="63.623046875" xlink:href="#BitstreamVeraSans-Roman-34"/>
      </g>
     </g>
    </g>
    <g id="ytick_7">
     <g id="line2d_29">
      <g>
       <use style="stroke:#000000;stroke-width:0.5;" x="28.8" xlink:href="#md7965d1ba0" y="17.28"/>
      </g>
     </g>
     <g id="line2d_30">
      <g>
       <use style="stroke:#000000;stroke-width:0.5;" x="207.36" xlink:href="#md9a1c1a7cd" y="17.28"/>
      </g>
     </g>
     <g id="text_15">
      <!-- 46 -->
      <g transform="translate(15.515 19.4875)scale(0.08 -0.08)">
       <use xlink:href="#BitstreamVeraSans-Roman-34"/>
       <use x="63.623046875" xlink:href="#BitstreamVeraSans-Roman-36"/>
      </g>
     </g>
    </g>
    <g id="text_16">
     <!-- PSNR -->
     <defs>
      <path d="
M9.8125 72.9062
L23.0938 72.9062
L55.4219 11.9219
L55.4219 72.9062
L64.9844 72.9062
L64.9844 0
L51.7031 0
L19.3906 60.9844
L19.3906 0
L9.8125 0
z
" id="BitstreamVeraSans-Roman-4e"/>
      <path d="
M53.5156 70.5156
L53.5156 60.8906
Q47.9062 63.5781 42.9219 64.8906
Q37.9375 66.2188 33.2969 66.2188
Q25.25 66.2188 20.875 63.0938
Q16.5 59.9688 16.5 54.2031
Q16.5 49.3594 19.4062 46.8906
Q22.3125 44.4375 30.4219 42.9219
L36.375 41.7031
Q47.4062 39.5938 52.6562 34.2969
Q57.9062 29 57.9062 20.125
Q57.9062 9.51562 50.7969 4.04688
Q43.7031 -1.42188 29.9844 -1.42188
Q24.8125 -1.42188 18.9688 -0.25
Q13.1406 0.921875 6.89062 3.21875
L6.89062 13.375
Q12.8906 10.0156 18.6562 8.29688
Q24.4219 6.59375 29.9844 6.59375
Q38.4219 6.59375 43.0156 9.90625
Q47.6094 13.2344 47.6094 19.3906
Q47.6094 24.75 44.3125 27.7812
Q41.0156 30.8125 33.5 32.3281
L27.4844 33.5
Q16.4531 35.6875 11.5156 40.375
Q6.59375 45.0625 6.59375 53.4219
Q6.59375 63.0938 13.4062 68.6562
Q20.2188 74.2188 32.1719 74.2188
Q37.3125 74.2188 42.625 73.2812
Q47.9531 72.3594 53.5156 70.5156" id="BitstreamVeraSans-Roman-53"/>
      <path d="
M19.6719 64.7969
L19.6719 37.4062
L32.0781 37.4062
Q38.9688 37.4062 42.7188 40.9688
Q46.4844 44.5312 46.4844 51.125
Q46.4844 57.6719 42.7188 61.2344
Q38.9688 64.7969 32.0781 64.7969
z

M9.8125 72.9062
L32.0781 72.9062
Q44.3438 72.9062 50.6094 67.3594
Q56.8906 61.8125 56.8906 51.125
Q56.8906 40.3281 50.6094 34.8125
Q44.3438 29.2969 32.0781 29.2969
L19.6719 29.2969
L19.6719 0
L9.8125 0
z
" id="BitstreamVeraSans-Roman-50"/>
      <path d="
M44.3906 34.1875
Q47.5625 33.1094 50.5625 29.5938
Q53.5625 26.0781 56.5938 19.9219
L66.6094 0
L56 0
L46.6875 18.7031
Q43.0625 26.0312 39.6719 28.4219
Q36.2812 30.8125 30.4219 30.8125
L19.6719 30.8125
L19.6719 0
L9.8125 0
L9.8125 72.9062
L32.0781 72.9062
Q44.5781 72.9062 50.7344 67.6719
Q56.8906 62.4531 56.8906 51.9062
Q56.8906 45.0156 53.6875 40.4688
Q50.4844 35.9375 44.3906 34.1875
M19.6719 64.7969
L19.6719 38.9219
L32.0781 38.9219
Q39.2031 38.9219 42.8438 42.2188
Q46.4844 45.5156 46.4844 51.9062
Q46.4844 58.2969 42.8438 61.5469
Q39.2031 64.7969 32.0781 64.7969
z
" id="BitstreamVeraSans-Roman-52"/>
     </defs>
     <g transform="translate(8.79625 96.615625)rotate(-90.0)scale(0.08 -0.08)">
      <use xlink:href="#BitstreamVeraSans-Roman-50"/>
      <use x="60.302734375" xlink:href="#BitstreamVeraSans-Roman-53"/>
      <use x="123.779296875" xlink:href="#BitstreamVeraSans-Roman-4e"/>
      <use x="198.583984375" xlink:href="#BitstreamVeraSans-Roman-52"/>
     </g>
    </g>
   </g>
   <g id="patch_3">
    <path d="
M207.36 155.52
L207.36 17.28" style="fill:none;stroke:#000000;"/>
   </g>
   <g id="patch_4">
    <path d="
M28.8 155.52
L28.8 17.28" style="fill:none;stroke:#000000;"/>
   </g>
   <g id="patch_5">
    <path d="
M28.8 17.28
L207.36 17.28" style="fill:none;stroke:#000000;"/>
   </g>
   <g id="patch_6">
    <path d="
M28.8 155.52
L207.36 155.52" style="fill:none;stroke:#000000;"/>
   </g>
   <g id="text_17">
    <!-- foremancif 352x288 PSNR -->
    <defs>
     <path d="
M52 44.1875
Q55.375 50.25 60.0625 53.125
Q64.75 56 71.0938 56
Q79.6406 56 84.2812 50.0156
Q88.9219 44.0469 88.9219 33.0156
L88.9219 0
L79.8906 0
L79.8906 32.7188
Q79.8906 40.5781 77.0938 44.375
Q74.3125 48.1875 68.6094 48.1875
Q61.625 48.1875 57.5625 43.5469
Q53.5156 38.9219 53.5156 30.9062
L53.5156 0
L44.4844 0
L44.4844 32.7188
Q44.4844 40.625 41.7031 44.4062
Q38.9219 48.1875 33.1094 48.1875
Q26.2188 48.1875 22.1562 43.5312
Q18.1094 38.875 18.1094 30.9062
L18.1094 0
L9.07812 0
L9.07812 54.6875
L18.1094 54.6875
L18.1094 46.1875
Q21.1875 51.2188 25.4844 53.6094
Q29.7812 56 35.6875 56
Q41.6562 56 45.8281 52.9688
Q50 49.9531 52 44.1875" id="BitstreamVeraSans-Roman-6d"/>
     <path d="
M41.1094 46.2969
Q39.5938 47.1719 37.8125 47.5781
Q36.0312 48 33.8906 48
Q26.2656 48 22.1875 43.0469
Q18.1094 38.0938 18.1094 28.8125
L18.1094 0
L9.07812 0
L9.07812 54.6875
L18.1094 54.6875
L18.1094 46.1875
Q20.9531 51.1719 25.4844 53.5781
Q30.0312 56 36.5312 56
Q37.4531 56 38.5781 55.875
Q39.7031 55.7656 41.0625 55.5156
z
" id="BitstreamVeraSans-Roman-72"/>
     <path d="
M34.2812 27.4844
Q23.3906 27.4844 19.1875 25
Q14.9844 22.5156 14.9844 16.5
Q14.9844 11.7188 18.1406 8.90625
Q21.2969 6.10938 26.7031 6.10938
Q34.1875 6.10938 38.7031 11.4062
Q43.2188 16.7031 43.2188 25.4844
L43.2188 27.4844
z

M52.2031 31.2031
L52.2031 0
L43.2188 0
L43.2188 8.29688
Q40.1406 3.32812 35.5469 0.953125
Q30.9531 -1.42188 24.3125 -1.42188
Q15.9219 -1.42188 10.9531 3.29688
Q6 8.01562 6 15.9219
Q6 25.1406 12.1719 29.8281
Q18.3594 34.5156 30.6094 34.5156
L43.2188 34.5156
L43.2188 35.4062
Q43.2188 41.6094 39.1406 45
Q35.0625 48.3906 27.6875 48.3906
Q23 48.3906 18.5469 47.2656
Q14.1094 46.1406 10.0156 43.8906
L10.0156 52.2031
Q14.9375 54.1094 19.5781 55.0469
Q24.2188 56 28.6094 56
Q40.4844 56 46.3438 49.8438
Q52.2031 43.7031 52.2031 31.2031" id="BitstreamVeraSans-Roman-61"/>
     <path d="
M48.7812 52.5938
L48.7812 44.1875
Q44.9688 46.2969 41.1406 47.3438
Q37.3125 48.3906 33.4062 48.3906
Q24.6562 48.3906 19.8125 42.8438
Q14.9844 37.3125 14.9844 27.2969
Q14.9844 17.2812 19.8125 11.7344
Q24.6562 6.20312 33.4062 6.20312
Q37.3125 6.20312 41.1406 7.25
Q44.9688 8.29688 48.7812 10.4062
L48.7812 2.09375
Q45.0156 0.34375 40.9844 -0.53125
Q36.9688 -1.42188 32.4219 -1.42188
Q20.0625 -1.42188 12.7812 6.34375
Q5.51562 14.1094 5.51562 27.2969
Q5.51562 40.6719 12.8594 48.3281
Q20.2188 56 33.0156 56
Q37.1562 56 41.1094 55.1406
Q45.0625 54.2969 48.7812 52.5938" id="BitstreamVeraSans-Roman-63"/>
     <path d="
M9.42188 54.6875
L18.4062 54.6875
L18.4062 0
L9.42188 0
z

M9.42188 75.9844
L18.4062 75.9844
L18.4062 64.5938
L9.42188 64.5938
z
" id="BitstreamVeraSans-Roman-69"/>
     <path d="
M37.1094 75.9844
L37.1094 68.5
L28.5156 68.5
Q23.6875 68.5 21.7969 66.5469
Q19.9219 64.5938 19.9219 59.5156
L19.9219 54.6875
L34.7188 54.6875
L34.7188 47.7031
L19.9219 47.7031
L19.9219 0
L10.8906 0
L10.8906 47.7031
L2.29688 47.7031
L2.29688 54.6875
L10.8906 54.6875
L10.8906 58.5
Q10.8906 67.625 15.1406 71.7969
Q19.3906 75.9844 28.6094 75.9844
z
" id="BitstreamVeraSans-Roman-66"/>
     <path id="BitstreamVeraSans-Roman-20"/>
     <path d="
M30.6094 48.3906
Q23.3906 48.3906 19.1875 42.75
Q14.9844 37.1094 14.9844 27.2969
Q14.9844 17.4844 19.1562 11.8438
Q23.3438 6.20312 30.6094 6.20312
Q37.7969 6.20312 41.9844 11.8594
Q46.1875 17.5312 46.1875 27.2969
Q46.1875 37.0156 41.9844 42.7031
Q37.7969 48.3906 30.6094 48.3906
M30.6094 56
Q42.3281 56 49.0156 48.375
Q55.7188 40.7656 55.7188 27.2969
Q55.7188 13.875 49.0156 6.21875
Q42.3281 -1.42188 30.6094 -1.42188
Q18.8438 -1.42188 12.1719 6.21875
Q5.51562 13.875 5.51562 27.2969
Q5.51562 40.7656 12.1719 48.375
Q18.8438 56 30.6094 56" id="BitstreamVeraSans-Roman-6f"/>
     <path d="
M10.7969 72.9062
L49.5156 72.9062
L49.5156 64.5938
L19.8281 64.5938
L19.8281 46.7344
Q21.9688 47.4688 24.1094 47.8281
Q26.2656 48.1875 28.4219 48.1875
Q40.625 48.1875 47.75 41.5
Q54.8906 34.8125 54.8906 23.3906
Q54.8906 11.625 47.5625 5.09375
Q40.2344 -1.42188 26.9062 -1.42188
Q22.3125 -1.42188 17.5469 -0.640625
Q12.7969 0.140625 7.71875 1.70312
L7.71875 11.625
Q12.1094 9.23438 16.7969 8.0625
Q21.4844 6.89062 26.7031 6.89062
Q35.1562 6.89062 40.0781 11.3281
Q45.0156 15.7656 45.0156 23.3906
Q45.0156 31 40.0781 35.4375
Q35.1562 39.8906 26.7031 39.8906
Q22.75 39.8906 18.8125 39.0156
Q14.8906 38.1406 10.7969 36.2812
z
" id="BitstreamVeraSans-Roman-35"/>
     <path d="
M54.8906 54.6875
L35.1094 28.0781
L55.9062 0
L45.3125 0
L29.3906 21.4844
L13.4844 0
L2.875 0
L24.125 28.6094
L4.6875 54.6875
L15.2812 54.6875
L29.7812 35.2031
L44.2812 54.6875
z
" id="BitstreamVeraSans-Roman-78"/>
     <path d="
M56.2031 29.5938
L56.2031 25.2031
L14.8906 25.2031
Q15.4844 15.9219 20.4844 11.0625
Q25.4844 6.20312 34.4219 6.20312
Q39.5938 6.20312 44.4531 7.46875
Q49.3125 8.73438 54.1094 11.2812
L54.1094 2.78125
Q49.2656 0.734375 44.1875 -0.34375
Q39.1094 -1.42188 33.8906 -1.42188
Q20.7969 -1.42188 13.1562 6.1875
Q5.51562 13.8125 5.51562 26.8125
Q5.51562 40.2344 12.7656 48.1094
Q20.0156 56 32.3281 56
Q43.3594 56 49.7812 48.8906
Q56.2031 41.7969 56.2031 29.5938
M47.2188 32.2344
Q47.125 39.5938 43.0938 43.9844
Q39.0625 48.3906 32.4219 48.3906
Q24.9062 48.3906 20.3906 44.1406
Q15.875 39.8906 15.1875 32.1719
z
" id="BitstreamVeraSans-Roman-65"/>
     <path d="
M54.8906 33.0156
L54.8906 0
L45.9062 0
L45.9062 32.7188
Q45.9062 40.4844 42.875 44.3281
Q39.8438 48.1875 33.7969 48.1875
Q26.5156 48.1875 22.3125 43.5469
Q18.1094 38.9219 18.1094 30.9062
L18.1094 0
L9.07812 0
L9.07812 54.6875
L18.1094 54.6875
L18.1094 46.1875
Q21.3438 51.125 25.7031 53.5625
Q30.0781 56 35.7969 56
Q45.2188 56 50.0469 50.1719
Q54.8906 44.3438 54.8906 33.0156" id="BitstreamVeraSans-Roman-6e"/>
    </defs>
    <g transform="translate(55.36725 12.28)scale(0.096 -0.096)">
     <use xlink:href="#BitstreamVeraSans-Roman-66"/>
     <use x="35.205078125" xlink:href="#BitstreamVeraSans-Roman-6f"/>
     <use x="96.38671875" xlink:href="#BitstreamVeraSans-Roman-72"/>
     <use x="135.25" xlink:href="#BitstreamVeraSans-Roman-65"/>
     <use x="196.7734375" xlink:href="#BitstreamVeraSans-Roman-6d"/>
     <use x="294.185546875" xlink:href="#BitstreamVeraSans-Roman-61"/>
     <use x="355.46484375" xlink:href="#BitstreamVeraSans-Roman-6e"/>
     <use x="418.84375" xlink:href="#BitstreamVeraSans-Roman-63"/>
     <use x="473.82421875" xlink:href="#BitstreamVeraSans-Roman-69"/>
     <use x="501.607421875" xlink:href="#BitstreamVeraSans-Roman-66"/>
     <use x="536.8125" xlink:href="#BitstreamVeraSans-Roman-20"/>
     <use x="568.599609375" xlink:href="#BitstreamVeraSans-Roman-33"/>
     <use x="632.22265625" xlink:href="#BitstreamVeraSans-Roman-35"/>
     <use x="695.845703125" xlink:href="#BitstreamVeraSans-Roman-32"/>
     <use x="759.46875" xlink:href="#BitstreamVeraSans-Roman-78"/>
     <use x="818.6484375" xlink:href="#BitstreamVeraSans-Roman-32"/>
     <use x="882.271484375" xlink:href="#BitstreamVeraSans-Roman-38"/>
     <use x="945.89453125" xlink:href="#BitstreamVeraSans-Roman-38"/>
     <use x="1009.517578125" xlink:href="#BitstreamVeraSans-Roman-20"/>
     <use x="1041.3046875" xlink:href="#BitstreamVeraSans-Roman-50"/>
     <use x="1101.607421875" xlink:href="#BitstreamVeraSans-Roman-53"/>
     <use x="1165.083984375" xlink:href="#BitstreamVeraSans-Roman-4e"/>
     <use x="1239.888671875" xlink:href="#BitstreamVeraSans-Roman-52"/>
    </g>
   </g>
  </g>
 </g>
 <defs>
  <clipPath id="p82ecb0581d">
   <rect height="138.24" width="178.56" x="28.8" y="17.28"/>
  </clipPath>
 </defs>
 <defs>
  <pattern height="72" id="h3b8c4a4298" patternUnits="userSpaceOnUse" width="72" x="0" y="0">
   <rect fill="#008000" height="73" width="73" x="0" y="0"/>
   <path d="
M-36 36
L36 -36
M-24 48
L48 -24
M-12 60
L60 -12
M0 72
L72 0
M12 84
L84 12
M24 96
L96 24
M36 108
L108 36
M-36 36
L36 108
M-24 24
L48 96
M-12 12
L60 84
M0 0
L72 72
M12 -12
L84 60
M24 -24
L96 48
M36 -36
L108 36" style="fill:#008000;stroke:#008000;stroke-linecap:butt;stroke-linejoin:miter;stroke-width:1.0;"/>
  </pattern>
 </defs>
</svg>
