<?xml version="1.0" encoding="utf-8" standalone="no"?>
<!DOCTYPE svg PUBLIC "-//W3C//DTD SVG 1.1//EN"
  "http://www.w3.org/Graphics/SVG/1.1/DTD/svg11.dtd">
<!-- Created with matplotlib (http://matplotlib.org/) -->
<svg height="345pt" version="1.1" viewBox="0 0 460 345" width="460pt" xmlns="http://www.w3.org/2000/svg" xmlns:xlink="http://www.w3.org/1999/xlink">
 <defs>
  <style type="text/css">
*{stroke-linecap:butt;stroke-linejoin:round;}
  </style>
 </defs>
 <g id="figure_1">
  <g id="patch_1">
   <path d="
M0 345.6
L460.8 345.6
L460.8 0
L0 0
z
" style="fill:#ffffff;"/>
  </g>
  <g id="axes_1">
   <g id="patch_2">
    <path d="
M57.6 311.04
L414.72 311.04
L414.72 34.56
L57.6 34.56
z
" style="fill:#ffffff;"/>
   </g>
   <g id="PolyCollection_1">
    <defs>
     <path d="
M132 -135.026
L113.099 -135.026
L113.156 -135.122
L113.212 -135.218
L113.269 -135.314
L113.326 -135.41
L113.383 -135.506
L113.439 -135.601
L113.496 -135.697
L113.553 -135.793
L113.61 -135.889
L113.666 -135.985
L113.723 -136.081
L113.78 -136.176
L113.837 -136.272
L113.893 -136.368
L113.95 -136.464
L114.007 -136.56
L114.064 -136.656
L114.121 -136.751
L114.177 -136.847
L114.234 -136.943
L114.291 -137.039
L114.348 -137.135
L114.404 -137.231
L114.461 -137.326
L114.518 -137.422
L114.575 -137.518
L114.631 -137.614
L114.688 -137.71
L114.745 -137.805
L114.802 -137.901
L114.858 -137.997
L114.915 -138.093
L114.972 -138.189
L115.029 -138.285
L115.085 -138.38
L115.142 -138.476
L115.199 -138.572
L115.256 -138.668
L115.312 -138.764
L115.369 -138.86
L115.426 -138.955
L115.483 -139.051
L115.539 -139.147
L115.596 -139.243
L115.653 -139.339
L115.71 -139.435
L115.766 -139.53
L115.823 -139.626
L115.88 -139.722
L115.937 -139.818
L115.993 -139.914
L116.05 -140.009
L116.107 -140.105
L116.164 -140.201
L116.221 -140.297
L116.277 -140.393
L116.334 -140.489
L116.391 -140.584
L116.448 -140.68
L116.504 -140.776
L116.561 -140.872
L116.618 -140.968
L116.675 -141.064
L116.731 -141.159
L116.788 -141.255
L116.845 -141.351
L116.902 -141.447
L116.958 -141.543
L117.015 -141.639
L117.072 -141.734
L117.129 -141.83
L117.185 -141.926
L117.242 -142.022
L117.299 -142.118
L117.356 -142.213
L117.412 -142.309
L117.469 -142.405
L117.526 -142.501
L117.583 -142.597
L117.639 -142.693
L117.696 -142.788
L117.753 -142.884
L117.81 -142.98
L117.866 -143.076
L117.923 -143.172
L117.98 -143.268
L118.037 -143.363
L118.093 -143.459
L118.15 -143.555
L118.207 -143.651
L118.264 -143.747
L118.32 -143.843
L118.377 -143.938
L118.434 -144.034
L118.491 -144.13
L118.548 -144.226
L118.604 -144.322
L118.661 -144.417
L118.718 -144.513
L118.775 -144.609
L118.831 -144.705
L118.888 -144.801
L118.945 -144.897
L119.002 -144.992
L119.058 -145.088
L119.115 -145.184
L119.172 -145.28
L119.229 -145.376
L119.285 -145.472
L119.342 -145.567
L119.399 -145.663
L119.456 -145.759
L119.512 -145.855
L119.569 -145.951
L119.626 -146.047
L119.683 -146.142
L119.739 -146.238
L119.796 -146.334
L119.853 -146.43
L119.91 -146.526
L119.966 -146.622
L120.023 -146.717
L120.092 -146.813
L120.168 -146.909
L120.244 -147.005
L120.32 -147.101
L120.396 -147.196
L120.472 -147.292
L120.548 -147.388
L120.623 -147.484
L120.699 -147.58
L120.775 -147.676
L120.851 -147.771
L120.927 -147.867
L121.003 -147.963
L121.079 -148.059
L121.155 -148.155
L121.231 -148.251
L121.307 -148.346
L121.383 -148.442
L121.459 -148.538
L121.535 -148.634
L121.61 -148.73
L121.686 -148.826
L121.762 -148.921
L121.838 -149.017
L121.914 -149.113
L121.99 -149.209
L122.066 -149.305
L122.142 -149.4
L122.218 -149.496
L122.294 -149.592
L122.37 -149.688
L122.446 -149.784
L122.522 -149.88
L122.597 -149.975
L122.673 -150.071
L122.749 -150.167
L122.825 -150.263
L122.901 -150.359
L122.977 -150.455
L123.053 -150.55
L123.129 -150.646
L123.205 -150.742
L123.281 -150.838
L123.357 -150.934
L123.433 -151.03
L123.509 -151.125
L123.584 -151.221
L123.66 -151.317
L123.736 -151.413
L123.812 -151.509
L123.888 -151.604
L123.964 -151.7
L124.04 -151.796
L124.116 -151.892
L124.192 -151.988
L124.268 -152.084
L124.344 -152.179
L124.42 -152.275
L124.496 -152.371
L124.571 -152.467
L124.647 -152.563
L124.723 -152.659
L124.799 -152.754
L124.875 -152.85
L124.951 -152.946
L125.027 -153.042
L125.103 -153.138
L125.179 -153.234
L125.255 -153.329
L125.331 -153.425
L125.407 -153.521
L125.483 -153.617
L125.558 -153.713
L125.634 -153.809
L125.71 -153.904
L125.786 -154
L125.862 -154.096
L125.938 -154.192
L126.014 -154.288
L126.09 -154.383
L126.166 -154.479
L126.242 -154.575
L126.318 -154.671
L126.394 -154.767
L126.47 -154.863
L126.545 -154.958
L126.621 -155.054
L126.697 -155.15
L126.773 -155.246
L126.849 -155.342
L126.925 -155.438
L127.001 -155.533
L127.077 -155.629
L127.153 -155.725
L127.229 -155.821
L127.305 -155.917
L127.381 -156.013
L127.457 -156.108
L127.532 -156.204
L127.608 -156.3
L127.684 -156.396
L127.76 -156.492
L127.836 -156.587
L127.912 -156.683
L127.988 -156.779
L128.064 -156.875
L128.14 -156.971
L128.216 -157.067
L128.292 -157.162
L128.368 -157.258
L128.444 -157.354
L128.519 -157.45
L128.595 -157.546
L128.671 -157.642
L128.747 -157.737
L128.823 -157.833
L128.899 -157.929
L128.975 -158.025
L129.051 -158.121
L129.127 -158.217
L129.203 -158.312
L129.279 -158.408
L129.355 -158.504
L129.43 -158.6
L129.506 -158.696
L129.582 -158.791
L129.658 -158.887
L129.734 -158.983
L129.81 -159.079
L129.886 -159.175
L129.962 -159.271
L130.038 -159.366
L130.114 -159.462
L130.19 -159.558
L130.266 -159.654
L130.342 -159.75
L130.417 -159.846
L130.493 -159.941
L130.569 -160.037
L130.645 -160.133
L130.721 -160.229
L130.797 -160.325
L130.873 -160.421
L130.949 -160.516
L131.025 -160.612
L131.101 -160.708
L131.177 -160.804
L131.253 -160.9
L131.329 -160.995
L131.404 -161.091
L131.48 -161.187
L131.556 -161.283
L131.632 -161.379
L131.708 -161.475
L131.784 -161.57
L131.86 -161.666
L131.936 -161.762
L132.012 -161.858
L132.088 -161.954
L132.164 -162.05
L132.24 -162.145
L132.316 -162.241
L132.391 -162.337
L132.467 -162.433
L132.543 -162.529
L132.619 -162.625
L132.695 -162.72
L132.771 -162.816
L132.847 -162.912
L132.923 -163.008
L132.999 -163.104
L133.075 -163.2
L133.151 -163.295
L133.227 -163.391
L133.303 -163.487
L133.378 -163.583
L133.454 -163.679
L133.53 -163.774
L133.606 -163.87
L133.682 -163.966
L133.758 -164.062
L133.834 -164.158
L133.91 -164.254
L133.986 -164.349
L134.062 -164.445
L134.138 -164.541
L134.214 -164.637
L134.29 -164.733
L134.365 -164.829
L134.441 -164.924
L134.517 -165.02
L134.593 -165.116
L134.669 -165.212
L134.745 -165.308
L134.821 -165.404
L134.897 -165.499
L134.973 -165.595
L135.049 -165.691
L135.125 -165.787
L135.201 -165.883
L135.277 -165.978
L135.352 -166.074
L135.428 -166.17
L135.504 -166.266
L135.58 -166.362
L135.656 -166.458
L135.732 -166.553
L135.808 -166.649
L135.884 -166.745
L135.96 -166.841
L136.036 -166.937
L136.112 -167.033
L136.188 -167.128
L136.272 -167.224
L136.367 -167.32
L136.463 -167.416
L136.559 -167.512
L136.654 -167.608
L136.75 -167.703
L136.845 -167.799
L136.941 -167.895
L137.036 -167.991
L137.132 -168.087
L137.227 -168.182
L137.323 -168.278
L137.418 -168.374
L137.514 -168.47
L137.609 -168.566
L137.705 -168.662
L137.8 -168.757
L137.896 -168.853
L137.992 -168.949
L138.087 -169.045
L138.183 -169.141
L138.278 -169.237
L138.374 -169.332
L138.469 -169.428
L138.565 -169.524
L138.66 -169.62
L138.756 -169.716
L138.851 -169.812
L138.947 -169.907
L139.042 -170.003
L139.138 -170.099
L139.233 -170.195
L139.329 -170.291
L139.424 -170.386
L139.52 -170.482
L139.616 -170.578
L139.711 -170.674
L139.807 -170.77
L139.902 -170.866
L139.998 -170.961
L140.093 -171.057
L140.189 -171.153
L140.284 -171.249
L140.38 -171.345
L140.475 -171.441
L140.571 -171.536
L140.666 -171.632
L140.762 -171.728
L140.857 -171.824
L140.953 -171.92
L141.049 -172.016
L141.144 -172.111
L141.24 -172.207
L141.335 -172.303
L141.431 -172.399
L141.526 -172.495
L141.622 -172.591
L141.717 -172.686
L141.813 -172.782
L141.908 -172.878
L142.004 -172.974
L142.099 -173.07
L142.195 -173.165
L142.29 -173.261
L142.386 -173.357
L142.482 -173.453
L142.577 -173.549
L142.673 -173.645
L142.768 -173.74
L142.864 -173.836
L142.959 -173.932
L143.055 -174.028
L143.15 -174.124
L143.246 -174.22
L143.341 -174.315
L143.437 -174.411
L143.532 -174.507
L143.628 -174.603
L143.723 -174.699
L143.819 -174.795
L143.914 -174.89
L144.01 -174.986
L144.106 -175.082
L144.201 -175.178
L144.297 -175.274
L144.392 -175.369
L144.488 -175.465
L144.583 -175.561
L144.679 -175.657
L144.774 -175.753
L144.87 -175.849
L144.965 -175.944
L145.061 -176.04
L145.156 -176.136
L145.252 -176.232
L145.347 -176.328
L145.443 -176.424
L145.539 -176.519
L145.634 -176.615
L145.73 -176.711
L145.825 -176.807
L145.921 -176.903
L146.016 -176.999
L146.112 -177.094
L146.207 -177.19
L146.303 -177.286
L146.398 -177.382
L146.494 -177.478
L146.589 -177.573
L146.685 -177.669
L146.78 -177.765
L146.876 -177.861
L146.972 -177.957
L147.067 -178.053
L147.163 -178.148
L147.258 -178.244
L147.354 -178.34
L147.449 -178.436
L147.545 -178.532
L147.64 -178.628
L147.736 -178.723
L147.831 -178.819
L147.927 -178.915
L148.022 -179.011
L148.118 -179.107
L148.213 -179.203
L148.309 -179.298
L148.404 -179.394
L148.5 -179.49
L148.596 -179.586
L148.691 -179.682
L148.787 -179.777
L148.882 -179.873
L148.978 -179.969
L149.073 -180.065
L149.169 -180.161
L149.264 -180.257
L149.36 -180.352
L149.455 -180.448
L149.551 -180.544
L149.646 -180.64
L149.742 -180.736
L149.837 -180.832
L149.933 -180.927
L150.029 -181.023
L150.124 -181.119
L150.22 -181.215
L150.315 -181.311
L150.411 -181.407
L150.506 -181.502
L150.602 -181.598
L150.697 -181.694
L150.793 -181.79
L150.888 -181.886
L150.984 -181.982
L151.079 -182.077
L151.175 -182.173
L151.27 -182.269
L151.366 -182.365
L151.462 -182.461
L151.557 -182.556
L151.653 -182.652
L151.748 -182.748
L151.844 -182.844
L151.939 -182.94
L152.035 -183.036
L152.13 -183.131
L152.226 -183.227
L152.321 -183.323
L152.417 -183.419
L152.512 -183.515
L152.616 -183.611
L152.731 -183.706
L152.847 -183.802
L152.963 -183.898
L153.078 -183.994
L153.194 -184.09
L153.309 -184.186
L153.425 -184.281
L153.54 -184.377
L153.656 -184.473
L153.771 -184.569
L153.887 -184.665
L154.002 -184.76
L154.118 -184.856
L154.233 -184.952
L154.349 -185.048
L154.465 -185.144
L154.58 -185.24
L154.696 -185.335
L154.811 -185.431
L154.927 -185.527
L155.042 -185.623
L155.158 -185.719
L155.273 -185.815
L155.389 -185.91
L155.504 -186.006
L155.62 -186.102
L155.735 -186.198
L155.851 -186.294
L155.967 -186.39
L156.082 -186.485
L156.198 -186.581
L156.313 -186.677
L156.429 -186.773
L156.544 -186.869
L156.66 -186.964
L156.775 -187.06
L156.891 -187.156
L157.006 -187.252
L157.122 -187.348
L157.237 -187.444
L157.353 -187.539
L157.469 -187.635
L157.584 -187.731
L157.7 -187.827
L157.815 -187.923
L157.931 -188.019
L158.046 -188.114
L158.162 -188.21
L158.277 -188.306
L158.393 -188.402
L158.508 -188.498
L158.624 -188.594
L158.739 -188.689
L158.855 -188.785
L158.971 -188.881
L159.086 -188.977
L159.202 -189.073
L159.317 -189.169
L159.433 -189.264
L159.548 -189.36
L159.664 -189.456
L159.779 -189.552
L159.895 -189.648
L160.01 -189.743
L160.126 -189.839
L160.241 -189.935
L160.357 -190.031
L160.473 -190.127
L160.588 -190.223
L160.704 -190.318
L160.819 -190.414
L160.935 -190.51
L161.05 -190.606
L161.166 -190.702
L161.281 -190.798
L161.397 -190.893
L161.512 -190.989
L161.628 -191.085
L161.744 -191.181
L161.859 -191.277
L161.975 -191.373
L162.09 -191.468
L162.206 -191.564
L162.321 -191.66
L162.437 -191.756
L162.552 -191.852
L162.668 -191.947
L162.783 -192.043
L162.899 -192.139
L163.014 -192.235
L163.13 -192.331
L163.246 -192.427
L163.361 -192.522
L163.477 -192.618
L163.592 -192.714
L163.708 -192.81
L163.823 -192.906
L163.939 -193.002
L164.054 -193.097
L164.17 -193.193
L164.285 -193.289
L164.401 -193.385
L164.516 -193.481
L164.632 -193.577
L164.748 -193.672
L164.863 -193.768
L164.979 -193.864
L165.094 -193.96
L165.21 -194.056
L165.325 -194.151
L165.441 -194.247
L165.556 -194.343
L165.672 -194.439
L165.787 -194.535
L165.903 -194.631
L166.018 -194.726
L166.134 -194.822
L166.25 -194.918
L166.365 -195.014
L166.481 -195.11
L166.596 -195.206
L166.712 -195.301
L166.827 -195.397
L166.943 -195.493
L167.058 -195.589
L167.174 -195.685
L167.289 -195.781
L167.405 -195.876
L167.52 -195.972
L167.636 -196.068
L167.752 -196.164
L167.867 -196.26
L167.983 -196.355
L168.098 -196.451
L168.214 -196.547
L168.329 -196.643
L168.445 -196.739
L168.56 -196.835
L168.676 -196.93
L168.791 -197.026
L168.925 -197.122
L169.061 -197.218
L169.198 -197.314
L169.335 -197.41
L169.471 -197.505
L169.608 -197.601
L169.745 -197.697
L169.881 -197.793
L170.018 -197.889
L170.154 -197.985
L170.291 -198.08
L170.428 -198.176
L170.564 -198.272
L170.701 -198.368
L170.838 -198.464
L170.974 -198.56
L171.111 -198.655
L171.248 -198.751
L171.384 -198.847
L171.521 -198.943
L171.657 -199.039
L171.794 -199.134
L171.931 -199.23
L172.067 -199.326
L172.204 -199.422
L172.341 -199.518
L172.477 -199.614
L172.614 -199.709
L172.75 -199.805
L172.887 -199.901
L173.024 -199.997
L173.16 -200.093
L173.297 -200.189
L173.434 -200.284
L173.57 -200.38
L173.707 -200.476
L173.843 -200.572
L173.98 -200.668
L174.117 -200.764
L174.253 -200.859
L174.39 -200.955
L174.527 -201.051
L174.663 -201.147
L174.8 -201.243
L174.936 -201.338
L175.073 -201.434
L175.21 -201.53
L175.346 -201.626
L175.483 -201.722
L175.62 -201.818
L175.756 -201.913
L175.893 -202.009
L176.03 -202.105
L176.166 -202.201
L176.303 -202.297
L176.439 -202.393
L176.576 -202.488
L176.713 -202.584
L176.849 -202.68
L176.986 -202.776
L177.123 -202.872
L177.259 -202.968
L177.396 -203.063
L177.532 -203.159
L177.669 -203.255
L177.806 -203.351
L177.942 -203.447
L178.079 -203.542
L178.216 -203.638
L178.352 -203.734
L178.489 -203.83
L178.625 -203.926
L178.762 -204.022
L178.899 -204.117
L179.035 -204.213
L179.172 -204.309
L179.309 -204.405
L179.445 -204.501
L179.582 -204.597
L179.718 -204.692
L179.855 -204.788
L179.992 -204.884
L180.128 -204.98
L180.265 -205.076
L180.402 -205.172
L180.538 -205.267
L180.675 -205.363
L180.812 -205.459
L180.948 -205.555
L181.085 -205.651
L181.221 -205.746
L181.358 -205.842
L181.495 -205.938
L181.631 -206.034
L181.768 -206.13
L181.905 -206.226
L182.041 -206.321
L182.178 -206.417
L182.314 -206.513
L182.451 -206.609
L182.588 -206.705
L182.724 -206.801
L182.861 -206.896
L182.998 -206.992
L183.134 -207.088
L183.271 -207.184
L183.407 -207.28
L183.544 -207.376
L183.681 -207.471
L183.817 -207.567
L183.954 -207.663
L184.091 -207.759
L184.227 -207.855
L184.364 -207.951
L184.5 -208.046
L184.637 -208.142
L184.774 -208.238
L184.91 -208.334
L185.047 -208.43
L185.192 -208.525
L185.352 -208.621
L185.511 -208.717
L185.67 -208.813
L185.83 -208.909
L185.989 -209.005
L186.148 -209.1
L186.308 -209.196
L186.467 -209.292
L186.627 -209.388
L186.786 -209.484
L186.945 -209.58
L187.105 -209.675
L187.264 -209.771
L187.423 -209.867
L187.583 -209.963
L187.742 -210.059
L187.901 -210.155
L188.061 -210.25
L188.22 -210.346
L188.379 -210.442
L188.539 -210.538
L188.698 -210.634
L188.857 -210.729
L189.017 -210.825
L189.176 -210.921
L189.336 -211.017
L189.495 -211.113
L189.654 -211.209
L189.814 -211.304
L189.973 -211.4
L190.132 -211.496
L190.292 -211.592
L190.451 -211.688
L190.61 -211.784
L190.77 -211.879
L190.929 -211.975
L191.088 -212.071
L191.248 -212.167
L191.407 -212.263
L191.566 -212.359
L191.726 -212.454
L191.885 -212.55
L192.045 -212.646
L192.204 -212.742
L192.363 -212.838
L192.523 -212.933
L192.682 -213.029
L192.841 -213.125
L193.001 -213.221
L193.16 -213.317
L193.319 -213.413
L193.479 -213.508
L193.638 -213.604
L193.797 -213.7
L193.957 -213.796
L194.116 -213.892
L194.275 -213.988
L194.435 -214.083
L194.594 -214.179
L194.754 -214.275
L194.913 -214.371
L195.072 -214.467
L195.232 -214.563
L195.391 -214.658
L195.55 -214.754
L195.71 -214.85
L195.869 -214.946
L196.028 -215.042
L196.188 -215.137
L196.347 -215.233
L196.506 -215.329
L196.666 -215.425
L196.825 -215.521
L196.984 -215.617
L197.144 -215.712
L197.303 -215.808
L197.463 -215.904
L197.622 -216
L197.781 -216.096
L197.941 -216.192
L198.1 -216.287
L198.259 -216.383
L198.419 -216.479
L198.578 -216.575
L198.737 -216.671
L198.897 -216.767
L199.056 -216.862
L199.215 -216.958
L199.375 -217.054
L199.534 -217.15
L199.693 -217.246
L199.853 -217.342
L200.012 -217.437
L200.172 -217.533
L200.331 -217.629
L200.49 -217.725
L200.65 -217.821
L200.809 -217.916
L200.968 -218.012
L201.128 -218.108
L201.287 -218.204
L201.472 -218.3
L201.661 -218.396
L201.851 -218.491
L202.041 -218.587
L202.231 -218.683
L202.421 -218.779
L202.611 -218.875
L202.801 -218.971
L202.991 -219.066
L203.181 -219.162
L203.371 -219.258
L203.56 -219.354
L203.75 -219.45
L203.94 -219.546
L204.13 -219.641
L204.32 -219.737
L204.51 -219.833
L204.7 -219.929
L204.89 -220.025
L205.08 -220.12
L205.27 -220.216
L205.46 -220.312
L205.649 -220.408
L205.839 -220.504
L206.029 -220.6
L206.219 -220.695
L206.409 -220.791
L206.599 -220.887
L206.789 -220.983
L206.979 -221.079
L207.169 -221.175
L207.359 -221.27
L207.548 -221.366
L207.738 -221.462
L207.928 -221.558
L208.118 -221.654
L208.308 -221.75
L208.498 -221.845
L208.688 -221.941
L208.878 -222.037
L209.068 -222.133
L209.258 -222.229
L209.448 -222.324
L209.637 -222.42
L209.827 -222.516
L210.017 -222.612
L210.207 -222.708
L210.397 -222.804
L210.587 -222.899
L210.777 -222.995
L210.967 -223.091
L211.157 -223.187
L211.347 -223.283
L211.536 -223.379
L211.726 -223.474
L211.916 -223.57
L212.106 -223.666
L212.296 -223.762
L212.486 -223.858
L212.676 -223.954
L212.866 -224.049
L213.056 -224.145
L213.246 -224.241
L213.436 -224.337
L213.625 -224.433
L213.815 -224.529
L214.005 -224.624
L214.195 -224.72
L214.385 -224.816
L214.575 -224.912
L214.765 -225.008
L214.955 -225.103
L215.145 -225.199
L215.335 -225.295
L215.525 -225.391
L215.714 -225.487
L215.904 -225.583
L216.094 -225.678
L216.284 -225.774
L216.474 -225.87
L216.664 -225.966
L216.854 -226.062
L217.044 -226.158
L217.234 -226.253
L217.424 -226.349
L217.614 -226.445
L217.809 -226.541
L218.003 -226.637
L218.198 -226.733
L218.392 -226.828
L218.587 -226.924
L218.781 -227.02
L218.976 -227.116
L219.17 -227.212
L219.365 -227.307
L219.559 -227.403
L219.754 -227.499
L219.949 -227.595
L220.143 -227.691
L220.338 -227.787
L220.532 -227.882
L220.727 -227.978
L220.921 -228.074
L221.116 -228.17
L221.31 -228.266
L221.505 -228.362
L221.699 -228.457
L221.894 -228.553
L222.088 -228.649
L222.283 -228.745
L222.477 -228.841
L222.672 -228.937
L222.866 -229.032
L223.061 -229.128
L223.255 -229.224
L223.45 -229.32
L223.645 -229.416
L223.839 -229.511
L224.034 -229.607
L224.228 -229.703
L224.423 -229.799
L224.617 -229.895
L224.812 -229.991
L225.006 -230.086
L225.201 -230.182
L225.395 -230.278
L225.59 -230.374
L225.784 -230.47
L225.979 -230.566
L226.173 -230.661
L226.368 -230.757
L226.562 -230.853
L288.24 -230.853
L288.24 -230.853
L287.965 -230.757
L287.69 -230.661
L287.414 -230.566
L287.139 -230.47
L286.864 -230.374
L286.589 -230.278
L286.314 -230.182
L286.039 -230.086
L285.763 -229.991
L285.488 -229.895
L285.213 -229.799
L284.938 -229.703
L284.663 -229.607
L284.387 -229.511
L284.112 -229.416
L283.837 -229.32
L283.562 -229.224
L283.292 -229.128
L283.041 -229.032
L282.789 -228.937
L282.538 -228.841
L282.286 -228.745
L282.035 -228.649
L281.784 -228.553
L281.532 -228.457
L281.281 -228.362
L281.03 -228.266
L280.778 -228.17
L280.527 -228.074
L280.276 -227.978
L280.024 -227.882
L279.773 -227.787
L279.522 -227.691
L279.27 -227.595
L279.019 -227.499
L278.768 -227.403
L278.516 -227.307
L278.265 -227.212
L278.014 -227.116
L277.762 -227.02
L277.511 -226.924
L277.26 -226.828
L277.008 -226.733
L276.757 -226.637
L276.506 -226.541
L276.254 -226.445
L276.003 -226.349
L275.752 -226.253
L275.5 -226.158
L275.249 -226.062
L274.998 -225.966
L274.746 -225.87
L274.495 -225.774
L274.244 -225.678
L273.992 -225.583
L273.741 -225.487
L273.49 -225.391
L273.238 -225.295
L272.987 -225.199
L272.735 -225.103
L272.484 -225.008
L272.233 -224.912
L271.981 -224.816
L271.73 -224.72
L271.479 -224.624
L271.227 -224.529
L270.976 -224.433
L270.725 -224.337
L270.473 -224.241
L270.222 -224.145
L269.971 -224.049
L269.719 -223.954
L269.468 -223.858
L269.217 -223.762
L268.965 -223.666
L268.714 -223.57
L268.463 -223.474
L268.211 -223.379
L267.96 -223.283
L267.709 -223.187
L267.457 -223.091
L267.206 -222.995
L266.954 -222.899
L266.701 -222.804
L266.448 -222.708
L266.195 -222.612
L265.941 -222.516
L265.688 -222.42
L265.435 -222.324
L265.182 -222.229
L264.928 -222.133
L264.675 -222.037
L264.422 -221.941
L264.169 -221.845
L263.915 -221.75
L263.662 -221.654
L263.409 -221.558
L263.156 -221.462
L262.902 -221.366
L262.649 -221.27
L262.396 -221.175
L262.143 -221.079
L261.889 -220.983
L261.636 -220.887
L261.383 -220.791
L261.13 -220.695
L260.876 -220.6
L260.623 -220.504
L260.37 -220.408
L260.117 -220.312
L259.863 -220.216
L259.61 -220.12
L259.357 -220.025
L259.104 -219.929
L258.85 -219.833
L258.597 -219.737
L258.344 -219.641
L258.091 -219.546
L257.838 -219.45
L257.584 -219.354
L257.331 -219.258
L257.078 -219.162
L256.825 -219.066
L256.571 -218.971
L256.318 -218.875
L256.065 -218.779
L255.812 -218.683
L255.558 -218.587
L255.305 -218.491
L255.052 -218.396
L254.799 -218.3
L254.545 -218.204
L254.292 -218.108
L254.039 -218.012
L253.786 -217.916
L253.532 -217.821
L253.279 -217.725
L253.026 -217.629
L252.773 -217.533
L252.519 -217.437
L252.266 -217.342
L252.013 -217.246
L251.76 -217.15
L251.506 -217.054
L251.253 -216.958
L251 -216.862
L250.783 -216.767
L250.571 -216.671
L250.358 -216.575
L250.146 -216.479
L249.933 -216.383
L249.721 -216.287
L249.508 -216.192
L249.296 -216.096
L249.084 -216
L248.871 -215.904
L248.659 -215.808
L248.446 -215.712
L248.234 -215.617
L248.021 -215.521
L247.809 -215.425
L247.597 -215.329
L247.384 -215.233
L247.172 -215.137
L246.959 -215.042
L246.747 -214.946
L246.534 -214.85
L246.322 -214.754
L246.11 -214.658
L245.897 -214.563
L245.685 -214.467
L245.472 -214.371
L245.26 -214.275
L245.047 -214.179
L244.835 -214.083
L244.623 -213.988
L244.41 -213.892
L244.198 -213.796
L243.985 -213.7
L243.773 -213.604
L243.56 -213.508
L243.348 -213.413
L243.136 -213.317
L242.923 -213.221
L242.711 -213.125
L242.498 -213.029
L242.286 -212.933
L242.073 -212.838
L241.861 -212.742
L241.649 -212.646
L241.436 -212.55
L241.224 -212.454
L241.011 -212.359
L240.799 -212.263
L240.586 -212.167
L240.374 -212.071
L240.161 -211.975
L239.949 -211.879
L239.737 -211.784
L239.524 -211.688
L239.312 -211.592
L239.099 -211.496
L238.887 -211.4
L238.674 -211.304
L238.462 -211.209
L238.25 -211.113
L238.037 -211.017
L237.825 -210.921
L237.612 -210.825
L237.4 -210.729
L237.187 -210.634
L236.975 -210.538
L236.763 -210.442
L236.55 -210.346
L236.338 -210.25
L236.125 -210.155
L235.913 -210.059
L235.7 -209.963
L235.488 -209.867
L235.276 -209.771
L235.063 -209.675
L234.851 -209.58
L234.638 -209.484
L234.444 -209.388
L234.25 -209.292
L234.057 -209.196
L233.863 -209.1
L233.67 -209.005
L233.476 -208.909
L233.283 -208.813
L233.089 -208.717
L232.895 -208.621
L232.702 -208.525
L232.508 -208.43
L232.315 -208.334
L232.121 -208.238
L231.927 -208.142
L231.734 -208.046
L231.54 -207.951
L231.347 -207.855
L231.153 -207.759
L230.96 -207.663
L230.766 -207.567
L230.572 -207.471
L230.379 -207.376
L230.185 -207.28
L229.992 -207.184
L229.798 -207.088
L229.604 -206.992
L229.411 -206.896
L229.217 -206.801
L229.024 -206.705
L228.83 -206.609
L228.636 -206.513
L228.443 -206.417
L228.249 -206.321
L228.056 -206.226
L227.862 -206.13
L227.669 -206.034
L227.475 -205.938
L227.281 -205.842
L227.088 -205.746
L226.894 -205.651
L226.701 -205.555
L226.507 -205.459
L226.313 -205.363
L226.12 -205.267
L225.926 -205.172
L225.733 -205.076
L225.539 -204.98
L225.346 -204.884
L225.152 -204.788
L224.958 -204.692
L224.765 -204.597
L224.571 -204.501
L224.378 -204.405
L224.184 -204.309
L223.99 -204.213
L223.797 -204.117
L223.603 -204.022
L223.41 -203.926
L223.216 -203.83
L223.022 -203.734
L222.829 -203.638
L222.635 -203.542
L222.442 -203.447
L222.248 -203.351
L222.055 -203.255
L221.861 -203.159
L221.667 -203.063
L221.474 -202.968
L221.28 -202.872
L221.087 -202.776
L220.893 -202.68
L220.699 -202.584
L220.506 -202.488
L220.312 -202.393
L220.119 -202.297
L219.925 -202.201
L219.732 -202.105
L219.538 -202.009
L219.344 -201.913
L219.151 -201.818
L218.957 -201.722
L218.764 -201.626
L218.57 -201.53
L218.376 -201.434
L218.196 -201.338
L218.021 -201.243
L217.846 -201.147
L217.671 -201.051
L217.496 -200.955
L217.321 -200.859
L217.146 -200.764
L216.971 -200.668
L216.796 -200.572
L216.621 -200.476
L216.446 -200.38
L216.271 -200.284
L216.096 -200.189
L215.921 -200.093
L215.746 -199.997
L215.571 -199.901
L215.396 -199.805
L215.221 -199.709
L215.046 -199.614
L214.871 -199.518
L214.696 -199.422
L214.521 -199.326
L214.346 -199.23
L214.171 -199.134
L213.996 -199.039
L213.821 -198.943
L213.646 -198.847
L213.471 -198.751
L213.296 -198.655
L213.121 -198.56
L212.946 -198.464
L212.771 -198.368
L212.596 -198.272
L212.421 -198.176
L212.246 -198.08
L212.071 -197.985
L211.896 -197.889
L211.721 -197.793
L211.546 -197.697
L211.371 -197.601
L211.196 -197.505
L211.021 -197.41
L210.846 -197.314
L210.671 -197.218
L210.496 -197.122
L210.321 -197.026
L210.146 -196.93
L209.971 -196.835
L209.796 -196.739
L209.621 -196.643
L209.446 -196.547
L209.271 -196.451
L209.096 -196.355
L208.921 -196.26
L208.746 -196.164
L208.571 -196.068
L208.396 -195.972
L208.221 -195.876
L208.046 -195.781
L207.871 -195.685
L207.696 -195.589
L207.521 -195.493
L207.346 -195.397
L207.171 -195.301
L206.996 -195.206
L206.821 -195.11
L206.646 -195.014
L206.471 -194.918
L206.296 -194.822
L206.121 -194.726
L205.946 -194.631
L205.771 -194.535
L205.596 -194.439
L205.421 -194.343
L205.246 -194.247
L205.071 -194.151
L204.896 -194.056
L204.721 -193.96
L204.546 -193.864
L204.371 -193.768
L204.196 -193.672
L204.021 -193.577
L203.846 -193.481
L203.671 -193.385
L203.496 -193.289
L203.321 -193.193
L203.146 -193.097
L202.971 -193.002
L202.796 -192.906
L202.621 -192.81
L202.446 -192.714
L202.271 -192.618
L202.099 -192.522
L201.945 -192.427
L201.792 -192.331
L201.639 -192.235
L201.485 -192.139
L201.332 -192.043
L201.178 -191.947
L201.025 -191.852
L200.871 -191.756
L200.718 -191.66
L200.565 -191.564
L200.411 -191.468
L200.258 -191.373
L200.104 -191.277
L199.951 -191.181
L199.797 -191.085
L199.644 -190.989
L199.491 -190.893
L199.337 -190.798
L199.184 -190.702
L199.03 -190.606
L198.877 -190.51
L198.723 -190.414
L198.57 -190.318
L198.417 -190.223
L198.263 -190.127
L198.11 -190.031
L197.956 -189.935
L197.803 -189.839
L197.649 -189.743
L197.496 -189.648
L197.343 -189.552
L197.189 -189.456
L197.036 -189.36
L196.882 -189.264
L196.729 -189.169
L196.575 -189.073
L196.422 -188.977
L196.268 -188.881
L196.115 -188.785
L195.962 -188.689
L195.808 -188.594
L195.655 -188.498
L195.501 -188.402
L195.348 -188.306
L195.194 -188.21
L195.041 -188.114
L194.888 -188.019
L194.734 -187.923
L194.581 -187.827
L194.427 -187.731
L194.274 -187.635
L194.12 -187.539
L193.967 -187.444
L193.814 -187.348
L193.66 -187.252
L193.507 -187.156
L193.353 -187.06
L193.2 -186.964
L193.046 -186.869
L192.893 -186.773
L192.74 -186.677
L192.586 -186.581
L192.433 -186.485
L192.279 -186.39
L192.126 -186.294
L191.972 -186.198
L191.819 -186.102
L191.666 -186.006
L191.512 -185.91
L191.359 -185.815
L191.205 -185.719
L191.052 -185.623
L190.898 -185.527
L190.745 -185.431
L190.591 -185.335
L190.438 -185.24
L190.285 -185.144
L190.131 -185.048
L189.978 -184.952
L189.824 -184.856
L189.671 -184.76
L189.517 -184.665
L189.364 -184.569
L189.211 -184.473
L189.057 -184.377
L188.904 -184.281
L188.75 -184.186
L188.597 -184.09
L188.443 -183.994
L188.29 -183.898
L188.137 -183.802
L187.983 -183.706
L187.83 -183.611
L187.676 -183.515
L187.523 -183.419
L187.369 -183.323
L187.216 -183.227
L187.063 -183.131
L186.909 -183.036
L186.756 -182.94
L186.602 -182.844
L186.449 -182.748
L186.295 -182.652
L186.142 -182.556
L185.989 -182.461
L185.835 -182.365
L185.682 -182.269
L185.544 -182.173
L185.412 -182.077
L185.279 -181.982
L185.147 -181.886
L185.014 -181.79
L184.881 -181.694
L184.749 -181.598
L184.616 -181.502
L184.484 -181.407
L184.351 -181.311
L184.219 -181.215
L184.086 -181.119
L183.953 -181.023
L183.821 -180.927
L183.688 -180.832
L183.556 -180.736
L183.423 -180.64
L183.29 -180.544
L183.158 -180.448
L183.025 -180.352
L182.893 -180.257
L182.76 -180.161
L182.627 -180.065
L182.495 -179.969
L182.362 -179.873
L182.23 -179.777
L182.097 -179.682
L181.964 -179.586
L181.832 -179.49
L181.699 -179.394
L181.567 -179.298
L181.434 -179.203
L181.302 -179.107
L181.169 -179.011
L181.036 -178.915
L180.904 -178.819
L180.771 -178.723
L180.639 -178.628
L180.506 -178.532
L180.373 -178.436
L180.241 -178.34
L180.108 -178.244
L179.976 -178.148
L179.843 -178.053
L179.71 -177.957
L179.578 -177.861
L179.445 -177.765
L179.313 -177.669
L179.18 -177.573
L179.048 -177.478
L178.915 -177.382
L178.782 -177.286
L178.65 -177.19
L178.517 -177.094
L178.385 -176.999
L178.252 -176.903
L178.119 -176.807
L177.987 -176.711
L177.854 -176.615
L177.722 -176.519
L177.589 -176.424
L177.456 -176.328
L177.324 -176.232
L177.191 -176.136
L177.059 -176.04
L176.926 -175.944
L176.793 -175.849
L176.661 -175.753
L176.528 -175.657
L176.396 -175.561
L176.263 -175.465
L176.131 -175.369
L175.998 -175.274
L175.865 -175.178
L175.733 -175.082
L175.6 -174.986
L175.468 -174.89
L175.335 -174.795
L175.202 -174.699
L175.07 -174.603
L174.937 -174.507
L174.805 -174.411
L174.672 -174.315
L174.539 -174.22
L174.407 -174.124
L174.274 -174.028
L174.142 -173.932
L174.009 -173.836
L173.877 -173.74
L173.744 -173.645
L173.611 -173.549
L173.479 -173.453
L173.346 -173.357
L173.214 -173.261
L173.081 -173.165
L172.948 -173.07
L172.816 -172.974
L172.683 -172.878
L172.551 -172.782
L172.418 -172.686
L172.285 -172.591
L172.153 -172.495
L172.02 -172.399
L171.888 -172.303
L171.755 -172.207
L171.623 -172.111
L171.49 -172.016
L171.357 -171.92
L171.225 -171.824
L171.092 -171.728
L170.96 -171.632
L170.827 -171.536
L170.694 -171.441
L170.562 -171.345
L170.429 -171.249
L170.297 -171.153
L170.164 -171.057
L170.031 -170.961
L169.899 -170.866
L169.766 -170.77
L169.634 -170.674
L169.501 -170.578
L169.368 -170.482
L169.243 -170.386
L169.129 -170.291
L169.016 -170.195
L168.902 -170.099
L168.788 -170.003
L168.675 -169.907
L168.561 -169.812
L168.447 -169.716
L168.334 -169.62
L168.22 -169.524
L168.106 -169.428
L167.993 -169.332
L167.879 -169.237
L167.766 -169.141
L167.652 -169.045
L167.538 -168.949
L167.425 -168.853
L167.311 -168.757
L167.197 -168.662
L167.084 -168.566
L166.97 -168.47
L166.856 -168.374
L166.743 -168.278
L166.629 -168.182
L166.515 -168.087
L166.402 -167.991
L166.288 -167.895
L166.174 -167.799
L166.061 -167.703
L165.947 -167.608
L165.834 -167.512
L165.72 -167.416
L165.606 -167.32
L165.493 -167.224
L165.379 -167.128
L165.265 -167.033
L165.152 -166.937
L165.038 -166.841
L164.924 -166.745
L164.811 -166.649
L164.697 -166.553
L164.583 -166.458
L164.47 -166.362
L164.356 -166.266
L164.242 -166.17
L164.129 -166.074
L164.015 -165.978
L163.902 -165.883
L163.788 -165.787
L163.674 -165.691
L163.561 -165.595
L163.447 -165.499
L163.333 -165.404
L163.22 -165.308
L163.106 -165.212
L162.992 -165.116
L162.879 -165.02
L162.765 -164.924
L162.651 -164.829
L162.538 -164.733
L162.424 -164.637
L162.311 -164.541
L162.197 -164.445
L162.083 -164.349
L161.97 -164.254
L161.856 -164.158
L161.742 -164.062
L161.629 -163.966
L161.515 -163.87
L161.401 -163.774
L161.288 -163.679
L161.174 -163.583
L161.06 -163.487
L160.947 -163.391
L160.833 -163.295
L160.719 -163.2
L160.606 -163.104
L160.492 -163.008
L160.379 -162.912
L160.265 -162.816
L160.151 -162.72
L160.038 -162.625
L159.924 -162.529
L159.81 -162.433
L159.697 -162.337
L159.583 -162.241
L159.469 -162.145
L159.356 -162.05
L159.242 -161.954
L159.128 -161.858
L159.015 -161.762
L158.901 -161.666
L158.787 -161.57
L158.674 -161.475
L158.56 -161.379
L158.447 -161.283
L158.333 -161.187
L158.219 -161.091
L158.106 -160.995
L157.992 -160.9
L157.878 -160.804
L157.765 -160.708
L157.651 -160.612
L157.537 -160.516
L157.424 -160.421
L157.31 -160.325
L157.196 -160.229
L157.083 -160.133
L156.969 -160.037
L156.855 -159.941
L156.742 -159.846
L156.628 -159.75
L156.515 -159.654
L156.401 -159.558
L156.287 -159.462
L156.174 -159.366
L156.06 -159.271
L155.946 -159.175
L155.833 -159.079
L155.719 -158.983
L155.605 -158.887
L155.492 -158.791
L155.378 -158.696
L155.264 -158.6
L155.151 -158.504
L155.037 -158.408
L154.924 -158.312
L154.81 -158.217
L154.696 -158.121
L154.583 -158.025
L154.469 -157.929
L154.355 -157.833
L154.242 -157.737
L154.128 -157.642
L154.014 -157.546
L153.901 -157.45
L153.787 -157.354
L153.673 -157.258
L153.56 -157.162
L153.446 -157.067
L153.332 -156.971
L153.219 -156.875
L153.105 -156.779
L152.992 -156.683
L152.878 -156.587
L152.764 -156.492
L152.652 -156.396
L152.554 -156.3
L152.457 -156.204
L152.36 -156.108
L152.262 -156.013
L152.165 -155.917
L152.067 -155.821
L151.97 -155.725
L151.873 -155.629
L151.775 -155.533
L151.678 -155.438
L151.581 -155.342
L151.483 -155.246
L151.386 -155.15
L151.289 -155.054
L151.191 -154.958
L151.094 -154.863
L150.997 -154.767
L150.899 -154.671
L150.802 -154.575
L150.704 -154.479
L150.607 -154.383
L150.51 -154.288
L150.412 -154.192
L150.315 -154.096
L150.218 -154
L150.12 -153.904
L150.023 -153.809
L149.926 -153.713
L149.828 -153.617
L149.731 -153.521
L149.634 -153.425
L149.536 -153.329
L149.439 -153.234
L149.341 -153.138
L149.244 -153.042
L149.147 -152.946
L149.049 -152.85
L148.952 -152.754
L148.855 -152.659
L148.757 -152.563
L148.66 -152.467
L148.563 -152.371
L148.465 -152.275
L148.368 -152.179
L148.271 -152.084
L148.173 -151.988
L148.076 -151.892
L147.979 -151.796
L147.881 -151.7
L147.784 -151.604
L147.686 -151.509
L147.589 -151.413
L147.492 -151.317
L147.394 -151.221
L147.297 -151.125
L147.2 -151.03
L147.102 -150.934
L147.005 -150.838
L146.908 -150.742
L146.81 -150.646
L146.713 -150.55
L146.616 -150.455
L146.518 -150.359
L146.421 -150.263
L146.323 -150.167
L146.226 -150.071
L146.129 -149.975
L146.031 -149.88
L145.934 -149.784
L145.837 -149.688
L145.739 -149.592
L145.642 -149.496
L145.545 -149.4
L145.447 -149.305
L145.35 -149.209
L145.253 -149.113
L145.155 -149.017
L145.058 -148.921
L144.96 -148.826
L144.863 -148.73
L144.766 -148.634
L144.668 -148.538
L144.571 -148.442
L144.474 -148.346
L144.376 -148.251
L144.279 -148.155
L144.182 -148.059
L144.084 -147.963
L143.987 -147.867
L143.89 -147.771
L143.792 -147.676
L143.695 -147.58
L143.598 -147.484
L143.5 -147.388
L143.403 -147.292
L143.305 -147.196
L143.208 -147.101
L143.111 -147.005
L143.013 -146.909
L142.916 -146.813
L142.819 -146.717
L142.721 -146.622
L142.624 -146.526
L142.527 -146.43
L142.429 -146.334
L142.332 -146.238
L142.235 -146.142
L142.137 -146.047
L142.04 -145.951
L141.942 -145.855
L141.845 -145.759
L141.748 -145.663
L141.65 -145.567
L141.553 -145.472
L141.456 -145.376
L141.358 -145.28
L141.261 -145.184
L141.164 -145.088
L141.066 -144.992
L140.969 -144.897
L140.872 -144.801
L140.774 -144.705
L140.677 -144.609
L140.579 -144.513
L140.482 -144.417
L140.385 -144.322
L140.287 -144.226
L140.19 -144.13
L140.093 -144.034
L139.995 -143.938
L139.898 -143.843
L139.801 -143.747
L139.703 -143.651
L139.606 -143.555
L139.509 -143.459
L139.411 -143.363
L139.314 -143.268
L139.217 -143.172
L139.119 -143.076
L139.022 -142.98
L138.924 -142.884
L138.827 -142.788
L138.73 -142.693
L138.632 -142.597
L138.535 -142.501
L138.438 -142.405
L138.34 -142.309
L138.243 -142.213
L138.146 -142.118
L138.048 -142.022
L137.951 -141.926
L137.854 -141.83
L137.756 -141.734
L137.659 -141.639
L137.561 -141.543
L137.464 -141.447
L137.367 -141.351
L137.269 -141.255
L137.172 -141.159
L137.075 -141.064
L136.977 -140.968
L136.88 -140.872
L136.783 -140.776
L136.685 -140.68
L136.588 -140.584
L136.491 -140.489
L136.408 -140.393
L136.33 -140.297
L136.251 -140.201
L136.172 -140.105
L136.093 -140.009
L136.015 -139.914
L135.936 -139.818
L135.857 -139.722
L135.779 -139.626
L135.7 -139.53
L135.621 -139.435
L135.542 -139.339
L135.464 -139.243
L135.385 -139.147
L135.306 -139.051
L135.228 -138.955
L135.149 -138.86
L135.07 -138.764
L134.991 -138.668
L134.913 -138.572
L134.834 -138.476
L134.755 -138.38
L134.677 -138.285
L134.598 -138.189
L134.519 -138.093
L134.44 -137.997
L134.362 -137.901
L134.283 -137.805
L134.204 -137.71
L134.125 -137.614
L134.047 -137.518
L133.968 -137.422
L133.889 -137.326
L133.811 -137.231
L133.732 -137.135
L133.653 -137.039
L133.574 -136.943
L133.496 -136.847
L133.417 -136.751
L133.338 -136.656
L133.26 -136.56
L133.181 -136.464
L133.102 -136.368
L133.023 -136.272
L132.945 -136.176
L132.866 -136.081
L132.787 -135.985
L132.708 -135.889
L132.63 -135.793
L132.551 -135.697
L132.472 -135.601
L132.394 -135.506
L132.315 -135.41
L132.236 -135.314
L132.157 -135.218
L132.079 -135.122
L132 -135.026
z
" id="C0_0_2d262c05bd"/>
    </defs>
    <g clip-path="url(#pf0bbc72626)">
     <use style="fill:url(#h3b8c4a4298);fill-opacity:0.5;stroke:#008000;stroke-opacity:0.5;" x="0.0" xlink:href="#C0_0_2d262c05bd" y="345.6"/>
    </g>
   </g>
   <g id="line2d_1">
    <path clip-path="url(#pf0bbc72626)" d="
M87.8195 289.195
L103.617 252.893
L120.092 225.07
L136.472 205.129
L152.658 189.198
L169.285 175.178
L185.647 163.352
L202.122 153.063
L218.318 144.195
L234.631 136.12
L250.972 128.748
L266.997 122.684
L283.345 116.451
L299.454 110.842
L315.557 105.381
L331.733 100.743
L348.361 95.6878
L364.838 91.2044" style="fill:none;stroke:#0000ff;stroke-linecap:square;stroke-width:2;"/>
    <defs>
     <path d="
M0 3
C0.795609 3 1.55874 2.6839 2.12132 2.12132
C2.6839 1.55874 3 0.795609 3 0
C3 -0.795609 2.6839 -1.55874 2.12132 -2.12132
C1.55874 -2.6839 0.795609 -3 0 -3
C-0.795609 -3 -1.55874 -2.6839 -2.12132 -2.12132
C-2.6839 -1.55874 -3 -0.795609 -3 0
C-3 0.795609 -2.6839 1.55874 -2.12132 2.12132
C-1.55874 2.6839 -0.795609 3 0 3
z
" id="mdb00ba95ec" style="stroke:#000000;stroke-width:0.5;"/>
    </defs>
    <g clip-path="url(#pf0bbc72626)">
     <use style="fill:#0000ff;stroke:#000000;stroke-width:0.5;" x="87.8194944" xlink:href="#mdb00ba95ec" y="289.1945088"/>
     <use style="fill:#0000ff;stroke:#000000;stroke-width:0.5;" x="103.6166976" xlink:href="#mdb00ba95ec" y="252.89250048"/>
     <use style="fill:#0000ff;stroke:#000000;stroke-width:0.5;" x="120.091536" xlink:href="#mdb00ba95ec" y="225.06967296"/>
     <use style="fill:#0000ff;stroke:#000000;stroke-width:0.5;" x="136.4723328" xlink:href="#mdb00ba95ec" y="205.12933632"/>
     <use style="fill:#0000ff;stroke:#000000;stroke-width:0.5;" x="152.6576064" xlink:href="#mdb00ba95ec" y="189.1982592"/>
     <use style="fill:#0000ff;stroke:#000000;stroke-width:0.5;" x="169.2851136" xlink:href="#mdb00ba95ec" y="175.17793536"/>
     <use style="fill:#0000ff;stroke:#000000;stroke-width:0.5;" x="185.6474592" xlink:href="#mdb00ba95ec" y="163.35235584"/>
     <use style="fill:#0000ff;stroke:#000000;stroke-width:0.5;" x="202.122" xlink:href="#mdb00ba95ec" y="153.06315264"/>
     <use style="fill:#0000ff;stroke:#000000;stroke-width:0.5;" x="218.3176896" xlink:href="#mdb00ba95ec" y="144.19478016"/>
     <use style="fill:#0000ff;stroke:#000000;stroke-width:0.5;" x="234.6309312" xlink:href="#mdb00ba95ec" y="136.11958272"/>
     <use style="fill:#0000ff;stroke:#000000;stroke-width:0.5;" x="250.9721472" xlink:href="#mdb00ba95ec" y="128.74814208"/>
     <use style="fill:#0000ff;stroke:#000000;stroke-width:0.5;" x="266.997312" xlink:href="#mdb00ba95ec" y="122.68426752"/>
     <use style="fill:#0000ff;stroke:#000000;stroke-width:0.5;" x="283.3453728" xlink:href="#mdb00ba95ec" y="116.4514176"/>
     <use style="fill:#0000ff;stroke:#000000;stroke-width:0.5;" x="299.4541632" xlink:href="#mdb00ba95ec" y="110.84179968"/>
     <use style="fill:#0000ff;stroke:#000000;stroke-width:0.5;" x="315.5572992" xlink:href="#mdb00ba95ec" y="105.38062848"/>
     <use style="fill:#0000ff;stroke:#000000;stroke-width:0.5;" x="331.7330496" xlink:href="#mdb00ba95ec" y="100.7427456"/>
     <use style="fill:#0000ff;stroke:#000000;stroke-width:0.5;" x="348.3605568" xlink:href="#mdb00ba95ec" y="95.68783872"/>
     <use style="fill:#0000ff;stroke:#000000;stroke-width:0.5;" x="364.8380736" xlink:href="#mdb00ba95ec" y="91.204416"/>
    </g>
   </g>
   <g id="line2d_2">
    <path clip-path="url(#pf0bbc72626)" d="
M87.7329 265.309
L103.785 226.299
L120.044 198.847
L136.231 178.417
L152.57 162.028
L168.809 148.559
L185.131 137.111
L201.315 127.379
L217.584 119.17
L233.727 111.217
L249.682 104.572
L265.956 98.0796
L282.07 92.4536
L298.389 86.9792
L314.353 81.9511
L330.94 77.0898
L346.72 72.667
L363.067 68.5481" style="fill:none;stroke:#008000;stroke-linecap:square;stroke-width:2;"/>
    <defs>
     <path d="
M0 3
C0.795609 3 1.55874 2.6839 2.12132 2.12132
C2.6839 1.55874 3 0.795609 3 0
C3 -0.795609 2.6839 -1.55874 2.12132 -2.12132
C1.55874 -2.6839 0.795609 -3 0 -3
C-0.795609 -3 -1.55874 -2.6839 -2.12132 -2.12132
C-2.6839 -1.55874 -3 -0.795609 -3 0
C-3 0.795609 -2.6839 1.55874 -2.12132 2.12132
C-1.55874 2.6839 -0.795609 3 0 3
z
" id="m25f47eefb8" style="stroke:#000000;stroke-width:0.5;"/>
    </defs>
    <g clip-path="url(#pf0bbc72626)">
     <use style="fill:#008000;stroke:#000000;stroke-width:0.5;" x="87.7328928" xlink:href="#m25f47eefb8" y="265.30866432"/>
     <use style="fill:#008000;stroke:#000000;stroke-width:0.5;" x="103.7848416" xlink:href="#m25f47eefb8" y="226.2992256"/>
     <use style="fill:#008000;stroke:#000000;stroke-width:0.5;" x="120.0442176" xlink:href="#m25f47eefb8" y="198.84715776"/>
     <use style="fill:#008000;stroke:#000000;stroke-width:0.5;" x="136.2309792" xlink:href="#m25f47eefb8" y="178.41687552"/>
     <use style="fill:#008000;stroke:#000000;stroke-width:0.5;" x="152.5695168" xlink:href="#m25f47eefb8" y="162.02792448"/>
     <use style="fill:#008000;stroke:#000000;stroke-width:0.5;" x="168.8089536" xlink:href="#m25f47eefb8" y="148.5591552"/>
     <use style="fill:#008000;stroke:#000000;stroke-width:0.5;" x="185.1311232" xlink:href="#m25f47eefb8" y="137.11136256"/>
     <use style="fill:#008000;stroke:#000000;stroke-width:0.5;" x="201.3152064" xlink:href="#m25f47eefb8" y="127.37910528"/>
     <use style="fill:#008000;stroke:#000000;stroke-width:0.5;" x="217.5844032" xlink:href="#m25f47eefb8" y="119.16963072"/>
     <use style="fill:#008000;stroke:#000000;stroke-width:0.5;" x="233.7274176" xlink:href="#m25f47eefb8" y="111.2174208"/>
     <use style="fill:#008000;stroke:#000000;stroke-width:0.5;" x="249.6823488" xlink:href="#m25f47eefb8" y="104.57243136"/>
     <use style="fill:#008000;stroke:#000000;stroke-width:0.5;" x="265.9563072" xlink:href="#m25f47eefb8" y="98.079552"/>
     <use style="fill:#008000;stroke:#000000;stroke-width:0.5;" x="282.0695616" xlink:href="#m25f47eefb8" y="92.45359872"/>
     <use style="fill:#008000;stroke:#000000;stroke-width:0.5;" x="298.3890528" xlink:href="#m25f47eefb8" y="86.97920256"/>
     <use style="fill:#008000;stroke:#000000;stroke-width:0.5;" x="314.3526144" xlink:href="#m25f47eefb8" y="81.95106816"/>
     <use style="fill:#008000;stroke:#000000;stroke-width:0.5;" x="330.9402432" xlink:href="#m25f47eefb8" y="77.08978944"/>
     <use style="fill:#008000;stroke:#000000;stroke-width:0.5;" x="346.7195904" xlink:href="#m25f47eefb8" y="72.66703104"/>
     <use style="fill:#008000;stroke:#000000;stroke-width:0.5;" x="363.067056" xlink:href="#m25f47eefb8" y="68.54805504"/>
    </g>
   </g>
   <g id="matplotlib.axis_1">
    <g id="xtick_1">
     <g id="line2d_3">
      <defs>
       <path d="
M0 0
L0 -4" id="mc7db9fdffb" style="stroke:#000000;stroke-width:0.5;"/>
      </defs>
      <g>
       <use style="stroke:#000000;stroke-width:0.5;" x="57.6" xlink:href="#mc7db9fdffb" y="311.04"/>
      </g>
     </g>
     <g id="line2d_4">
      <defs>
       <path d="
M0 0
L0 4" id="m5a7d422ac3" style="stroke:#000000;stroke-width:0.5;"/>
      </defs>
      <g>
       <use style="stroke:#000000;stroke-width:0.5;" x="57.6" xlink:href="#m5a7d422ac3" y="34.56"/>
      </g>
     </g>
     <g id="text_1">
      <!-- 0 -->
      <defs>
       <path d="
M31.7812 66.4062
Q24.1719 66.4062 20.3281 58.9062
Q16.5 51.4219 16.5 36.375
Q16.5 21.3906 20.3281 13.8906
Q24.1719 6.39062 31.7812 6.39062
Q39.4531 6.39062 43.2812 13.8906
Q47.125 21.3906 47.125 36.375
Q47.125 51.4219 43.2812 58.9062
Q39.4531 66.4062 31.7812 66.4062
M31.7812 74.2188
Q44.0469 74.2188 50.5156 64.5156
Q56.9844 54.8281 56.9844 36.375
Q56.9844 17.9688 50.5156 8.26562
Q44.0469 -1.42188 31.7812 -1.42188
Q19.5312 -1.42188 13.0625 8.26562
Q6.59375 17.9688 6.59375 36.375
Q6.59375 54.8281 13.0625 64.5156
Q19.5312 74.2188 31.7812 74.2188" id="BitstreamVeraSans-Roman-30"/>
      </defs>
      <g transform="translate(55.584375 321.11875)scale(0.08 -0.08)">
       <use xlink:href="#BitstreamVeraSans-Roman-30"/>
      </g>
     </g>
    </g>
    <g id="xtick_2">
     <g id="line2d_5">
      <g>
       <use style="stroke:#000000;stroke-width:0.5;" x="117.12" xlink:href="#mc7db9fdffb" y="311.04"/>
      </g>
     </g>
     <g id="line2d_6">
      <g>
       <use style="stroke:#000000;stroke-width:0.5;" x="117.12" xlink:href="#m5a7d422ac3" y="34.56"/>
      </g>
     </g>
     <g id="text_2">
      <!-- 200 -->
      <defs>
       <path d="
M19.1875 8.29688
L53.6094 8.29688
L53.6094 0
L7.32812 0
L7.32812 8.29688
Q12.9375 14.1094 22.625 23.8906
Q32.3281 33.6875 34.8125 36.5312
Q39.5469 41.8438 41.4219 45.5312
Q43.3125 49.2188 43.3125 52.7812
Q43.3125 58.5938 39.2344 62.25
Q35.1562 65.9219 28.6094 65.9219
Q23.9688 65.9219 18.8125 64.3125
Q13.6719 62.7031 7.8125 59.4219
L7.8125 69.3906
Q13.7656 71.7812 18.9375 73
Q24.125 74.2188 28.4219 74.2188
Q39.75 74.2188 46.4844 68.5469
Q53.2188 62.8906 53.2188 53.4219
Q53.2188 48.9219 51.5312 44.8906
Q49.8594 40.875 45.4062 35.4062
Q44.1875 33.9844 37.6406 27.2188
Q31.1094 20.4531 19.1875 8.29688" id="BitstreamVeraSans-Roman-32"/>
      </defs>
      <g transform="translate(110.04375 321.11875)scale(0.08 -0.08)">
       <use xlink:href="#BitstreamVeraSans-Roman-32"/>
       <use x="63.623046875" xlink:href="#BitstreamVeraSans-Roman-30"/>
       <use x="127.24609375" xlink:href="#BitstreamVeraSans-Roman-30"/>
      </g>
     </g>
    </g>
    <g id="xtick_3">
     <g id="line2d_7">
      <g>
       <use style="stroke:#000000;stroke-width:0.5;" x="176.64" xlink:href="#mc7db9fdffb" y="311.04"/>
      </g>
     </g>
     <g id="line2d_8">
      <g>
       <use style="stroke:#000000;stroke-width:0.5;" x="176.64" xlink:href="#m5a7d422ac3" y="34.56"/>
      </g>
     </g>
     <g id="text_3">
      <!-- 400 -->
      <defs>
       <path d="
M37.7969 64.3125
L12.8906 25.3906
L37.7969 25.3906
z

M35.2031 72.9062
L47.6094 72.9062
L47.6094 25.3906
L58.0156 25.3906
L58.0156 17.1875
L47.6094 17.1875
L47.6094 0
L37.7969 0
L37.7969 17.1875
L4.89062 17.1875
L4.89062 26.7031
z
" id="BitstreamVeraSans-Roman-34"/>
      </defs>
      <g transform="translate(169.46625 321.11875)scale(0.08 -0.08)">
       <use xlink:href="#BitstreamVeraSans-Roman-34"/>
       <use x="63.623046875" xlink:href="#BitstreamVeraSans-Roman-30"/>
       <use x="127.24609375" xlink:href="#BitstreamVeraSans-Roman-30"/>
      </g>
     </g>
    </g>
    <g id="xtick_4">
     <g id="line2d_9">
      <g>
       <use style="stroke:#000000;stroke-width:0.5;" x="236.16" xlink:href="#mc7db9fdffb" y="311.04"/>
      </g>
     </g>
     <g id="line2d_10">
      <g>
       <use style="stroke:#000000;stroke-width:0.5;" x="236.16" xlink:href="#m5a7d422ac3" y="34.56"/>
      </g>
     </g>
     <g id="text_4">
      <!-- 600 -->
      <defs>
       <path d="
M33.0156 40.375
Q26.375 40.375 22.4844 35.8281
Q18.6094 31.2969 18.6094 23.3906
Q18.6094 15.5312 22.4844 10.9531
Q26.375 6.39062 33.0156 6.39062
Q39.6562 6.39062 43.5312 10.9531
Q47.4062 15.5312 47.4062 23.3906
Q47.4062 31.2969 43.5312 35.8281
Q39.6562 40.375 33.0156 40.375
M52.5938 71.2969
L52.5938 62.3125
Q48.875 64.0625 45.0938 64.9844
Q41.3125 65.9219 37.5938 65.9219
Q27.8281 65.9219 22.6719 59.3281
Q17.5312 52.7344 16.7969 39.4062
Q19.6719 43.6562 24.0156 45.9219
Q28.375 48.1875 33.5938 48.1875
Q44.5781 48.1875 50.9531 41.5156
Q57.3281 34.8594 57.3281 23.3906
Q57.3281 12.1562 50.6875 5.35938
Q44.0469 -1.42188 33.0156 -1.42188
Q20.3594 -1.42188 13.6719 8.26562
Q6.98438 17.9688 6.98438 36.375
Q6.98438 53.6562 15.1875 63.9375
Q23.3906 74.2188 37.2031 74.2188
Q40.9219 74.2188 44.7031 73.4844
Q48.4844 72.75 52.5938 71.2969" id="BitstreamVeraSans-Roman-36"/>
      </defs>
      <g transform="translate(229.07 321.11875)scale(0.08 -0.08)">
       <use xlink:href="#BitstreamVeraSans-Roman-36"/>
       <use x="63.623046875" xlink:href="#BitstreamVeraSans-Roman-30"/>
       <use x="127.24609375" xlink:href="#BitstreamVeraSans-Roman-30"/>
      </g>
     </g>
    </g>
    <g id="xtick_5">
     <g id="line2d_11">
      <g>
       <use style="stroke:#000000;stroke-width:0.5;" x="295.68" xlink:href="#mc7db9fdffb" y="311.04"/>
      </g>
     </g>
     <g id="line2d_12">
      <g>
       <use style="stroke:#000000;stroke-width:0.5;" x="295.68" xlink:href="#m5a7d422ac3" y="34.56"/>
      </g>
     </g>
     <g id="text_5">
      <!-- 800 -->
      <defs>
       <path d="
M31.7812 34.625
Q24.75 34.625 20.7188 30.8594
Q16.7031 27.0938 16.7031 20.5156
Q16.7031 13.9219 20.7188 10.1562
Q24.75 6.39062 31.7812 6.39062
Q38.8125 6.39062 42.8594 10.1719
Q46.9219 13.9688 46.9219 20.5156
Q46.9219 27.0938 42.8906 30.8594
Q38.875 34.625 31.7812 34.625
M21.9219 38.8125
Q15.5781 40.375 12.0312 44.7188
Q8.5 49.0781 8.5 55.3281
Q8.5 64.0625 14.7188 69.1406
Q20.9531 74.2188 31.7812 74.2188
Q42.6719 74.2188 48.875 69.1406
Q55.0781 64.0625 55.0781 55.3281
Q55.0781 49.0781 51.5312 44.7188
Q48 40.375 41.7031 38.8125
Q48.8281 37.1562 52.7969 32.3125
Q56.7812 27.4844 56.7812 20.5156
Q56.7812 9.90625 50.3125 4.23438
Q43.8438 -1.42188 31.7812 -1.42188
Q19.7344 -1.42188 13.25 4.23438
Q6.78125 9.90625 6.78125 20.5156
Q6.78125 27.4844 10.7812 32.3125
Q14.7969 37.1562 21.9219 38.8125
M18.3125 54.3906
Q18.3125 48.7344 21.8438 45.5625
Q25.3906 42.3906 31.7812 42.3906
Q38.1406 42.3906 41.7188 45.5625
Q45.3125 48.7344 45.3125 54.3906
Q45.3125 60.0625 41.7188 63.2344
Q38.1406 66.4062 31.7812 66.4062
Q25.3906 66.4062 21.8438 63.2344
Q18.3125 60.0625 18.3125 54.3906" id="BitstreamVeraSans-Roman-38"/>
      </defs>
      <g transform="translate(288.581875 321.11875)scale(0.08 -0.08)">
       <use xlink:href="#BitstreamVeraSans-Roman-38"/>
       <use x="63.623046875" xlink:href="#BitstreamVeraSans-Roman-30"/>
       <use x="127.24609375" xlink:href="#BitstreamVeraSans-Roman-30"/>
      </g>
     </g>
    </g>
    <g id="xtick_6">
     <g id="line2d_13">
      <g>
       <use style="stroke:#000000;stroke-width:0.5;" x="355.2" xlink:href="#mc7db9fdffb" y="311.04"/>
      </g>
     </g>
     <g id="line2d_14">
      <g>
       <use style="stroke:#000000;stroke-width:0.5;" x="355.2" xlink:href="#m5a7d422ac3" y="34.56"/>
      </g>
     </g>
     <g id="text_6">
      <!-- 1000 -->
      <defs>
       <path d="
M12.4062 8.29688
L28.5156 8.29688
L28.5156 63.9219
L10.9844 60.4062
L10.9844 69.3906
L28.4219 72.9062
L38.2812 72.9062
L38.2812 8.29688
L54.3906 8.29688
L54.3906 0
L12.4062 0
z
" id="BitstreamVeraSans-Roman-31"/>
      </defs>
      <g transform="translate(345.725 321.11875)scale(0.08 -0.08)">
       <use xlink:href="#BitstreamVeraSans-Roman-31"/>
       <use x="63.623046875" xlink:href="#BitstreamVeraSans-Roman-30"/>
       <use x="127.24609375" xlink:href="#BitstreamVeraSans-Roman-30"/>
       <use x="190.869140625" xlink:href="#BitstreamVeraSans-Roman-30"/>
      </g>
     </g>
    </g>
    <g id="xtick_7">
     <g id="line2d_15">
      <g>
       <use style="stroke:#000000;stroke-width:0.5;" x="414.72" xlink:href="#mc7db9fdffb" y="311.04"/>
      </g>
     </g>
     <g id="line2d_16">
      <g>
       <use style="stroke:#000000;stroke-width:0.5;" x="414.72" xlink:href="#m5a7d422ac3" y="34.56"/>
      </g>
     </g>
     <g id="text_7">
      <!-- 1200 -->
      <g transform="translate(405.245 321.11875)scale(0.08 -0.08)">
       <use xlink:href="#BitstreamVeraSans-Roman-31"/>
       <use x="63.623046875" xlink:href="#BitstreamVeraSans-Roman-32"/>
       <use x="127.24609375" xlink:href="#BitstreamVeraSans-Roman-30"/>
       <use x="190.869140625" xlink:href="#BitstreamVeraSans-Roman-30"/>
      </g>
     </g>
    </g>
    <g id="text_8">
     <!-- kbps -->
     <defs>
      <path d="
M44.2812 53.0781
L44.2812 44.5781
Q40.4844 46.5312 36.375 47.5
Q32.2812 48.4844 27.875 48.4844
Q21.1875 48.4844 17.8438 46.4375
Q14.5 44.3906 14.5 40.2812
Q14.5 37.1562 16.8906 35.375
Q19.2812 33.5938 26.5156 31.9844
L29.5938 31.2969
Q39.1562 29.25 43.1875 25.5156
Q47.2188 21.7812 47.2188 15.0938
Q47.2188 7.46875 41.1875 3.01562
Q35.1562 -1.42188 24.6094 -1.42188
Q20.2188 -1.42188 15.4531 -0.5625
Q10.6875 0.296875 5.42188 2
L5.42188 11.2812
Q10.4062 8.6875 15.2344 7.39062
Q20.0625 6.10938 24.8125 6.10938
Q31.1562 6.10938 34.5625 8.28125
Q37.9844 10.4531 37.9844 14.4062
Q37.9844 18.0625 35.5156 20.0156
Q33.0625 21.9688 24.7031 23.7812
L21.5781 24.5156
Q13.2344 26.2656 9.51562 29.9062
Q5.8125 33.5469 5.8125 39.8906
Q5.8125 47.6094 11.2812 51.7969
Q16.75 56 26.8125 56
Q31.7812 56 36.1719 55.2656
Q40.5781 54.5469 44.2812 53.0781" id="BitstreamVeraSans-Roman-73"/>
      <path d="
M48.6875 27.2969
Q48.6875 37.2031 44.6094 42.8438
Q40.5312 48.4844 33.4062 48.4844
Q26.2656 48.4844 22.1875 42.8438
Q18.1094 37.2031 18.1094 27.2969
Q18.1094 17.3906 22.1875 11.75
Q26.2656 6.10938 33.4062 6.10938
Q40.5312 6.10938 44.6094 11.75
Q48.6875 17.3906 48.6875 27.2969
M18.1094 46.3906
Q20.9531 51.2656 25.2656 53.625
Q29.5938 56 35.5938 56
Q45.5625 56 51.7812 48.0938
Q58.0156 40.1875 58.0156 27.2969
Q58.0156 14.4062 51.7812 6.48438
Q45.5625 -1.42188 35.5938 -1.42188
Q29.5938 -1.42188 25.2656 0.953125
Q20.9531 3.32812 18.1094 8.20312
L18.1094 0
L9.07812 0
L9.07812 75.9844
L18.1094 75.9844
z
" id="BitstreamVeraSans-Roman-62"/>
      <path d="
M18.1094 8.20312
L18.1094 -20.7969
L9.07812 -20.7969
L9.07812 54.6875
L18.1094 54.6875
L18.1094 46.3906
Q20.9531 51.2656 25.2656 53.625
Q29.5938 56 35.5938 56
Q45.5625 56 51.7812 48.0938
Q58.0156 40.1875 58.0156 27.2969
Q58.0156 14.4062 51.7812 6.48438
Q45.5625 -1.42188 35.5938 -1.42188
Q29.5938 -1.42188 25.2656 0.953125
Q20.9531 3.32812 18.1094 8.20312
M48.6875 27.2969
Q48.6875 37.2031 44.6094 42.8438
Q40.5312 48.4844 33.4062 48.4844
Q26.2656 48.4844 22.1875 42.8438
Q18.1094 37.2031 18.1094 27.2969
Q18.1094 17.3906 22.1875 11.75
Q26.2656 6.10938 33.4062 6.10938
Q40.5312 6.10938 44.6094 11.75
Q48.6875 17.3906 48.6875 27.2969" id="BitstreamVeraSans-Roman-70"/>
      <path d="
M9.07812 75.9844
L18.1094 75.9844
L18.1094 31.1094
L44.9219 54.6875
L56.3906 54.6875
L27.3906 29.1094
L57.625 0
L45.9062 0
L18.1094 26.7031
L18.1094 0
L9.07812 0
z
" id="BitstreamVeraSans-Roman-6b"/>
     </defs>
     <g transform="translate(227.239375 333.86125)scale(0.08 -0.08)">
      <use xlink:href="#BitstreamVeraSans-Roman-6b"/>
      <use x="57.91015625" xlink:href="#BitstreamVeraSans-Roman-62"/>
      <use x="121.38671875" xlink:href="#BitstreamVeraSans-Roman-70"/>
      <use x="184.86328125" xlink:href="#BitstreamVeraSans-Roman-73"/>
     </g>
    </g>
   </g>
   <g id="matplotlib.axis_2">
    <g id="ytick_1">
     <g id="line2d_17">
      <defs>
       <path d="
M0 0
L4 0" id="md7965d1ba0" style="stroke:#000000;stroke-width:0.5;"/>
      </defs>
      <g>
       <use style="stroke:#000000;stroke-width:0.5;" x="57.6" xlink:href="#md7965d1ba0" y="311.04"/>
      </g>
     </g>
     <g id="line2d_18">
      <defs>
       <path d="
M0 0
L-4 0" id="md9a1c1a7cd" style="stroke:#000000;stroke-width:0.5;"/>
      </defs>
      <g>
       <use style="stroke:#000000;stroke-width:0.5;" x="414.72" xlink:href="#md9a1c1a7cd" y="311.04"/>
      </g>
     </g>
     <g id="text_9">
      <!-- 34 -->
      <defs>
       <path d="
M40.5781 39.3125
Q47.6562 37.7969 51.625 33
Q55.6094 28.2188 55.6094 21.1875
Q55.6094 10.4062 48.1875 4.48438
Q40.7656 -1.42188 27.0938 -1.42188
Q22.5156 -1.42188 17.6562 -0.515625
Q12.7969 0.390625 7.625 2.20312
L7.625 11.7188
Q11.7188 9.32812 16.5938 8.10938
Q21.4844 6.89062 26.8125 6.89062
Q36.0781 6.89062 40.9375 10.5469
Q45.7969 14.2031 45.7969 21.1875
Q45.7969 27.6406 41.2812 31.2656
Q36.7656 34.9062 28.7188 34.9062
L20.2188 34.9062
L20.2188 43.0156
L29.1094 43.0156
Q36.375 43.0156 40.2344 45.9219
Q44.0938 48.8281 44.0938 54.2969
Q44.0938 59.9062 40.1094 62.9062
Q36.1406 65.9219 28.7188 65.9219
Q24.6562 65.9219 20.0156 65.0312
Q15.375 64.1562 9.8125 62.3125
L9.8125 71.0938
Q15.4375 72.6562 20.3438 73.4375
Q25.25 74.2188 29.5938 74.2188
Q40.8281 74.2188 47.3594 69.1094
Q53.9062 64.0156 53.9062 55.3281
Q53.9062 49.2656 50.4375 45.0938
Q46.9688 40.9219 40.5781 39.3125" id="BitstreamVeraSans-Roman-33"/>
      </defs>
      <g transform="translate(44.47875 313.2475)scale(0.08 -0.08)">
       <use xlink:href="#BitstreamVeraSans-Roman-33"/>
       <use x="63.623046875" xlink:href="#BitstreamVeraSans-Roman-34"/>
      </g>
     </g>
    </g>
    <g id="ytick_2">
     <g id="line2d_19">
      <g>
       <use style="stroke:#000000;stroke-width:0.5;" x="57.6" xlink:href="#md7965d1ba0" y="264.96"/>
      </g>
     </g>
     <g id="line2d_20">
      <g>
       <use style="stroke:#000000;stroke-width:0.5;" x="414.72" xlink:href="#md9a1c1a7cd" y="264.96"/>
      </g>
     </g>
     <g id="text_10">
      <!-- 36 -->
      <g transform="translate(44.53375 267.1675)scale(0.08 -0.08)">
       <use xlink:href="#BitstreamVeraSans-Roman-33"/>
       <use x="63.623046875" xlink:href="#BitstreamVeraSans-Roman-36"/>
      </g>
     </g>
    </g>
    <g id="ytick_3">
     <g id="line2d_21">
      <g>
       <use style="stroke:#000000;stroke-width:0.5;" x="57.6" xlink:href="#md7965d1ba0" y="218.88"/>
      </g>
     </g>
     <g id="line2d_22">
      <g>
       <use style="stroke:#000000;stroke-width:0.5;" x="414.72" xlink:href="#md9a1c1a7cd" y="218.88"/>
      </g>
     </g>
     <g id="text_11">
      <!-- 38 -->
      <g transform="translate(44.5775 221.0875)scale(0.08 -0.08)">
       <use xlink:href="#BitstreamVeraSans-Roman-33"/>
       <use x="63.623046875" xlink:href="#BitstreamVeraSans-Roman-38"/>
      </g>
     </g>
    </g>
    <g id="ytick_4">
     <g id="line2d_23">
      <g>
       <use style="stroke:#000000;stroke-width:0.5;" x="57.6" xlink:href="#md7965d1ba0" y="172.8"/>
      </g>
     </g>
     <g id="line2d_24">
      <g>
       <use style="stroke:#000000;stroke-width:0.5;" x="414.72" xlink:href="#md9a1c1a7cd" y="172.8"/>
      </g>
     </g>
     <g id="text_12">
      <!-- 40 -->
      <g transform="translate(44.3425 175.0075)scale(0.08 -0.08)">
       <use xlink:href="#BitstreamVeraSans-Roman-34"/>
       <use x="63.623046875" xlink:href="#BitstreamVeraSans-Roman-30"/>
      </g>
     </g>
    </g>
    <g id="ytick_5">
     <g id="line2d_25">
      <g>
       <use style="stroke:#000000;stroke-width:0.5;" x="57.6" xlink:href="#md7965d1ba0" y="126.72"/>
      </g>
     </g>
     <g id="line2d_26">
      <g>
       <use style="stroke:#000000;stroke-width:0.5;" x="414.72" xlink:href="#md9a1c1a7cd" y="126.72"/>
      </g>
     </g>
     <g id="text_13">
      <!-- 42 -->
      <g transform="translate(44.6125 128.9275)scale(0.08 -0.08)">
       <use xlink:href="#BitstreamVeraSans-Roman-34"/>
       <use x="63.623046875" xlink:href="#BitstreamVeraSans-Roman-32"/>
      </g>
     </g>
    </g>
    <g id="ytick_6">
     <g id="line2d_27">
      <g>
       <use style="stroke:#000000;stroke-width:0.5;" x="57.6" xlink:href="#md7965d1ba0" y="80.64"/>
      </g>
     </g>
     <g id="line2d_28">
      <g>
       <use style="stroke:#000000;stroke-width:0.5;" x="414.72" xlink:href="#md9a1c1a7cd" y="80.64"/>
      </g>
     </g>
     <g id="text_14">
      <!-- 44 -->
      <g transform="translate(44.26 82.8475)scale(0.08 -0.08)">
       <use xlink:href="#BitstreamVeraSans-Roman-34"/>
       <use x="63.623046875" xlink:href="#BitstreamVeraSans-Roman-34"/>
      </g>
     </g>
    </g>
    <g id="ytick_7">
     <g id="line2d_29">
      <g>
       <use style="stroke:#000000;stroke-width:0.5;" x="57.6" xlink:href="#md7965d1ba0" y="34.56"/>
      </g>
     </g>
     <g id="line2d_30">
      <g>
       <use style="stroke:#000000;stroke-width:0.5;" x="414.72" xlink:href="#md9a1c1a7cd" y="34.56"/>
      </g>
     </g>
     <g id="text_15">
      <!-- 46 -->
      <g transform="translate(44.315 36.7675)scale(0.08 -0.08)">
       <use xlink:href="#BitstreamVeraSans-Roman-34"/>
       <use x="63.623046875" xlink:href="#BitstreamVeraSans-Roman-36"/>
      </g>
     </g>
    </g>
    <g id="text_16">
     <!-- PSNR -->
     <defs>
      <path d="
M53.5156 70.5156
L53.5156 60.8906
Q47.9062 63.5781 42.9219 64.8906
Q37.9375 66.2188 33.2969 66.2188
Q25.25 66.2188 20.875 63.0938
Q16.5 59.9688 16.5 54.2031
Q16.5 49.3594 19.4062 46.8906
Q22.3125 44.4375 30.4219 42.9219
L36.375 41.7031
Q47.4062 39.5938 52.6562 34.2969
Q57.9062 29 57.9062 20.125
Q57.9062 9.51562 50.7969 4.04688
Q43.7031 -1.42188 29.9844 -1.42188
Q24.8125 -1.42188 18.9688 -0.25
Q13.1406 0.921875 6.89062 3.21875
L6.89062 13.375
Q12.8906 10.0156 18.6562 8.29688
Q24.4219 6.59375 29.9844 6.59375
Q38.4219 6.59375 43.0156 9.90625
Q47.6094 13.2344 47.6094 19.3906
Q47.6094 24.75 44.3125 27.7812
Q41.0156 30.8125 33.5 32.3281
L27.4844 33.5
Q16.4531 35.6875 11.5156 40.375
Q6.59375 45.0625 6.59375 53.4219
Q6.59375 63.0938 13.4062 68.6562
Q20.2188 74.2188 32.1719 74.2188
Q37.3125 74.2188 42.625 73.2812
Q47.9531 72.3594 53.5156 70.5156" id="BitstreamVeraSans-Roman-53"/>
      <path d="
M44.3906 34.1875
Q47.5625 33.1094 50.5625 29.5938
Q53.5625 26.0781 56.5938 19.9219
L66.6094 0
L56 0
L46.6875 18.7031
Q43.0625 26.0312 39.6719 28.4219
Q36.2812 30.8125 30.4219 30.8125
L19.6719 30.8125
L19.6719 0
L9.8125 0
L9.8125 72.9062
L32.0781 72.9062
Q44.5781 72.9062 50.7344 67.6719
Q56.8906 62.4531 56.8906 51.9062
Q56.8906 45.0156 53.6875 40.4688
Q50.4844 35.9375 44.3906 34.1875
M19.6719 64.7969
L19.6719 38.9219
L32.0781 38.9219
Q39.2031 38.9219 42.8438 42.2188
Q46.4844 45.5156 46.4844 51.9062
Q46.4844 58.2969 42.8438 61.5469
Q39.2031 64.7969 32.0781 64.7969
z
" id="BitstreamVeraSans-Roman-52"/>
      <path d="
M9.8125 72.9062
L23.0938 72.9062
L55.4219 11.9219
L55.4219 72.9062
L64.9844 72.9062
L64.9844 0
L51.7031 0
L19.3906 60.9844
L19.3906 0
L9.8125 0
z
" id="BitstreamVeraSans-Roman-4e"/>
      <path d="
M19.6719 64.7969
L19.6719 37.4062
L32.0781 37.4062
Q38.9688 37.4062 42.7188 40.9688
Q46.4844 44.5312 46.4844 51.125
Q46.4844 57.6719 42.7188 61.2344
Q38.9688 64.7969 32.0781 64.7969
z

M9.8125 72.9062
L32.0781 72.9062
Q44.3438 72.9062 50.6094 67.3594
Q56.8906 61.8125 56.8906 51.125
Q56.8906 40.3281 50.6094 34.8125
Q44.3438 29.2969 32.0781 29.2969
L19.6719 29.2969
L19.6719 0
L9.8125 0
z
" id="BitstreamVeraSans-Roman-50"/>
     </defs>
     <g transform="translate(37.59625 183.015625)rotate(-90.0)scale(0.08 -0.08)">
      <use xlink:href="#BitstreamVeraSans-Roman-50"/>
      <use x="60.302734375" xlink:href="#BitstreamVeraSans-Roman-53"/>
      <use x="123.779296875" xlink:href="#BitstreamVeraSans-Roman-4e"/>
      <use x="198.583984375" xlink:href="#BitstreamVeraSans-Roman-52"/>
     </g>
    </g>
   </g>
   <g id="patch_3">
    <path d="
M57.6 311.04
L57.6 34.56" style="fill:none;stroke:#000000;"/>
   </g>
   <g id="patch_4">
    <path d="
M57.6 311.04
L414.72 311.04" style="fill:none;stroke:#000000;"/>
   </g>
   <g id="patch_5">
    <path d="
M57.6 34.56
L414.72 34.56" style="fill:none;stroke:#000000;"/>
   </g>
   <g id="patch_6">
    <path d="
M414.72 311.04
L414.72 34.56" style="fill:none;stroke:#000000;"/>
   </g>
   <g id="text_17">
    <!-- foremancif 352x288 PSNR -->
    <defs>
     <path d="
M37.1094 75.9844
L37.1094 68.5
L28.5156 68.5
Q23.6875 68.5 21.7969 66.5469
Q19.9219 64.5938 19.9219 59.5156
L19.9219 54.6875
L34.7188 54.6875
L34.7188 47.7031
L19.9219 47.7031
L19.9219 0
L10.8906 0
L10.8906 47.7031
L2.29688 47.7031
L2.29688 54.6875
L10.8906 54.6875
L10.8906 58.5
Q10.8906 67.625 15.1406 71.7969
Q19.3906 75.9844 28.6094 75.9844
z
" id="BitstreamVeraSans-Roman-66"/>
     <path d="
M54.8906 54.6875
L35.1094 28.0781
L55.9062 0
L45.3125 0
L29.3906 21.4844
L13.4844 0
L2.875 0
L24.125 28.6094
L4.6875 54.6875
L15.2812 54.6875
L29.7812 35.2031
L44.2812 54.6875
z
" id="BitstreamVeraSans-Roman-78"/>
     <path d="
M41.1094 46.2969
Q39.5938 47.1719 37.8125 47.5781
Q36.0312 48 33.8906 48
Q26.2656 48 22.1875 43.0469
Q18.1094 38.0938 18.1094 28.8125
L18.1094 0
L9.07812 0
L9.07812 54.6875
L18.1094 54.6875
L18.1094 46.1875
Q20.9531 51.1719 25.4844 53.5781
Q30.0312 56 36.5312 56
Q37.4531 56 38.5781 55.875
Q39.7031 55.7656 41.0625 55.5156
z
" id="BitstreamVeraSans-Roman-72"/>
     <path id="BitstreamVeraSans-Roman-20"/>
     <path d="
M54.8906 33.0156
L54.8906 0
L45.9062 0
L45.9062 32.7188
Q45.9062 40.4844 42.875 44.3281
Q39.8438 48.1875 33.7969 48.1875
Q26.5156 48.1875 22.3125 43.5469
Q18.1094 38.9219 18.1094 30.9062
L18.1094 0
L9.07812 0
L9.07812 54.6875
L18.1094 54.6875
L18.1094 46.1875
Q21.3438 51.125 25.7031 53.5625
Q30.0781 56 35.7969 56
Q45.2188 56 50.0469 50.1719
Q54.8906 44.3438 54.8906 33.0156" id="BitstreamVeraSans-Roman-6e"/>
     <path d="
M30.6094 48.3906
Q23.3906 48.3906 19.1875 42.75
Q14.9844 37.1094 14.9844 27.2969
Q14.9844 17.4844 19.1562 11.8438
Q23.3438 6.20312 30.6094 6.20312
Q37.7969 6.20312 41.9844 11.8594
Q46.1875 17.5312 46.1875 27.2969
Q46.1875 37.0156 41.9844 42.7031
Q37.7969 48.3906 30.6094 48.3906
M30.6094 56
Q42.3281 56 49.0156 48.375
Q55.7188 40.7656 55.7188 27.2969
Q55.7188 13.875 49.0156 6.21875
Q42.3281 -1.42188 30.6094 -1.42188
Q18.8438 -1.42188 12.1719 6.21875
Q5.51562 13.875 5.51562 27.2969
Q5.51562 40.7656 12.1719 48.375
Q18.8438 56 30.6094 56" id="BitstreamVeraSans-Roman-6f"/>
     <path d="
M56.2031 29.5938
L56.2031 25.2031
L14.8906 25.2031
Q15.4844 15.9219 20.4844 11.0625
Q25.4844 6.20312 34.4219 6.20312
Q39.5938 6.20312 44.4531 7.46875
Q49.3125 8.73438 54.1094 11.2812
L54.1094 2.78125
Q49.2656 0.734375 44.1875 -0.34375
Q39.1094 -1.42188 33.8906 -1.42188
Q20.7969 -1.42188 13.1562 6.1875
Q5.51562 13.8125 5.51562 26.8125
Q5.51562 40.2344 12.7656 48.1094
Q20.0156 56 32.3281 56
Q43.3594 56 49.7812 48.8906
Q56.2031 41.7969 56.2031 29.5938
M47.2188 32.2344
Q47.125 39.5938 43.0938 43.9844
Q39.0625 48.3906 32.4219 48.3906
Q24.9062 48.3906 20.3906 44.1406
Q15.875 39.8906 15.1875 32.1719
z
" id="BitstreamVeraSans-Roman-65"/>
     <path d="
M9.42188 54.6875
L18.4062 54.6875
L18.4062 0
L9.42188 0
z

M9.42188 75.9844
L18.4062 75.9844
L18.4062 64.5938
L9.42188 64.5938
z
" id="BitstreamVeraSans-Roman-69"/>
     <path d="
M48.7812 52.5938
L48.7812 44.1875
Q44.9688 46.2969 41.1406 47.3438
Q37.3125 48.3906 33.4062 48.3906
Q24.6562 48.3906 19.8125 42.8438
Q14.9844 37.3125 14.9844 27.2969
Q14.9844 17.2812 19.8125 11.7344
Q24.6562 6.20312 33.4062 6.20312
Q37.3125 6.20312 41.1406 7.25
Q44.9688 8.29688 48.7812 10.4062
L48.7812 2.09375
Q45.0156 0.34375 40.9844 -0.53125
Q36.9688 -1.42188 32.4219 -1.42188
Q20.0625 -1.42188 12.7812 6.34375
Q5.51562 14.1094 5.51562 27.2969
Q5.51562 40.6719 12.8594 48.3281
Q20.2188 56 33.0156 56
Q37.1562 56 41.1094 55.1406
Q45.0625 54.2969 48.7812 52.5938" id="BitstreamVeraSans-Roman-63"/>
     <path d="
M34.2812 27.4844
Q23.3906 27.4844 19.1875 25
Q14.9844 22.5156 14.9844 16.5
Q14.9844 11.7188 18.1406 8.90625
Q21.2969 6.10938 26.7031 6.10938
Q34.1875 6.10938 38.7031 11.4062
Q43.2188 16.7031 43.2188 25.4844
L43.2188 27.4844
z

M52.2031 31.2031
L52.2031 0
L43.2188 0
L43.2188 8.29688
Q40.1406 3.32812 35.5469 0.953125
Q30.9531 -1.42188 24.3125 -1.42188
Q15.9219 -1.42188 10.9531 3.29688
Q6 8.01562 6 15.9219
Q6 25.1406 12.1719 29.8281
Q18.3594 34.5156 30.6094 34.5156
L43.2188 34.5156
L43.2188 35.4062
Q43.2188 41.6094 39.1406 45
Q35.0625 48.3906 27.6875 48.3906
Q23 48.3906 18.5469 47.2656
Q14.1094 46.1406 10.0156 43.8906
L10.0156 52.2031
Q14.9375 54.1094 19.5781 55.0469
Q24.2188 56 28.6094 56
Q40.4844 56 46.3438 49.8438
Q52.2031 43.7031 52.2031 31.2031" id="BitstreamVeraSans-Roman-61"/>
     <path d="
M52 44.1875
Q55.375 50.25 60.0625 53.125
Q64.75 56 71.0938 56
Q79.6406 56 84.2812 50.0156
Q88.9219 44.0469 88.9219 33.0156
L88.9219 0
L79.8906 0
L79.8906 32.7188
Q79.8906 40.5781 77.0938 44.375
Q74.3125 48.1875 68.6094 48.1875
Q61.625 48.1875 57.5625 43.5469
Q53.5156 38.9219 53.5156 30.9062
L53.5156 0
L44.4844 0
L44.4844 32.7188
Q44.4844 40.625 41.7031 44.4062
Q38.9219 48.1875 33.1094 48.1875
Q26.2188 48.1875 22.1562 43.5312
Q18.1094 38.875 18.1094 30.9062
L18.1094 0
L9.07812 0
L9.07812 54.6875
L18.1094 54.6875
L18.1094 46.1875
Q21.1875 51.2188 25.4844 53.6094
Q29.7812 56 35.6875 56
Q41.6562 56 45.8281 52.9688
Q50 49.9531 52 44.1875" id="BitstreamVeraSans-Roman-6d"/>
     <path d="
M10.7969 72.9062
L49.5156 72.9062
L49.5156 64.5938
L19.8281 64.5938
L19.8281 46.7344
Q21.9688 47.4688 24.1094 47.8281
Q26.2656 48.1875 28.4219 48.1875
Q40.625 48.1875 47.75 41.5
Q54.8906 34.8125 54.8906 23.3906
Q54.8906 11.625 47.5625 5.09375
Q40.2344 -1.42188 26.9062 -1.42188
Q22.3125 -1.42188 17.5469 -0.640625
Q12.7969 0.140625 7.71875 1.70312
L7.71875 11.625
Q12.1094 9.23438 16.7969 8.0625
Q21.4844 6.89062 26.7031 6.89062
Q35.1562 6.89062 40.0781 11.3281
Q45.0156 15.7656 45.0156 23.3906
Q45.0156 31 40.0781 35.4375
Q35.1562 39.8906 26.7031 39.8906
Q22.75 39.8906 18.8125 39.0156
Q14.8906 38.1406 10.7969 36.2812
z
" id="BitstreamVeraSans-Roman-35"/>
    </defs>
    <g transform="translate(173.44725 29.56)scale(0.096 -0.096)">
     <use xlink:href="#BitstreamVeraSans-Roman-66"/>
     <use x="35.205078125" xlink:href="#BitstreamVeraSans-Roman-6f"/>
     <use x="96.38671875" xlink:href="#BitstreamVeraSans-Roman-72"/>
     <use x="135.25" xlink:href="#BitstreamVeraSans-Roman-65"/>
     <use x="196.7734375" xlink:href="#BitstreamVeraSans-Roman-6d"/>
     <use x="294.185546875" xlink:href="#BitstreamVeraSans-Roman-61"/>
     <use x="355.46484375" xlink:href="#BitstreamVeraSans-Roman-6e"/>
     <use x="418.84375" xlink:href="#BitstreamVeraSans-Roman-63"/>
     <use x="473.82421875" xlink:href="#BitstreamVeraSans-Roman-69"/>
     <use x="501.607421875" xlink:href="#BitstreamVeraSans-Roman-66"/>
     <use x="536.8125" xlink:href="#BitstreamVeraSans-Roman-20"/>
     <use x="568.599609375" xlink:href="#BitstreamVeraSans-Roman-33"/>
     <use x="632.22265625" xlink:href="#BitstreamVeraSans-Roman-35"/>
     <use x="695.845703125" xlink:href="#BitstreamVeraSans-Roman-32"/>
     <use x="759.46875" xlink:href="#BitstreamVeraSans-Roman-78"/>
     <use x="818.6484375" xlink:href="#BitstreamVeraSans-Roman-32"/>
     <use x="882.271484375" xlink:href="#BitstreamVeraSans-Roman-38"/>
     <use x="945.89453125" xlink:href="#BitstreamVeraSans-Roman-38"/>
     <use x="1009.517578125" xlink:href="#BitstreamVeraSans-Roman-20"/>
     <use x="1041.3046875" xlink:href="#BitstreamVeraSans-Roman-50"/>
     <use x="1101.607421875" xlink:href="#BitstreamVeraSans-Roman-53"/>
     <use x="1165.083984375" xlink:href="#BitstreamVeraSans-Roman-4e"/>
     <use x="1239.888671875" xlink:href="#BitstreamVeraSans-Roman-52"/>
    </g>
   </g>
   <g id="legend_1">
    <g id="patch_7">
     <path d="
M186.614 306.24
L409.92 306.24
L409.92 274.644
L186.614 274.644
L186.614 306.24
z
" style="fill:#ffffff;stroke:#000000;"/>
    </g>
    <g id="line2d_31">
     <path d="
M193.334 282.418
L206.774 282.418" style="fill:none;stroke:#008000;stroke-linecap:square;stroke-width:2;"/>
    </g>
    <g id="line2d_32">
     <g>
      <use style="fill:#008000;stroke:#000000;stroke-width:0.5;" x="193.3335" xlink:href="#m25f47eefb8" y="282.4185"/>
      <use style="fill:#008000;stroke:#000000;stroke-width:0.5;" x="206.7735" xlink:href="#m25f47eefb8" y="282.4185"/>
     </g>
    </g>
    <g id="text_18">
     <!-- codec:x265_preset:placebo CABS(27%) -->
     <defs>
      <path d="
M9.42188 75.9844
L18.4062 75.9844
L18.4062 0
L9.42188 0
z
" id="BitstreamVeraSans-Roman-6c"/>
      <path d="
M8.01562 75.875
L15.8281 75.875
Q23.1406 64.3594 26.7812 53.3125
Q30.4219 42.2812 30.4219 31.3906
Q30.4219 20.4531 26.7812 9.375
Q23.1406 -1.70312 15.8281 -13.1875
L8.01562 -13.1875
Q14.5 -2 17.7031 9.0625
Q20.9062 20.125 20.9062 31.3906
Q20.9062 42.6719 17.7031 53.6562
Q14.5 64.6562 8.01562 75.875" id="BitstreamVeraSans-Roman-29"/>
      <path d="
M11.7188 12.4062
L22.0156 12.4062
L22.0156 0
L11.7188 0
z

M11.7188 51.7031
L22.0156 51.7031
L22.0156 39.3125
L11.7188 39.3125
z
" id="BitstreamVeraSans-Roman-3a"/>
      <path d="
M19.6719 34.8125
L19.6719 8.10938
L35.5 8.10938
Q43.4531 8.10938 47.2812 11.4062
Q51.125 14.7031 51.125 21.4844
Q51.125 28.3281 47.2812 31.5625
Q43.4531 34.8125 35.5 34.8125
z

M19.6719 64.7969
L19.6719 42.8281
L34.2812 42.8281
Q41.5 42.8281 45.0312 45.5312
Q48.5781 48.25 48.5781 53.8125
Q48.5781 59.3281 45.0312 62.0625
Q41.5 64.7969 34.2812 64.7969
z

M9.8125 72.9062
L35.0156 72.9062
Q46.2969 72.9062 52.3906 68.2188
Q58.5 63.5312 58.5 54.8906
Q58.5 48.1875 55.375 44.2344
Q52.25 40.2812 46.1875 39.3125
Q53.4688 37.75 57.5 32.7812
Q61.5312 27.8281 61.5312 20.4062
Q61.5312 10.6406 54.8906 5.3125
Q48.25 0 35.9844 0
L9.8125 0
z
" id="BitstreamVeraSans-Roman-42"/>
      <path d="
M8.20312 72.9062
L55.0781 72.9062
L55.0781 68.7031
L28.6094 0
L18.3125 0
L43.2188 64.5938
L8.20312 64.5938
z
" id="BitstreamVeraSans-Roman-37"/>
      <path d="
M31 75.875
Q24.4688 64.6562 21.2812 53.6562
Q18.1094 42.6719 18.1094 31.3906
Q18.1094 20.125 21.3125 9.0625
Q24.5156 -2 31 -13.1875
L23.1875 -13.1875
Q15.875 -1.70312 12.2344 9.375
Q8.59375 20.4531 8.59375 31.3906
Q8.59375 42.2812 12.2031 53.3125
Q15.8281 64.3594 23.1875 75.875
z
" id="BitstreamVeraSans-Roman-28"/>
      <path d="
M64.4062 67.2812
L64.4062 56.8906
Q59.4219 61.5312 53.7812 63.8125
Q48.1406 66.1094 41.7969 66.1094
Q29.2969 66.1094 22.6562 58.4688
Q16.0156 50.8281 16.0156 36.375
Q16.0156 21.9688 22.6562 14.3281
Q29.2969 6.6875 41.7969 6.6875
Q48.1406 6.6875 53.7812 8.98438
Q59.4219 11.2812 64.4062 15.9219
L64.4062 5.60938
Q59.2344 2.09375 53.4375 0.328125
Q47.6562 -1.42188 41.2188 -1.42188
Q24.6562 -1.42188 15.125 8.70312
Q5.60938 18.8438 5.60938 36.375
Q5.60938 53.9531 15.125 64.0781
Q24.6562 74.2188 41.2188 74.2188
Q47.75 74.2188 53.5312 72.4844
Q59.3281 70.75 64.4062 67.2812" id="BitstreamVeraSans-Roman-43"/>
      <path d="
M50.9844 -16.6094
L50.9844 -23.5781
L-0.984375 -23.5781
L-0.984375 -16.6094
z
" id="BitstreamVeraSans-Roman-5f"/>
      <path d="
M45.4062 46.3906
L45.4062 75.9844
L54.3906 75.9844
L54.3906 0
L45.4062 0
L45.4062 8.20312
Q42.5781 3.32812 38.25 0.953125
Q33.9375 -1.42188 27.875 -1.42188
Q17.9688 -1.42188 11.7344 6.48438
Q5.51562 14.4062 5.51562 27.2969
Q5.51562 40.1875 11.7344 48.0938
Q17.9688 56 27.875 56
Q33.9375 56 38.25 53.625
Q42.5781 51.2656 45.4062 46.3906
M14.7969 27.2969
Q14.7969 17.3906 18.875 11.75
Q22.9531 6.10938 30.0781 6.10938
Q37.2031 6.10938 41.2969 11.75
Q45.4062 17.3906 45.4062 27.2969
Q45.4062 37.2031 41.2969 42.8438
Q37.2031 48.4844 30.0781 48.4844
Q22.9531 48.4844 18.875 42.8438
Q14.7969 37.2031 14.7969 27.2969" id="BitstreamVeraSans-Roman-64"/>
      <path d="
M18.3125 70.2188
L18.3125 54.6875
L36.8125 54.6875
L36.8125 47.7031
L18.3125 47.7031
L18.3125 18.0156
Q18.3125 11.3281 20.1406 9.42188
Q21.9688 7.51562 27.5938 7.51562
L36.8125 7.51562
L36.8125 0
L27.5938 0
Q17.1875 0 13.2344 3.875
Q9.28125 7.76562 9.28125 18.0156
L9.28125 47.7031
L2.6875 47.7031
L2.6875 54.6875
L9.28125 54.6875
L9.28125 70.2188
z
" id="BitstreamVeraSans-Roman-74"/>
      <path d="
M34.1875 63.1875
L20.7969 26.9062
L47.6094 26.9062
z

M28.6094 72.9062
L39.7969 72.9062
L67.5781 0
L57.3281 0
L50.6875 18.7031
L17.8281 18.7031
L11.1875 0
L0.78125 0
z
" id="BitstreamVeraSans-Roman-41"/>
      <path d="
M72.7031 32.0781
Q68.4531 32.0781 66.0312 28.4688
Q63.625 24.8594 63.625 18.4062
Q63.625 12.0625 66.0312 8.42188
Q68.4531 4.78125 72.7031 4.78125
Q76.8594 4.78125 79.2656 8.42188
Q81.6875 12.0625 81.6875 18.4062
Q81.6875 24.8125 79.2656 28.4375
Q76.8594 32.0781 72.7031 32.0781
M72.7031 38.2812
Q80.4219 38.2812 84.9531 32.9062
Q89.5 27.5469 89.5 18.4062
Q89.5 9.28125 84.9375 3.92188
Q80.375 -1.42188 72.7031 -1.42188
Q64.8906 -1.42188 60.3438 3.92188
Q55.8125 9.28125 55.8125 18.4062
Q55.8125 27.5938 60.375 32.9375
Q64.9375 38.2812 72.7031 38.2812
M22.3125 68.0156
Q18.1094 68.0156 15.6875 64.375
Q13.2812 60.75 13.2812 54.3906
Q13.2812 47.9531 15.6719 44.3281
Q18.0625 40.7188 22.3125 40.7188
Q26.5625 40.7188 28.9688 44.3281
Q31.3906 47.9531 31.3906 54.3906
Q31.3906 60.6875 28.9531 64.3438
Q26.5156 68.0156 22.3125 68.0156
M66.4062 74.2188
L74.2188 74.2188
L28.6094 -1.42188
L20.7969 -1.42188
z

M22.3125 74.2188
Q30.0312 74.2188 34.6094 68.875
Q39.2031 63.5312 39.2031 54.3906
Q39.2031 45.1719 34.6406 39.8438
Q30.0781 34.5156 22.3125 34.5156
Q14.5469 34.5156 10.0312 39.8594
Q5.51562 45.2188 5.51562 54.3906
Q5.51562 63.4844 10.0469 68.8438
Q14.5938 74.2188 22.3125 74.2188" id="BitstreamVeraSans-Roman-25"/>
     </defs>
     <g transform="translate(217.3335 285.7785)scale(0.096 -0.096)">
      <use xlink:href="#BitstreamVeraSans-Roman-63"/>
      <use x="54.98046875" xlink:href="#BitstreamVeraSans-Roman-6f"/>
      <use x="116.162109375" xlink:href="#BitstreamVeraSans-Roman-64"/>
      <use x="179.638671875" xlink:href="#BitstreamVeraSans-Roman-65"/>
      <use x="241.162109375" xlink:href="#BitstreamVeraSans-Roman-63"/>
      <use x="296.142578125" xlink:href="#BitstreamVeraSans-Roman-3a"/>
      <use x="329.833984375" xlink:href="#BitstreamVeraSans-Roman-78"/>
      <use x="389.013671875" xlink:href="#BitstreamVeraSans-Roman-32"/>
      <use x="452.63671875" xlink:href="#BitstreamVeraSans-Roman-36"/>
      <use x="516.259765625" xlink:href="#BitstreamVeraSans-Roman-35"/>
      <use x="579.8828125" xlink:href="#BitstreamVeraSans-Roman-5f"/>
      <use x="629.8828125" xlink:href="#BitstreamVeraSans-Roman-70"/>
      <use x="693.359375" xlink:href="#BitstreamVeraSans-Roman-72"/>
      <use x="732.22265625" xlink:href="#BitstreamVeraSans-Roman-65"/>
      <use x="793.74609375" xlink:href="#BitstreamVeraSans-Roman-73"/>
      <use x="845.845703125" xlink:href="#BitstreamVeraSans-Roman-65"/>
      <use x="907.369140625" xlink:href="#BitstreamVeraSans-Roman-74"/>
      <use x="946.578125" xlink:href="#BitstreamVeraSans-Roman-3a"/>
      <use x="980.26953125" xlink:href="#BitstreamVeraSans-Roman-70"/>
      <use x="1043.74609375" xlink:href="#BitstreamVeraSans-Roman-6c"/>
      <use x="1071.529296875" xlink:href="#BitstreamVeraSans-Roman-61"/>
      <use x="1132.80859375" xlink:href="#BitstreamVeraSans-Roman-63"/>
      <use x="1187.7890625" xlink:href="#BitstreamVeraSans-Roman-65"/>
      <use x="1249.3125" xlink:href="#BitstreamVeraSans-Roman-62"/>
      <use x="1312.7890625" xlink:href="#BitstreamVeraSans-Roman-6f"/>
      <use x="1373.970703125" xlink:href="#BitstreamVeraSans-Roman-20"/>
      <use x="1405.7578125" xlink:href="#BitstreamVeraSans-Roman-43"/>
      <use x="1475.58203125" xlink:href="#BitstreamVeraSans-Roman-41"/>
      <use x="1543.990234375" xlink:href="#BitstreamVeraSans-Roman-42"/>
      <use x="1610.84375" xlink:href="#BitstreamVeraSans-Roman-53"/>
      <use x="1674.3203125" xlink:href="#BitstreamVeraSans-Roman-28"/>
      <use x="1713.333984375" xlink:href="#BitstreamVeraSans-Roman-32"/>
      <use x="1776.95703125" xlink:href="#BitstreamVeraSans-Roman-37"/>
      <use x="1840.580078125" xlink:href="#BitstreamVeraSans-Roman-25"/>
      <use x="1935.599609375" xlink:href="#BitstreamVeraSans-Roman-29"/>
     </g>
    </g>
    <g id="line2d_33">
     <path d="
M193.334 296.776
L206.774 296.776" style="fill:none;stroke:#0000ff;stroke-linecap:square;stroke-width:2;"/>
    </g>
    <g id="line2d_34">
     <g>
      <use style="fill:#0000ff;stroke:#000000;stroke-width:0.5;" x="193.3335" xlink:href="#mdb00ba95ec" y="296.7765"/>
      <use style="fill:#0000ff;stroke:#000000;stroke-width:0.5;" x="206.7735" xlink:href="#mdb00ba95ec" y="296.7765"/>
     </g>
    </g>
    <g id="text_19">
     <!-- codec:x265_preset:medium (ref) -->
     <defs>
      <path d="
M8.5 21.5781
L8.5 54.6875
L17.4844 54.6875
L17.4844 21.9219
Q17.4844 14.1562 20.5 10.2656
Q23.5312 6.39062 29.5938 6.39062
Q36.8594 6.39062 41.0781 11.0312
Q45.3125 15.6719 45.3125 23.6875
L45.3125 54.6875
L54.2969 54.6875
L54.2969 0
L45.3125 0
L45.3125 8.40625
Q42.0469 3.42188 37.7188 1
Q33.4062 -1.42188 27.6875 -1.42188
Q18.2656 -1.42188 13.375 4.4375
Q8.5 10.2969 8.5 21.5781" id="BitstreamVeraSans-Roman-75"/>
     </defs>
     <g transform="translate(217.3335 300.1365)scale(0.096 -0.096)">
      <use xlink:href="#BitstreamVeraSans-Roman-63"/>
      <use x="54.98046875" xlink:href="#BitstreamVeraSans-Roman-6f"/>
      <use x="116.162109375" xlink:href="#BitstreamVeraSans-Roman-64"/>
      <use x="179.638671875" xlink:href="#BitstreamVeraSans-Roman-65"/>
      <use x="241.162109375" xlink:href="#BitstreamVeraSans-Roman-63"/>
      <use x="296.142578125" xlink:href="#BitstreamVeraSans-Roman-3a"/>
      <use x="329.833984375" xlink:href="#BitstreamVeraSans-Roman-78"/>
      <use x="389.013671875" xlink:href="#BitstreamVeraSans-Roman-32"/>
      <use x="452.63671875" xlink:href="#BitstreamVeraSans-Roman-36"/>
      <use x="516.259765625" xlink:href="#BitstreamVeraSans-Roman-35"/>
      <use x="579.8828125" xlink:href="#BitstreamVeraSans-Roman-5f"/>
      <use x="629.8828125" xlink:href="#BitstreamVeraSans-Roman-70"/>
      <use x="693.359375" xlink:href="#BitstreamVeraSans-Roman-72"/>
      <use x="732.22265625" xlink:href="#BitstreamVeraSans-Roman-65"/>
      <use x="793.74609375" xlink:href="#BitstreamVeraSans-Roman-73"/>
      <use x="845.845703125" xlink:href="#BitstreamVeraSans-Roman-65"/>
      <use x="907.369140625" xlink:href="#BitstreamVeraSans-Roman-74"/>
      <use x="946.578125" xlink:href="#BitstreamVeraSans-Roman-3a"/>
      <use x="980.26953125" xlink:href="#BitstreamVeraSans-Roman-6d"/>
      <use x="1077.681640625" xlink:href="#BitstreamVeraSans-Roman-65"/>
      <use x="1139.205078125" xlink:href="#BitstreamVeraSans-Roman-64"/>
      <use x="1202.681640625" xlink:href="#BitstreamVeraSans-Roman-69"/>
      <use x="1230.46484375" xlink:href="#BitstreamVeraSans-Roman-75"/>
      <use x="1293.84375" xlink:href="#BitstreamVeraSans-Roman-6d"/>
      <use x="1391.255859375" xlink:href="#BitstreamVeraSans-Roman-20"/>
      <use x="1423.04296875" xlink:href="#BitstreamVeraSans-Roman-28"/>
      <use x="1462.056640625" xlink:href="#BitstreamVeraSans-Roman-72"/>
      <use x="1500.919921875" xlink:href="#BitstreamVeraSans-Roman-65"/>
      <use x="1562.443359375" xlink:href="#BitstreamVeraSans-Roman-66"/>
      <use x="1597.6484375" xlink:href="#BitstreamVeraSans-Roman-29"/>
     </g>
    </g>
   </g>
  </g>
 </g>
 <defs>
  <clipPath id="pf0bbc72626">
   <rect height="276.48" width="357.12" x="57.6" y="34.56"/>
  </clipPath>
 </defs>
 <defs>
  <pattern height="72" id="h3b8c4a4298" patternUnits="userSpaceOnUse" width="72" x="0" y="0">
   <rect fill="#008000" height="73" width="73" x="0" y="0"/>
   <path d="
M-36 36
L36 -36
M-24 48
L48 -24
M-12 60
L60 -12
M0 72
L72 0
M12 84
L84 12
M24 96
L96 24
M36 108
L108 36
M-36 36
L36 108
M-24 24
L48 96
M-12 12
L60 84
M0 0
L72 72
M12 -12
L84 60
M24 -24
L96 48
M36 -36
L108 36" style="fill:#008000;stroke:#008000;stroke-linecap:butt;stroke-linejoin:miter;stroke-width:1.0;"/>
  </pattern>
 </defs>
</svg>
